<ttFont>
    <TTGlyph name="A" xMin="-155" yMin="0" xMax="750" yMax="1463">
      <contour>
        <pt x="699" y="1463" on="1"/>
        <pt x="750" y="0" on="1"/>
        <pt x="593" y="0" on="1"/>
        <pt x="580" y="476" on="1"/>
        <pt x="216" y="476" on="1"/>
        <pt x="3" y="0" on="1"/>
        <pt x="-155" y="0" on="1"/>
        <pt x="267" y="931" on="0"/>
        <pt x="510" y="1463" on="1"/>
      </contour>
      <contour>
        <pt x="570" y="1008" on="1"/>
        <pt x="568" y="1151" on="1"/>
        <pt x="568" y="1242" on="0"/>
        <pt x="575" y="1322" on="1"/>
        <pt x="526" y="1177" on="0"/>
        <pt x="423" y="947" on="1"/>
        <pt x="402" y="900" on="0"/>
        <pt x="298" y="668" on="0"/>
        <pt x="278" y="622" on="1"/>
        <pt x="579" y="622" on="1"/>
      </contour>
    </TTGlyph>
    <TTGlyph name="AE" xMin="-155" yMin="0" xMax="1303" yMax="1462">
      <contour>
        <pt x="1273" y="1320" on="1"/>
        <pt x="857" y="1320" on="1"/>
        <pt x="754" y="834" on="1"/>
        <pt x="1144" y="834" on="1"/>
        <pt x="1114" y="693" on="1"/>
        <pt x="724" y="693" on="1"/>
        <pt x="607" y="141" on="1"/>
        <pt x="1023" y="141" on="1"/>
        <pt x="993" y="0" on="1"/>
        <pt x="421" y="0" on="1"/>
        <pt x="522" y="476" on="1"/>
        <pt x="244" y="476" on="1"/>
        <pt x="203" y="396" on="0"/>
        <pt x="4" y="0" on="1"/>
        <pt x="-155" y="0" on="1"/>
        <pt x="601" y="1462" on="1"/>
        <pt x="1303" y="1462" on="1"/>
      </contour>
      <contour>
        <pt x="670" y="1318" on="1"/>
        <pt x="579" y="1138" on="1"/>
        <pt x="512" y="1007" on="0"/>
        <pt x="347" y="679" on="0"/>
        <pt x="318" y="622" on="1"/>
        <pt x="553" y="622" on="1"/>
        <pt x="701" y="1318" on="1"/>
      </contour>
    </TTGlyph>
    <TTGlyph name="Aacute" xMin="-203" yMin="0" xMax="937" yMax="1907">
      <contour>
        <pt x="937" y="1907" on="1"/>
        <pt x="933" y="1888" on="1"/>
        <pt x="892" y="1833" on="0"/>
        <pt x="674" y="1640" on="0"/>
        <pt x="587" y="1579" on="1"/>
        <pt x="494" y="1579" on="1"/>
        <pt x="499" y="1601" on="1"/>
        <pt x="643" y="1750" on="0"/>
        <pt x="749" y="1907" on="1"/>
      </contour>
      <contour>
        <pt x="463" y="1463" on="1"/>
        <pt x="652" y="1463" on="1"/>
        <pt x="669" y="992" on="0"/>
        <pt x="702" y="0" on="1"/>
        <pt x="545" y="0" on="1"/>
        <pt x="533" y="476" on="1"/>
        <pt x="169" y="476" on="1"/>
        <pt x="-45" y="0" on="1"/>
        <pt x="-203" y="0" on="1"/>
      </contour>
      <contour>
        <pt x="521" y="1151" on="1"/>
        <pt x="521" y="1159" on="0"/>
        <pt x="521" y="1228" on="0"/>
        <pt x="527" y="1322" on="1"/>
        <pt x="489" y="1209" on="0"/>
        <pt x="396" y="992" on="0"/>
        <pt x="376" y="947" on="1"/>
        <pt x="342" y="867" on="0"/>
        <pt x="231" y="622" on="1"/>
        <pt x="532" y="622" on="1"/>
        <pt x="523" y="1008" on="1"/>
      </contour>
    </TTGlyph>
    <TTGlyph name="Acircumflex" xMin="-203" yMin="0" xMax="862" yMax="1907">
      <contour>
        <pt x="575" y="1907" on="1"/>
        <pt x="730" y="1907" on="1"/>
        <pt x="740" y="1858" on="0"/>
        <pt x="815" y="1683" on="0"/>
        <pt x="862" y="1600" on="1"/>
        <pt x="858" y="1579" on="1"/>
        <pt x="772" y="1579" on="1"/>
        <pt x="738" y="1615" on="0"/>
        <pt x="694" y="1679" on="1"/>
        <pt x="626" y="1780" on="1"/>
        <pt x="452" y="1624" on="0"/>
        <pt x="393" y="1579" on="1"/>
        <pt x="308" y="1579" on="1"/>
        <pt x="312" y="1600" on="1"/>
        <pt x="490" y="1784" on="0"/>
      </contour>
      <contour>
        <pt x="463" y="1463" on="1"/>
        <pt x="652" y="1463" on="1"/>
        <pt x="669" y="992" on="0"/>
        <pt x="702" y="0" on="1"/>
        <pt x="545" y="0" on="1"/>
        <pt x="533" y="476" on="1"/>
        <pt x="169" y="476" on="1"/>
        <pt x="-45" y="0" on="1"/>
        <pt x="-203" y="0" on="1"/>
      </contour>
      <contour>
        <pt x="521" y="1151" on="1"/>
        <pt x="521" y="1159" on="0"/>
        <pt x="521" y="1228" on="0"/>
        <pt x="527" y="1322" on="1"/>
        <pt x="489" y="1209" on="0"/>
        <pt x="396" y="992" on="0"/>
        <pt x="376" y="947" on="1"/>
        <pt x="342" y="867" on="0"/>
        <pt x="231" y="622" on="1"/>
        <pt x="532" y="622" on="1"/>
        <pt x="523" y="1008" on="1"/>
      </contour>
    </TTGlyph>
    <TTGlyph name="Adieresis" xMin="-194" yMin="0" xMax="885" yMax="1828">
      <contour>
        <pt x="442" y="1828" on="0"/>
        <pt x="518" y="1828" on="0"/>
        <pt x="536" y="1803" on="1"/>
        <pt x="548" y="1786" on="0"/>
        <pt x="548" y="1767" on="1"/>
        <pt x="548" y="1697" on="0"/>
        <pt x="506" y="1659" on="1"/>
        <pt x="477" y="1633" on="0"/>
        <pt x="401" y="1633" on="0"/>
        <pt x="382" y="1658" on="1"/>
        <pt x="370" y="1675" on="0"/>
        <pt x="370" y="1695" on="1"/>
        <pt x="370" y="1768" on="0"/>
        <pt x="413" y="1804" on="1"/>
      </contour>
      <contour>
        <pt x="748" y="1803" on="1"/>
        <pt x="777" y="1828" on="0"/>
        <pt x="854" y="1828" on="0"/>
        <pt x="872" y="1804" on="1"/>
        <pt x="885" y="1788" on="0"/>
        <pt x="885" y="1768" on="1"/>
        <pt x="885" y="1696" on="0"/>
        <pt x="842" y="1658" on="1"/>
        <pt x="813" y="1633" on="0"/>
        <pt x="737" y="1633" on="0"/>
        <pt x="718" y="1659" on="1"/>
        <pt x="706" y="1676" on="0"/>
        <pt x="706" y="1696" on="1"/>
        <pt x="706" y="1767" on="0"/>
      </contour>
      <contour>
        <pt x="661" y="1463" on="1"/>
        <pt x="679" y="985" on="0"/>
        <pt x="711" y="0" on="1"/>
        <pt x="554" y="0" on="1"/>
        <pt x="541" y="476" on="1"/>
        <pt x="177" y="476" on="1"/>
        <pt x="-36" y="0" on="1"/>
        <pt x="-194" y="0" on="1"/>
        <pt x="239" y="954" on="0"/>
        <pt x="472" y="1463" on="1"/>
      </contour>
      <contour>
        <pt x="531" y="1008" on="1"/>
        <pt x="529" y="1151" on="1"/>
        <pt x="529" y="1242" on="0"/>
        <pt x="536" y="1322" on="1"/>
        <pt x="487" y="1177" on="0"/>
        <pt x="384" y="947" on="1"/>
        <pt x="363" y="900" on="0"/>
        <pt x="259" y="668" on="0"/>
        <pt x="239" y="622" on="1"/>
        <pt x="540" y="622" on="1"/>
      </contour>
    </TTGlyph>
    <TTGlyph name="Agrave" xMin="-203" yMin="0" xMax="702" yMax="1907">
      <contour>
        <pt x="365" y="1907" on="1"/>
        <pt x="554" y="1907" on="1"/>
        <pt x="568" y="1842" on="0"/>
        <pt x="639" y="1661" on="0"/>
        <pt x="674" y="1602" on="1"/>
        <pt x="669" y="1579" on="1"/>
        <pt x="575" y="1579" on="1"/>
        <pt x="521" y="1633" on="0"/>
        <pt x="449" y="1731" on="1"/>
        <pt x="380" y="1829" on="0"/>
        <pt x="361" y="1889" on="1"/>
      </contour>
      <contour>
        <pt x="463" y="1463" on="1"/>
        <pt x="652" y="1463" on="1"/>
        <pt x="669" y="992" on="0"/>
        <pt x="702" y="0" on="1"/>
        <pt x="545" y="0" on="1"/>
        <pt x="533" y="476" on="1"/>
        <pt x="169" y="476" on="1"/>
        <pt x="-45" y="0" on="1"/>
        <pt x="-203" y="0" on="1"/>
      </contour>
      <contour>
        <pt x="521" y="1151" on="1"/>
        <pt x="521" y="1159" on="0"/>
        <pt x="521" y="1228" on="0"/>
        <pt x="527" y="1322" on="1"/>
        <pt x="489" y="1209" on="0"/>
        <pt x="396" y="992" on="0"/>
        <pt x="376" y="947" on="1"/>
        <pt x="342" y="867" on="0"/>
        <pt x="231" y="622" on="1"/>
        <pt x="532" y="622" on="1"/>
        <pt x="523" y="1008" on="1"/>
      </contour>
    </TTGlyph>
    <TTGlyph name="Aring" xMin="-189" yMin="0" xMax="819" yMax="1781">
      <contour>
        <pt x="668" y="1400" on="1"/>
        <pt x="716" y="0" on="1"/>
        <pt x="559" y="0" on="1"/>
        <pt x="546" y="476" on="1"/>
        <pt x="182" y="476" on="1"/>
        <pt x="-31" y="0" on="1"/>
        <pt x="-189" y="0" on="1"/>
        <pt x="429" y="1358" on="0"/>
        <pt x="448" y="1400" on="1"/>
        <pt x="377" y="1440" on="0"/>
        <pt x="377" y="1525" on="1"/>
        <pt x="377" y="1550" on="0"/>
        <pt x="383" y="1579" on="1"/>
        <pt x="402" y="1671" on="0"/>
        <pt x="544" y="1781" on="0"/>
        <pt x="734" y="1781" on="0"/>
        <pt x="784" y="1726" on="1"/>
        <pt x="819" y="1685" on="0"/>
        <pt x="819" y="1628" on="1"/>
        <pt x="819" y="1606" on="0"/>
        <pt x="814" y="1582" on="1"/>
        <pt x="801" y="1519" on="0"/>
        <pt x="724" y="1424" on="0"/>
      </contour>
      <contour>
        <pt x="711" y="1579" on="1"/>
        <pt x="714" y="1595" on="0"/>
        <pt x="714" y="1639" on="0"/>
        <pt x="698" y="1660" on="1"/>
        <pt x="674" y="1690" on="0"/>
        <pt x="571" y="1690" on="0"/>
        <pt x="532" y="1659" on="1"/>
        <pt x="479" y="1617" on="0"/>
        <pt x="479" y="1548" on="1"/>
        <pt x="479" y="1517" on="0"/>
        <pt x="496" y="1497" on="1"/>
        <pt x="519" y="1467" on="0"/>
        <pt x="625" y="1467" on="0"/>
        <pt x="701" y="1528" on="0"/>
      </contour>
      <contour>
        <pt x="545" y="622" on="1"/>
        <pt x="536" y="1008" on="1"/>
        <pt x="534" y="1151" on="1"/>
        <pt x="534" y="1242" on="0"/>
        <pt x="541" y="1322" on="1"/>
        <pt x="492" y="1177" on="0"/>
        <pt x="389" y="947" on="1"/>
        <pt x="368" y="900" on="0"/>
        <pt x="264" y="668" on="0"/>
        <pt x="244" y="622" on="1"/>
      </contour>
    </TTGlyph>
    <TTGlyph name="Atilde" xMin="-194" yMin="0" xMax="953" yMax="1821">
      <contour>
        <pt x="721" y="1580" on="1"/>
        <pt x="687" y="1580" on="0"/>
        <pt x="619" y="1618" on="0"/>
        <pt x="597" y="1640" on="1"/>
        <pt x="538" y="1701" on="0"/>
        <pt x="500" y="1701" on="1"/>
        <pt x="437" y="1701" on="0"/>
        <pt x="392" y="1578" on="1"/>
        <pt x="296" y="1578" on="1"/>
        <pt x="333" y="1695" on="0"/>
        <pt x="452" y="1819" on="0"/>
        <pt x="530" y="1819" on="1"/>
        <pt x="564" y="1819" on="0"/>
        <pt x="631" y="1782" on="0"/>
        <pt x="675" y="1736" on="0"/>
        <pt x="730" y="1699" on="0"/>
        <pt x="785" y="1699" on="0"/>
        <pt x="832" y="1759" on="0"/>
        <pt x="857" y="1821" on="1"/>
        <pt x="953" y="1821" on="1"/>
        <pt x="918" y="1704" on="0"/>
        <pt x="797" y="1580" on="0"/>
      </contour>
      <contour>
        <pt x="472" y="1463" on="1"/>
        <pt x="661" y="1463" on="1"/>
        <pt x="678" y="992" on="0"/>
        <pt x="711" y="0" on="1"/>
        <pt x="554" y="0" on="1"/>
        <pt x="542" y="476" on="1"/>
        <pt x="178" y="476" on="1"/>
        <pt x="-36" y="0" on="1"/>
        <pt x="-194" y="0" on="1"/>
      </contour>
      <contour>
        <pt x="532" y="1008" on="1"/>
        <pt x="530" y="1151" on="1"/>
        <pt x="530" y="1230" on="0"/>
        <pt x="536" y="1322" on="1"/>
        <pt x="498" y="1209" on="0"/>
        <pt x="405" y="992" on="0"/>
        <pt x="386" y="947" on="1"/>
        <pt x="351" y="867" on="0"/>
        <pt x="240" y="622" on="1"/>
        <pt x="541" y="622" on="1"/>
      </contour>
    </TTGlyph>
    <TTGlyph name="B" xMin="-6" yMin="0" xMax="935" yMax="1462">
      <contour>
        <pt x="615" y="1462" on="1"/>
        <pt x="935" y="1462" on="0"/>
        <pt x="935" y="1213" on="1"/>
        <pt x="935" y="1164" on="0"/>
        <pt x="923" y="1106" on="1"/>
        <pt x="893" y="966" on="0"/>
        <pt x="746" y="794" on="0"/>
        <pt x="639" y="774" on="1"/>
        <pt x="637" y="766" on="1"/>
        <pt x="756" y="738" on="0"/>
        <pt x="797" y="653" on="1"/>
        <pt x="820" y="605" on="0"/>
        <pt x="820" y="484" on="0"/>
        <pt x="806" y="418" on="1"/>
        <pt x="765" y="222" on="0"/>
        <pt x="531" y="0" on="0"/>
        <pt x="365" y="0" on="1"/>
        <pt x="-6" y="0" on="1"/>
        <pt x="304" y="1462" on="1"/>
      </contour>
      <contour>
        <pt x="485" y="831" on="1"/>
        <pt x="603" y="831" on="0"/>
        <pt x="735" y="960" on="0"/>
        <pt x="764" y="1096" on="1"/>
        <pt x="772" y="1136" on="0"/>
        <pt x="772" y="1169" on="1"/>
        <pt x="772" y="1324" on="0"/>
        <pt x="585" y="1324" on="1"/>
        <pt x="425" y="1324" on="1"/>
        <pt x="320" y="831" on="1"/>
      </contour>
      <contour>
        <pt x="369" y="138" on="1"/>
        <pt x="586" y="138" on="0"/>
        <pt x="649" y="428" on="1"/>
        <pt x="659" y="477" on="0"/>
        <pt x="659" y="517" on="1"/>
        <pt x="659" y="584" on="0"/>
        <pt x="630" y="627" on="1"/>
        <pt x="583" y="696" on="0"/>
        <pt x="468" y="696" on="1"/>
        <pt x="292" y="696" on="1"/>
        <pt x="173" y="138" on="1"/>
      </contour>
    </TTGlyph>
    <TTGlyph name="C" xMin="66" yMin="-20" xMax="986" yMax="1484">
      <contour>
        <pt x="420" y="-20" on="1"/>
        <pt x="199" y="-20" on="0"/>
        <pt x="112" y="176" on="1"/>
        <pt x="66" y="283" on="0"/>
        <pt x="66" y="561" on="0"/>
        <pt x="99" y="719" on="1"/>
        <pt x="175" y="1076" on="0"/>
        <pt x="515" y="1484" on="0"/>
        <pt x="743" y="1484" on="1"/>
        <pt x="883" y="1484" on="0"/>
        <pt x="986" y="1410" on="1"/>
        <pt x="898" y="1279" on="1"/>
        <pt x="817" y="1342" on="0"/>
        <pt x="716" y="1342" on="1"/>
        <pt x="565" y="1342" on="0"/>
        <pt x="322" y="1015" on="0"/>
        <pt x="262" y="731" on="1"/>
        <pt x="230" y="579" on="0"/>
        <pt x="230" y="359" on="0"/>
        <pt x="254" y="284" on="1"/>
        <pt x="308" y="121" on="0"/>
        <pt x="463" y="121" on="1"/>
        <pt x="581" y="121" on="0"/>
        <pt x="689" y="173" on="1"/>
        <pt x="659" y="33" on="1"/>
        <pt x="561" y="-20" on="0"/>
      </contour>
    </TTGlyph>
    <TTGlyph name="Ccedilla" xMin="116" yMin="-492" xMax="1036" yMax="1484">
      <contour>
        <pt x="146" y="220" on="1"/>
        <pt x="116" y="312" on="0"/>
        <pt x="116" y="560" on="0"/>
        <pt x="149" y="719" on="1"/>
        <pt x="225" y="1076" on="0"/>
        <pt x="565" y="1484" on="0"/>
        <pt x="793" y="1484" on="1"/>
        <pt x="933" y="1484" on="0"/>
        <pt x="1036" y="1410" on="1"/>
        <pt x="948" y="1279" on="1"/>
        <pt x="868" y="1342" on="0"/>
        <pt x="766" y="1342" on="1"/>
        <pt x="615" y="1342" on="0"/>
        <pt x="373" y="1015" on="0"/>
        <pt x="312" y="731" on="1"/>
        <pt x="280" y="579" on="0"/>
        <pt x="280" y="359" on="0"/>
        <pt x="304" y="284" on="1"/>
        <pt x="358" y="121" on="0"/>
        <pt x="513" y="121" on="1"/>
        <pt x="631" y="121" on="0"/>
        <pt x="739" y="173" on="1"/>
        <pt x="710" y="33" on="1"/>
        <pt x="613" y="-19" on="0"/>
        <pt x="480" y="-20" on="1"/>
        <pt x="425" y="-102" on="1"/>
        <pt x="550" y="-134" on="0"/>
        <pt x="550" y="-237" on="1"/>
        <pt x="550" y="-258" on="0"/>
        <pt x="545" y="-281" on="1"/>
        <pt x="523" y="-383" on="0"/>
        <pt x="369" y="-492" on="0"/>
        <pt x="247" y="-492" on="1"/>
        <pt x="183" y="-492" on="0"/>
        <pt x="149" y="-478" on="1"/>
        <pt x="171" y="-375" on="1"/>
        <pt x="213" y="-388" on="0"/>
        <pt x="260" y="-388" on="1"/>
        <pt x="392" y="-388" on="0"/>
        <pt x="413" y="-285" on="1"/>
        <pt x="416" y="-272" on="0"/>
        <pt x="416" y="-261" on="1"/>
        <pt x="416" y="-225" on="0"/>
        <pt x="355" y="-172" on="0"/>
        <pt x="277" y="-159" on="1"/>
        <pt x="379" y="-10" on="1"/>
        <pt x="207" y="30" on="0"/>
      </contour>
    </TTGlyph>
    <TTGlyph name="D" xMin="-6" yMin="0" xMax="979" yMax="1462">
      <contour>
        <pt x="612" y="1462" on="1"/>
        <pt x="846" y="1462" on="0"/>
        <pt x="932" y="1278" on="1"/>
        <pt x="979" y="1179" on="0"/>
        <pt x="979" y="906" on="0"/>
        <pt x="945" y="745" on="1"/>
        <pt x="866" y="374" on="0"/>
        <pt x="535" y="0" on="0"/>
        <pt x="287" y="0" on="1"/>
        <pt x="-6" y="0" on="1"/>
        <pt x="304" y="1462" on="1"/>
      </contour>
      <contour>
        <pt x="816" y="1010" on="1"/>
        <pt x="816" y="1324" on="0"/>
        <pt x="577" y="1324" on="1"/>
        <pt x="431" y="1324" on="1"/>
        <pt x="179" y="138" on="1"/>
        <pt x="312" y="138" on="1"/>
        <pt x="655" y="138" on="0"/>
        <pt x="782" y="738" on="1"/>
        <pt x="816" y="895" on="0"/>
      </contour>
    </TTGlyph>
    <TTGlyph name="E" xMin="-5" yMin="0" xMax="877" yMax="1462">
      <contour>
        <pt x="847" y="1321" on="1"/>
        <pt x="430" y="1321" on="1"/>
        <pt x="327" y="835" on="1"/>
        <pt x="719" y="835" on="1"/>
        <pt x="689" y="694" on="1"/>
        <pt x="297" y="694" on="1"/>
        <pt x="180" y="142" on="1"/>
        <pt x="597" y="142" on="1"/>
        <pt x="567" y="0" on="1"/>
        <pt x="-5" y="0" on="1"/>
        <pt x="305" y="1462" on="1"/>
        <pt x="877" y="1462" on="1"/>
      </contour>
    </TTGlyph>
    <TTGlyph name="Eacute" xMin="-53" yMin="0" xMax="904" yMax="1907">
      <contour>
        <pt x="904" y="1907" on="1"/>
        <pt x="900" y="1888" on="1"/>
        <pt x="859" y="1833" on="0"/>
        <pt x="641" y="1640" on="0"/>
        <pt x="554" y="1579" on="1"/>
        <pt x="461" y="1579" on="1"/>
        <pt x="466" y="1601" on="1"/>
        <pt x="610" y="1750" on="0"/>
        <pt x="716" y="1907" on="1"/>
      </contour>
      <contour>
        <pt x="800" y="1321" on="1"/>
        <pt x="383" y="1321" on="1"/>
        <pt x="280" y="835" on="1"/>
        <pt x="672" y="835" on="1"/>
        <pt x="642" y="694" on="1"/>
        <pt x="250" y="694" on="1"/>
        <pt x="133" y="142" on="1"/>
        <pt x="550" y="142" on="1"/>
        <pt x="519" y="0" on="1"/>
        <pt x="-53" y="0" on="1"/>
        <pt x="258" y="1462" on="1"/>
        <pt x="830" y="1462" on="1"/>
      </contour>
    </TTGlyph>
    <TTGlyph name="Ecircumflex" xMin="-53" yMin="0" xMax="842" yMax="1907">
      <contour>
        <pt x="555" y="1907" on="1"/>
        <pt x="710" y="1907" on="1"/>
        <pt x="720" y="1858" on="0"/>
        <pt x="795" y="1683" on="0"/>
        <pt x="842" y="1600" on="1"/>
        <pt x="838" y="1579" on="1"/>
        <pt x="752" y="1579" on="1"/>
        <pt x="718" y="1615" on="0"/>
        <pt x="674" y="1679" on="1"/>
        <pt x="606" y="1780" on="1"/>
        <pt x="432" y="1624" on="0"/>
        <pt x="373" y="1579" on="1"/>
        <pt x="288" y="1579" on="1"/>
        <pt x="292" y="1600" on="1"/>
        <pt x="470" y="1784" on="0"/>
      </contour>
      <contour>
        <pt x="800" y="1321" on="1"/>
        <pt x="383" y="1321" on="1"/>
        <pt x="280" y="835" on="1"/>
        <pt x="672" y="835" on="1"/>
        <pt x="642" y="694" on="1"/>
        <pt x="250" y="694" on="1"/>
        <pt x="133" y="142" on="1"/>
        <pt x="550" y="142" on="1"/>
        <pt x="519" y="0" on="1"/>
        <pt x="-53" y="0" on="1"/>
        <pt x="258" y="1462" on="1"/>
        <pt x="830" y="1462" on="1"/>
      </contour>
    </TTGlyph>
    <TTGlyph name="Edieresis" xMin="-44" yMin="0" xMax="864" yMax="1828">
      <contour>
        <pt x="421" y="1828" on="0"/>
        <pt x="497" y="1828" on="0"/>
        <pt x="515" y="1803" on="1"/>
        <pt x="527" y="1786" on="0"/>
        <pt x="527" y="1767" on="1"/>
        <pt x="527" y="1697" on="0"/>
        <pt x="485" y="1659" on="1"/>
        <pt x="456" y="1633" on="0"/>
        <pt x="380" y="1633" on="0"/>
        <pt x="362" y="1658" on="1"/>
        <pt x="349" y="1675" on="0"/>
        <pt x="349" y="1695" on="1"/>
        <pt x="349" y="1768" on="0"/>
        <pt x="392" y="1804" on="1"/>
      </contour>
      <contour>
        <pt x="727" y="1803" on="1"/>
        <pt x="756" y="1828" on="0"/>
        <pt x="833" y="1828" on="0"/>
        <pt x="852" y="1804" on="1"/>
        <pt x="864" y="1788" on="0"/>
        <pt x="864" y="1768" on="1"/>
        <pt x="864" y="1696" on="0"/>
        <pt x="821" y="1658" on="1"/>
        <pt x="792" y="1633" on="0"/>
        <pt x="716" y="1633" on="0"/>
        <pt x="698" y="1659" on="1"/>
        <pt x="685" y="1676" on="0"/>
        <pt x="685" y="1696" on="1"/>
        <pt x="685" y="1767" on="0"/>
      </contour>
      <contour>
        <pt x="809" y="1321" on="1"/>
        <pt x="392" y="1321" on="1"/>
        <pt x="288" y="835" on="1"/>
        <pt x="680" y="835" on="1"/>
        <pt x="650" y="694" on="1"/>
        <pt x="258" y="694" on="1"/>
        <pt x="141" y="142" on="1"/>
        <pt x="558" y="142" on="1"/>
        <pt x="528" y="0" on="1"/>
        <pt x="-44" y="0" on="1"/>
        <pt x="266" y="1462" on="1"/>
        <pt x="838" y="1462" on="1"/>
      </contour>
    </TTGlyph>
    <TTGlyph name="Egrave" xMin="-53" yMin="0" xMax="830" yMax="1907">
      <contour>
        <pt x="366" y="1907" on="1"/>
        <pt x="555" y="1907" on="1"/>
        <pt x="569" y="1842" on="0"/>
        <pt x="640" y="1661" on="0"/>
        <pt x="675" y="1602" on="1"/>
        <pt x="670" y="1579" on="1"/>
        <pt x="576" y="1579" on="1"/>
        <pt x="522" y="1633" on="0"/>
        <pt x="450" y="1731" on="1"/>
        <pt x="381" y="1829" on="0"/>
        <pt x="362" y="1889" on="1"/>
      </contour>
      <contour>
        <pt x="800" y="1321" on="1"/>
        <pt x="383" y="1321" on="1"/>
        <pt x="280" y="835" on="1"/>
        <pt x="672" y="835" on="1"/>
        <pt x="642" y="694" on="1"/>
        <pt x="250" y="694" on="1"/>
        <pt x="133" y="142" on="1"/>
        <pt x="550" y="142" on="1"/>
        <pt x="519" y="0" on="1"/>
        <pt x="-53" y="0" on="1"/>
        <pt x="258" y="1462" on="1"/>
        <pt x="830" y="1462" on="1"/>
      </contour>
    </TTGlyph>
    <TTGlyph name="Eth" xMin="-6" yMin="0" xMax="979" yMax="1462">
      <contour>
        <pt x="612" y="1462" on="1"/>
        <pt x="847" y="1462" on="0"/>
        <pt x="932" y="1277" on="1"/>
        <pt x="979" y="1177" on="0"/>
        <pt x="979" y="905" on="0"/>
        <pt x="945" y="745" on="1"/>
        <pt x="866" y="376" on="0"/>
        <pt x="534" y="0" on="0"/>
        <pt x="287" y="0" on="1"/>
        <pt x="-6" y="0" on="1"/>
        <pt x="136" y="668" on="1"/>
        <pt x="27" y="668" on="1"/>
        <pt x="56" y="807" on="1"/>
        <pt x="165" y="807" on="1"/>
        <pt x="304" y="1462" on="1"/>
      </contour>
      <contour>
        <pt x="816" y="1010" on="1"/>
        <pt x="816" y="1324" on="0"/>
        <pt x="577" y="1324" on="1"/>
        <pt x="431" y="1324" on="1"/>
        <pt x="321" y="807" on="1"/>
        <pt x="532" y="807" on="1"/>
        <pt x="503" y="668" on="1"/>
        <pt x="292" y="668" on="1"/>
        <pt x="179" y="138" on="1"/>
        <pt x="312" y="138" on="1"/>
        <pt x="655" y="138" on="0"/>
        <pt x="782" y="738" on="1"/>
        <pt x="816" y="895" on="0"/>
      </contour>
    </TTGlyph>
    <TTGlyph name="Euro" xMin="-9" yMin="-20" xMax="967" yMax="1485">
      <contour>
        <pt x="741" y="1485" on="1"/>
        <pt x="873" y="1485" on="0"/>
        <pt x="967" y="1412" on="1"/>
        <pt x="876" y="1283" on="1"/>
        <pt x="798" y="1340" on="0"/>
        <pt x="716" y="1340" on="1"/>
        <pt x="502" y="1340" on="0"/>
        <pt x="371" y="914" on="1"/>
        <pt x="686" y="914" on="1"/>
        <pt x="662" y="804" on="1"/>
        <pt x="339" y="804" on="1"/>
        <pt x="322" y="732" on="1"/>
        <pt x="302" y="628" on="1"/>
        <pt x="588" y="628" on="1"/>
        <pt x="565" y="519" on="1"/>
        <pt x="287" y="519" on="1"/>
        <pt x="280" y="454" on="0"/>
        <pt x="280" y="399" on="1"/>
        <pt x="280" y="125" on="0"/>
        <pt x="469" y="125" on="1"/>
        <pt x="579" y="125" on="0"/>
        <pt x="688" y="180" on="1"/>
        <pt x="656" y="33" on="1"/>
        <pt x="552" y="-20" on="0"/>
        <pt x="434" y="-20" on="1"/>
        <pt x="120" y="-20" on="0"/>
        <pt x="120" y="374" on="1"/>
        <pt x="120" y="441" on="0"/>
        <pt x="129" y="519" on="1"/>
        <pt x="-9" y="519" on="1"/>
        <pt x="14" y="628" on="1"/>
        <pt x="145" y="628" on="1"/>
        <pt x="148" y="646" on="0"/>
        <pt x="162" y="716" on="1"/>
        <pt x="168" y="742" on="1"/>
        <pt x="172" y="762" on="0"/>
        <pt x="182" y="804" on="1"/>
        <pt x="51" y="804" on="1"/>
        <pt x="75" y="914" on="1"/>
        <pt x="213" y="914" on="1"/>
        <pt x="293" y="1178" on="0"/>
        <pt x="578" y="1485" on="0"/>
      </contour>
    </TTGlyph>
    <TTGlyph name="F" xMin="-5" yMin="0" xMax="877" yMax="1462">
      <contour>
        <pt x="847" y="1321" on="1"/>
        <pt x="430" y="1321" on="1"/>
        <pt x="314" y="772" on="1"/>
        <pt x="707" y="772" on="1"/>
        <pt x="677" y="631" on="1"/>
        <pt x="284" y="631" on="1"/>
        <pt x="150" y="0" on="1"/>
        <pt x="-5" y="0" on="1"/>
        <pt x="305" y="1462" on="1"/>
        <pt x="877" y="1462" on="1"/>
      </contour>
    </TTGlyph>
    <TTGlyph name="G" xMin="68" yMin="-20" xMax="1107" yMax="1483">
      <contour>
        <pt x="454" y="-20" on="1"/>
        <pt x="210" y="-20" on="0"/>
        <pt x="118" y="177" on="1"/>
        <pt x="68" y="284" on="0"/>
        <pt x="68" y="570" on="0"/>
        <pt x="103" y="734" on="1"/>
        <pt x="178" y="1087" on="0"/>
        <pt x="547" y="1483" on="0"/>
        <pt x="807" y="1483" on="1"/>
        <pt x="976" y="1483" on="0"/>
        <pt x="1107" y="1390" on="1"/>
        <pt x="1069" y="1332" on="0"/>
        <pt x="1019" y="1259" on="1"/>
        <pt x="903" y="1342" on="0"/>
        <pt x="783" y="1342" on="1"/>
        <pt x="595" y="1342" on="0"/>
        <pt x="325" y="1023" on="0"/>
        <pt x="263" y="731" on="1"/>
        <pt x="231" y="584" on="0"/>
        <pt x="231" y="360" on="0"/>
        <pt x="261" y="281" on="1"/>
        <pt x="321" y="121" on="0"/>
        <pt x="491" y="121" on="1"/>
        <pt x="608" y="121" on="0"/>
        <pt x="702" y="152" on="1"/>
        <pt x="801" y="619" on="1"/>
        <pt x="593" y="619" on="1"/>
        <pt x="623" y="761" on="1"/>
        <pt x="985" y="761" on="1"/>
        <pt x="834" y="50" on="1"/>
        <pt x="646" y="-20" on="0"/>
      </contour>
    </TTGlyph>
    <TTGlyph name="H" xMin="-5" yMin="0" xMax="1076" yMax="1462">
      <contour>
        <pt x="766" y="0" on="1"/>
        <pt x="610" y="0" on="1"/>
        <pt x="757" y="693" on="1"/>
        <pt x="297" y="693" on="1"/>
        <pt x="150" y="0" on="1"/>
        <pt x="-5" y="0" on="1"/>
        <pt x="305" y="1462" on="1"/>
        <pt x="460" y="1462" on="1"/>
        <pt x="327" y="835" on="1"/>
        <pt x="787" y="835" on="1"/>
        <pt x="920" y="1462" on="1"/>
        <pt x="1076" y="1462" on="1"/>
      </contour>
    </TTGlyph>
    <TTGlyph name="I" xMin="11" yMin="0" xMax="471" yMax="1462">
      <contour>
        <pt x="161" y="0" on="1"/>
        <pt x="11" y="0" on="1"/>
        <pt x="321" y="1462" on="1"/>
        <pt x="471" y="1462" on="1"/>
      </contour>
    </TTGlyph>
    <TTGlyph name="Iacute" xMin="-37" yMin="0" xMax="734" yMax="1907">
      <contour>
        <pt x="734" y="1907" on="1"/>
        <pt x="730" y="1888" on="1"/>
        <pt x="689" y="1833" on="0"/>
        <pt x="471" y="1640" on="0"/>
        <pt x="384" y="1579" on="1"/>
        <pt x="291" y="1579" on="1"/>
        <pt x="296" y="1601" on="1"/>
        <pt x="440" y="1750" on="0"/>
        <pt x="546" y="1907" on="1"/>
      </contour>
      <contour>
        <pt x="113" y="0" on="1"/>
        <pt x="-37" y="0" on="1"/>
        <pt x="274" y="1462" on="1"/>
        <pt x="424" y="1462" on="1"/>
      </contour>
    </TTGlyph>
    <TTGlyph name="Icircumflex" xMin="-37" yMin="0" xMax="653" yMax="1907">
      <contour>
        <pt x="366" y="1907" on="1"/>
        <pt x="521" y="1907" on="1"/>
        <pt x="531" y="1858" on="0"/>
        <pt x="606" y="1683" on="0"/>
        <pt x="653" y="1600" on="1"/>
        <pt x="649" y="1579" on="1"/>
        <pt x="563" y="1579" on="1"/>
        <pt x="529" y="1615" on="0"/>
        <pt x="485" y="1679" on="1"/>
        <pt x="417" y="1780" on="1"/>
        <pt x="243" y="1624" on="0"/>
        <pt x="184" y="1579" on="1"/>
        <pt x="99" y="1579" on="1"/>
        <pt x="103" y="1600" on="1"/>
        <pt x="281" y="1784" on="0"/>
      </contour>
      <contour>
        <pt x="113" y="0" on="1"/>
        <pt x="-37" y="0" on="1"/>
        <pt x="274" y="1462" on="1"/>
        <pt x="424" y="1462" on="1"/>
      </contour>
    </TTGlyph>
    <TTGlyph name="Idieresis" xMin="-28" yMin="0" xMax="674" yMax="1828">
      <contour>
        <pt x="231" y="1828" on="0"/>
        <pt x="307" y="1828" on="0"/>
        <pt x="325" y="1803" on="1"/>
        <pt x="337" y="1786" on="0"/>
        <pt x="337" y="1767" on="1"/>
        <pt x="337" y="1697" on="0"/>
        <pt x="295" y="1659" on="1"/>
        <pt x="266" y="1633" on="0"/>
        <pt x="190" y="1633" on="0"/>
        <pt x="172" y="1658" on="1"/>
        <pt x="159" y="1675" on="0"/>
        <pt x="159" y="1695" on="1"/>
        <pt x="159" y="1768" on="0"/>
        <pt x="202" y="1804" on="1"/>
      </contour>
      <contour>
        <pt x="537" y="1803" on="1"/>
        <pt x="566" y="1828" on="0"/>
        <pt x="643" y="1828" on="0"/>
        <pt x="662" y="1804" on="1"/>
        <pt x="674" y="1788" on="0"/>
        <pt x="674" y="1768" on="1"/>
        <pt x="674" y="1696" on="0"/>
        <pt x="631" y="1658" on="1"/>
        <pt x="602" y="1633" on="0"/>
        <pt x="526" y="1633" on="0"/>
        <pt x="508" y="1659" on="1"/>
        <pt x="495" y="1676" on="0"/>
        <pt x="495" y="1696" on="1"/>
        <pt x="495" y="1767" on="0"/>
      </contour>
      <contour>
        <pt x="122" y="0" on="1"/>
        <pt x="-28" y="0" on="1"/>
        <pt x="282" y="1462" on="1"/>
        <pt x="432" y="1462" on="1"/>
      </contour>
    </TTGlyph>
    <TTGlyph name="Igrave" xMin="-37" yMin="0" xMax="473" yMax="1907">
      <contour>
        <pt x="164" y="1907" on="1"/>
        <pt x="353" y="1907" on="1"/>
        <pt x="367" y="1842" on="0"/>
        <pt x="438" y="1661" on="0"/>
        <pt x="473" y="1602" on="1"/>
        <pt x="468" y="1579" on="1"/>
        <pt x="374" y="1579" on="1"/>
        <pt x="320" y="1633" on="0"/>
        <pt x="248" y="1731" on="1"/>
        <pt x="179" y="1829" on="0"/>
        <pt x="160" y="1889" on="1"/>
      </contour>
      <contour>
        <pt x="113" y="0" on="1"/>
        <pt x="-37" y="0" on="1"/>
        <pt x="274" y="1462" on="1"/>
        <pt x="424" y="1462" on="1"/>
      </contour>
    </TTGlyph>
    <TTGlyph name="J" xMin="-302" yMin="-386" xMax="494" yMax="1462">
      <contour>
        <pt x="-170" y="-386" on="1"/>
        <pt x="-172" y="-386" on="0"/>
        <pt x="-173" y="-386" on="1"/>
        <pt x="-255" y="-386" on="0"/>
        <pt x="-302" y="-361" on="1"/>
        <pt x="-273" y="-222" on="1"/>
        <pt x="-221" y="-242" on="0"/>
        <pt x="-89" y="-242" on="0"/>
        <pt x="1" y="-129" on="0"/>
        <pt x="27" y="-7" on="1"/>
        <pt x="339" y="1462" on="1"/>
        <pt x="494" y="1462" on="1"/>
        <pt x="183" y="-1" on="1"/>
        <pt x="146" y="-185" on="0"/>
        <pt x="-43" y="-386" on="0"/>
      </contour>
    </TTGlyph>
    <TTGlyph name="K" xMin="-6" yMin="0" xMax="1030" yMax="1462">
      <contour>
        <pt x="1030" y="1462" on="1"/>
        <pt x="537" y="822" on="1"/>
        <pt x="702" y="150" on="0"/>
        <pt x="740" y="0" on="1"/>
        <pt x="571" y="0" on="1"/>
        <pt x="450" y="517" on="0"/>
        <pt x="408" y="694" on="1"/>
        <pt x="268" y="558" on="1"/>
        <pt x="150" y="0" on="1"/>
        <pt x="-6" y="0" on="1"/>
        <pt x="304" y="1462" on="1"/>
        <pt x="460" y="1462" on="1"/>
        <pt x="299" y="704" on="1"/>
        <pt x="364" y="796" on="0"/>
        <pt x="863" y="1462" on="1"/>
      </contour>
    </TTGlyph>
    <TTGlyph name="L" xMin="-5" yMin="0" xMax="581" yMax="1462">
      <contour>
        <pt x="180" y="142" on="1"/>
        <pt x="581" y="142" on="1"/>
        <pt x="551" y="0" on="1"/>
        <pt x="-5" y="0" on="1"/>
        <pt x="305" y="1462" on="1"/>
        <pt x="460" y="1462" on="1"/>
      </contour>
    </TTGlyph>
    <TTGlyph name="M" xMin="-6" yMin="0" xMax="1469" yMax="1462">
      <contour>
        <pt x="602" y="397" on="1"/>
        <pt x="607" y="319" on="0"/>
        <pt x="607" y="206" on="0"/>
        <pt x="604" y="164" on="1"/>
        <pt x="612" y="164" on="1"/>
        <pt x="649" y="258" on="0"/>
        <pt x="717" y="395" on="1"/>
        <pt x="1229" y="1462" on="1"/>
        <pt x="1469" y="1462" on="1"/>
        <pt x="1159" y="0" on="1"/>
        <pt x="1009" y="0" on="1"/>
        <pt x="1229" y="1035" on="1"/>
        <pt x="1248" y="1126" on="0"/>
        <pt x="1296" y="1300" on="1"/>
        <pt x="1288" y="1300" on="1"/>
        <pt x="661" y="0" on="1"/>
        <pt x="489" y="0" on="1"/>
        <pt x="412" y="1302" on="1"/>
        <pt x="403" y="1302" on="1"/>
        <pt x="379" y="1124" on="0"/>
        <pt x="360" y="1037" on="1"/>
        <pt x="140" y="0" on="1"/>
        <pt x="-6" y="0" on="1"/>
        <pt x="304" y="1462" on="1"/>
        <pt x="539" y="1462" on="1"/>
      </contour>
    </TTGlyph>
    <TTGlyph name="N" xMin="-5" yMin="0" xMax="1159" yMax="1462">
      <contour>
        <pt x="849" y="0" on="1"/>
        <pt x="655" y="0" on="1"/>
        <pt x="397" y="1228" on="1"/>
        <pt x="387" y="1228" on="1"/>
        <pt x="376" y="1106" on="0"/>
        <pt x="347" y="966" on="1"/>
        <pt x="142" y="0" on="1"/>
        <pt x="-5" y="0" on="1"/>
        <pt x="305" y="1462" on="1"/>
        <pt x="500" y="1462" on="1"/>
        <pt x="758" y="248" on="1"/>
        <pt x="765" y="248" on="1"/>
        <pt x="787" y="401" on="0"/>
        <pt x="811" y="514" on="1"/>
        <pt x="1012" y="1462" on="1"/>
        <pt x="1159" y="1462" on="1"/>
      </contour>
    </TTGlyph>
    <TTGlyph name="Ntilde" xMin="-44" yMin="0" xMax="1121" yMax="1821">
      <contour>
        <pt x="857" y="1580" on="1"/>
        <pt x="823" y="1580" on="0"/>
        <pt x="755" y="1618" on="0"/>
        <pt x="733" y="1640" on="1"/>
        <pt x="674" y="1701" on="0"/>
        <pt x="636" y="1701" on="1"/>
        <pt x="573" y="1701" on="0"/>
        <pt x="528" y="1578" on="1"/>
        <pt x="432" y="1578" on="1"/>
        <pt x="469" y="1695" on="0"/>
        <pt x="588" y="1819" on="0"/>
        <pt x="666" y="1819" on="1"/>
        <pt x="700" y="1819" on="0"/>
        <pt x="767" y="1782" on="0"/>
        <pt x="811" y="1736" on="0"/>
        <pt x="866" y="1699" on="0"/>
        <pt x="921" y="1699" on="0"/>
        <pt x="968" y="1759" on="0"/>
        <pt x="993" y="1821" on="1"/>
        <pt x="1089" y="1821" on="1"/>
        <pt x="1054" y="1704" on="0"/>
        <pt x="933" y="1580" on="0"/>
      </contour>
      <contour>
        <pt x="810" y="0" on="1"/>
        <pt x="616" y="0" on="1"/>
        <pt x="358" y="1228" on="1"/>
        <pt x="348" y="1228" on="1"/>
        <pt x="339" y="1109" on="0"/>
        <pt x="309" y="966" on="1"/>
        <pt x="103" y="0" on="1"/>
        <pt x="-44" y="0" on="1"/>
        <pt x="267" y="1462" on="1"/>
        <pt x="462" y="1462" on="1"/>
        <pt x="720" y="248" on="1"/>
        <pt x="727" y="248" on="1"/>
        <pt x="749" y="401" on="0"/>
        <pt x="773" y="514" on="1"/>
        <pt x="974" y="1462" on="1"/>
        <pt x="1121" y="1462" on="1"/>
      </contour>
    </TTGlyph>
    <TTGlyph name="O" xMin="63" yMin="-20" xMax="1052" yMax="1483">
      <contour>
        <pt x="720" y="1483" on="1"/>
        <pt x="939" y="1483" on="0"/>
        <pt x="1014" y="1288" on="1"/>
        <pt x="1052" y="1191" on="0"/>
        <pt x="1052" y="914" on="0"/>
        <pt x="1013" y="733" on="1"/>
        <pt x="936" y="371" on="0"/>
        <pt x="618" y="-20" on="0"/>
        <pt x="175" y="-20" on="0"/>
        <pt x="100" y="177" on="1"/>
        <pt x="63" y="274" on="0"/>
        <pt x="63" y="551" on="0"/>
        <pt x="103" y="735" on="1"/>
        <pt x="262" y="1483" on="0"/>
      </contour>
      <contour>
        <pt x="223" y="423" on="1"/>
        <pt x="223" y="122" on="0"/>
        <pt x="427" y="122" on="1"/>
        <pt x="573" y="122" on="0"/>
        <pt x="789" y="429" on="0"/>
        <pt x="853" y="733" on="1"/>
        <pt x="893" y="920" on="0"/>
        <pt x="893" y="1049" on="1"/>
        <pt x="893" y="1341" on="0"/>
        <pt x="690" y="1341" on="1"/>
        <pt x="542" y="1341" on="0"/>
        <pt x="326" y="1032" on="0"/>
        <pt x="262" y="733" on="1"/>
        <pt x="223" y="551" on="0"/>
      </contour>
    </TTGlyph>
    <TTGlyph name="OE" xMin="65" yMin="-10" xMax="1364" yMax="1473">
      <contour>
        <pt x="611" y="0" on="1"/>
        <pt x="580" y="0" on="0"/>
        <pt x="460" y="-9" on="0"/>
        <pt x="435" y="-10" on="1"/>
        <pt x="192" y="-10" on="0"/>
        <pt x="108" y="179" on="1"/>
        <pt x="65" y="277" on="0"/>
        <pt x="65" y="558" on="0"/>
        <pt x="103" y="735" on="1"/>
        <pt x="179" y="1096" on="0"/>
        <pt x="514" y="1473" on="0"/>
        <pt x="757" y="1473" on="1"/>
        <pt x="809" y="1473" on="0"/>
        <pt x="884" y="1462" on="1"/>
        <pt x="1364" y="1462" on="1"/>
        <pt x="1334" y="1321" on="1"/>
        <pt x="917" y="1321" on="1"/>
        <pt x="814" y="834" on="1"/>
        <pt x="1204" y="834" on="1"/>
        <pt x="1174" y="693" on="1"/>
        <pt x="784" y="693" on="1"/>
        <pt x="666" y="141" on="1"/>
        <pt x="1083" y="141" on="1"/>
        <pt x="1054" y="0" on="1"/>
      </contour>
      <contour>
        <pt x="752" y="1327" on="0"/>
        <pt x="728" y="1327" on="1"/>
        <pt x="554" y="1327" on="0"/>
        <pt x="329" y="1044" on="0"/>
        <pt x="263" y="733" on="1"/>
        <pt x="226" y="557" on="0"/>
        <pt x="226" y="339" on="0"/>
        <pt x="248" y="277" on="1"/>
        <pt x="300" y="135" on="0"/>
        <pt x="476" y="135" on="1"/>
        <pt x="499" y="135" on="0"/>
        <pt x="510" y="136" on="1"/>
        <pt x="763" y="1326" on="1"/>
      </contour>
    </TTGlyph>
    <TTGlyph name="Oacute" xMin="17" yMin="-20" xMax="1042" yMax="1907">
      <contour>
        <pt x="1042" y="1907" on="1"/>
        <pt x="1038" y="1888" on="1"/>
        <pt x="997" y="1833" on="0"/>
        <pt x="779" y="1640" on="0"/>
        <pt x="692" y="1579" on="1"/>
        <pt x="599" y="1579" on="1"/>
        <pt x="604" y="1601" on="1"/>
        <pt x="754" y="1756" on="0"/>
        <pt x="854" y="1907" on="1"/>
      </contour>
      <contour>
        <pt x="675" y="1483" on="1"/>
        <pt x="894" y="1483" on="0"/>
        <pt x="970" y="1288" on="1"/>
        <pt x="1007" y="1191" on="0"/>
        <pt x="1007" y="914" on="0"/>
        <pt x="968" y="733" on="1"/>
        <pt x="891" y="371" on="0"/>
        <pt x="573" y="-20" on="0"/>
        <pt x="129" y="-20" on="0"/>
        <pt x="54" y="177" on="1"/>
        <pt x="17" y="273" on="0"/>
        <pt x="17" y="550" on="0"/>
        <pt x="58" y="735" on="1"/>
        <pt x="217" y="1483" on="0"/>
      </contour>
      <contour>
        <pt x="847" y="1045" on="1"/>
        <pt x="847" y="1341" on="0"/>
        <pt x="644" y="1341" on="1"/>
        <pt x="347" y="1341" on="0"/>
        <pt x="217" y="733" on="1"/>
        <pt x="178" y="551" on="0"/>
        <pt x="178" y="423" on="1"/>
        <pt x="178" y="122" on="0"/>
        <pt x="382" y="122" on="1"/>
        <pt x="528" y="122" on="0"/>
        <pt x="744" y="429" on="0"/>
        <pt x="808" y="733" on="1"/>
        <pt x="847" y="916" on="0"/>
      </contour>
    </TTGlyph>
    <TTGlyph name="Ocircumflex" xMin="17" yMin="-20" xMax="1007" yMax="1907">
      <contour>
        <pt x="683" y="1907" on="1"/>
        <pt x="838" y="1907" on="1"/>
        <pt x="849" y="1857" on="0"/>
        <pt x="924" y="1683" on="0"/>
        <pt x="971" y="1600" on="1"/>
        <pt x="966" y="1579" on="1"/>
        <pt x="880" y="1579" on="1"/>
        <pt x="846" y="1615" on="0"/>
        <pt x="802" y="1679" on="1"/>
        <pt x="734" y="1780" on="1"/>
        <pt x="560" y="1624" on="0"/>
        <pt x="501" y="1579" on="1"/>
        <pt x="416" y="1579" on="1"/>
        <pt x="421" y="1600" on="1"/>
        <pt x="604" y="1791" on="0"/>
      </contour>
      <contour>
        <pt x="675" y="1483" on="1"/>
        <pt x="894" y="1483" on="0"/>
        <pt x="970" y="1288" on="1"/>
        <pt x="1007" y="1191" on="0"/>
        <pt x="1007" y="914" on="0"/>
        <pt x="968" y="733" on="1"/>
        <pt x="891" y="371" on="0"/>
        <pt x="573" y="-20" on="0"/>
        <pt x="129" y="-20" on="0"/>
        <pt x="54" y="177" on="1"/>
        <pt x="17" y="273" on="0"/>
        <pt x="17" y="550" on="0"/>
        <pt x="58" y="735" on="1"/>
        <pt x="217" y="1483" on="0"/>
      </contour>
      <contour>
        <pt x="847" y="1045" on="1"/>
        <pt x="847" y="1341" on="0"/>
        <pt x="644" y="1341" on="1"/>
        <pt x="347" y="1341" on="0"/>
        <pt x="217" y="733" on="1"/>
        <pt x="178" y="551" on="0"/>
        <pt x="178" y="423" on="1"/>
        <pt x="178" y="122" on="0"/>
        <pt x="382" y="122" on="1"/>
        <pt x="528" y="122" on="0"/>
        <pt x="744" y="429" on="0"/>
        <pt x="808" y="733" on="1"/>
        <pt x="847" y="916" on="0"/>
      </contour>
    </TTGlyph>
    <TTGlyph name="Odieresis" xMin="26" yMin="-20" xMax="1016" yMax="1828">
      <contour>
        <pt x="554" y="1828" on="0"/>
        <pt x="630" y="1828" on="0"/>
        <pt x="648" y="1803" on="1"/>
        <pt x="660" y="1786" on="0"/>
        <pt x="660" y="1767" on="1"/>
        <pt x="660" y="1697" on="0"/>
        <pt x="618" y="1659" on="1"/>
        <pt x="589" y="1633" on="0"/>
        <pt x="513" y="1633" on="0"/>
        <pt x="494" y="1658" on="1"/>
        <pt x="482" y="1675" on="0"/>
        <pt x="482" y="1695" on="1"/>
        <pt x="482" y="1768" on="0"/>
        <pt x="525" y="1804" on="1"/>
      </contour>
      <contour>
        <pt x="861" y="1803" on="1"/>
        <pt x="890" y="1828" on="0"/>
        <pt x="966" y="1828" on="0"/>
        <pt x="984" y="1804" on="1"/>
        <pt x="997" y="1788" on="0"/>
        <pt x="997" y="1768" on="1"/>
        <pt x="997" y="1696" on="0"/>
        <pt x="954" y="1658" on="1"/>
        <pt x="925" y="1633" on="0"/>
        <pt x="849" y="1633" on="0"/>
        <pt x="830" y="1659" on="1"/>
        <pt x="818" y="1676" on="0"/>
        <pt x="818" y="1696" on="1"/>
        <pt x="818" y="1766" on="0"/>
      </contour>
      <contour>
        <pt x="683" y="1483" on="1"/>
        <pt x="902" y="1483" on="0"/>
        <pt x="978" y="1288" on="1"/>
        <pt x="1016" y="1190" on="0"/>
        <pt x="1016" y="914" on="0"/>
        <pt x="977" y="733" on="1"/>
        <pt x="900" y="371" on="0"/>
        <pt x="582" y="-20" on="0"/>
        <pt x="138" y="-20" on="0"/>
        <pt x="63" y="177" on="1"/>
        <pt x="26" y="274" on="0"/>
        <pt x="26" y="551" on="0"/>
        <pt x="66" y="735" on="1"/>
        <pt x="225" y="1483" on="0"/>
      </contour>
      <contour>
        <pt x="187" y="423" on="1"/>
        <pt x="187" y="122" on="0"/>
        <pt x="391" y="122" on="1"/>
        <pt x="686" y="122" on="0"/>
        <pt x="817" y="733" on="1"/>
        <pt x="856" y="919" on="0"/>
        <pt x="856" y="1048" on="1"/>
        <pt x="856" y="1341" on="0"/>
        <pt x="653" y="1341" on="1"/>
        <pt x="505" y="1341" on="0"/>
        <pt x="289" y="1032" on="0"/>
        <pt x="226" y="733" on="1"/>
        <pt x="187" y="551" on="0"/>
      </contour>
    </TTGlyph>
    <TTGlyph name="Ograve" xMin="17" yMin="-20" xMax="1007" yMax="1907">
      <contour>
        <pt x="475" y="1907" on="1"/>
        <pt x="664" y="1907" on="1"/>
        <pt x="678" y="1842" on="0"/>
        <pt x="749" y="1661" on="0"/>
        <pt x="784" y="1602" on="1"/>
        <pt x="779" y="1579" on="1"/>
        <pt x="685" y="1579" on="1"/>
        <pt x="631" y="1633" on="0"/>
        <pt x="559" y="1731" on="1"/>
        <pt x="490" y="1829" on="0"/>
        <pt x="471" y="1889" on="1"/>
      </contour>
      <contour>
        <pt x="675" y="1483" on="1"/>
        <pt x="894" y="1483" on="0"/>
        <pt x="970" y="1288" on="1"/>
        <pt x="1007" y="1191" on="0"/>
        <pt x="1007" y="914" on="0"/>
        <pt x="968" y="733" on="1"/>
        <pt x="891" y="371" on="0"/>
        <pt x="573" y="-20" on="0"/>
        <pt x="129" y="-20" on="0"/>
        <pt x="54" y="177" on="1"/>
        <pt x="17" y="273" on="0"/>
        <pt x="17" y="550" on="0"/>
        <pt x="58" y="735" on="1"/>
        <pt x="217" y="1483" on="0"/>
      </contour>
      <contour>
        <pt x="847" y="1045" on="1"/>
        <pt x="847" y="1341" on="0"/>
        <pt x="644" y="1341" on="1"/>
        <pt x="347" y="1341" on="0"/>
        <pt x="217" y="733" on="1"/>
        <pt x="178" y="551" on="0"/>
        <pt x="178" y="423" on="1"/>
        <pt x="178" y="122" on="0"/>
        <pt x="382" y="122" on="1"/>
        <pt x="528" y="122" on="0"/>
        <pt x="744" y="429" on="0"/>
        <pt x="808" y="733" on="1"/>
        <pt x="847" y="916" on="0"/>
      </contour>
    </TTGlyph>
    <TTGlyph name="Oslash" xMin="-56" yMin="-96" xMax="1186" yMax="1547">
      <contour>
        <pt x="1022" y="1269" on="1"/>
        <pt x="1053" y="1181" on="0"/>
        <pt x="1053" y="917" on="0"/>
        <pt x="1015" y="733" on="1"/>
        <pt x="938" y="371" on="0"/>
        <pt x="620" y="-20" on="0"/>
        <pt x="399" y="-20" on="1"/>
        <pt x="248" y="-20" on="0"/>
        <pt x="166" y="75" on="1"/>
        <pt x="42" y="-96" on="1"/>
        <pt x="-56" y="-46" on="1"/>
        <pt x="102" y="174" on="1"/>
        <pt x="64" y="269" on="0"/>
        <pt x="64" y="549" on="0"/>
        <pt x="104" y="735" on="1"/>
        <pt x="263" y="1483" on="0"/>
        <pt x="721" y="1483" on="1"/>
        <pt x="875" y="1483" on="0"/>
        <pt x="962" y="1373" on="1"/>
        <pt x="1087" y="1547" on="1"/>
        <pt x="1108" y="1535" on="0"/>
        <pt x="1186" y="1495" on="1"/>
      </contour>
      <contour>
        <pt x="815" y="1341" on="0"/>
        <pt x="691" y="1341" on="1"/>
        <pt x="543" y="1341" on="0"/>
        <pt x="327" y="1032" on="0"/>
        <pt x="264" y="733" on="1"/>
        <pt x="224" y="550" on="0"/>
        <pt x="224" y="424" on="1"/>
        <pt x="224" y="384" on="0"/>
        <pt x="228" y="350" on="1"/>
        <pt x="863" y="1232" on="1"/>
      </contour>
      <contour>
        <pt x="429" y="122" on="1"/>
        <pt x="723" y="122" on="0"/>
        <pt x="854" y="739" on="1"/>
        <pt x="894" y="923" on="0"/>
        <pt x="894" y="1056" on="1"/>
        <pt x="894" y="1072" on="0"/>
        <pt x="893" y="1086" on="1"/>
        <pt x="265" y="213" on="1"/>
        <pt x="313" y="122" on="0"/>
      </contour>
    </TTGlyph>
    <TTGlyph name="Otilde" xMin="27" yMin="-20" xMax="1066" yMax="1821">
      <contour>
        <pt x="834" y="1580" on="1"/>
        <pt x="800" y="1580" on="0"/>
        <pt x="732" y="1618" on="0"/>
        <pt x="710" y="1640" on="1"/>
        <pt x="651" y="1701" on="0"/>
        <pt x="613" y="1701" on="1"/>
        <pt x="550" y="1701" on="0"/>
        <pt x="505" y="1578" on="1"/>
        <pt x="409" y="1578" on="1"/>
        <pt x="446" y="1695" on="0"/>
        <pt x="565" y="1819" on="0"/>
        <pt x="643" y="1819" on="1"/>
        <pt x="677" y="1819" on="0"/>
        <pt x="744" y="1782" on="0"/>
        <pt x="788" y="1736" on="0"/>
        <pt x="843" y="1699" on="0"/>
        <pt x="871" y="1699" on="1"/>
        <pt x="925" y="1699" on="0"/>
        <pt x="970" y="1821" on="1"/>
        <pt x="1066" y="1821" on="1"/>
        <pt x="1031" y="1704" on="0"/>
        <pt x="910" y="1580" on="0"/>
      </contour>
      <contour>
        <pt x="684" y="1483" on="1"/>
        <pt x="903" y="1483" on="0"/>
        <pt x="978" y="1288" on="1"/>
        <pt x="1016" y="1191" on="0"/>
        <pt x="1016" y="914" on="0"/>
        <pt x="977" y="733" on="1"/>
        <pt x="900" y="371" on="0"/>
        <pt x="582" y="-20" on="0"/>
        <pt x="139" y="-20" on="0"/>
        <pt x="64" y="177" on="1"/>
        <pt x="27" y="274" on="0"/>
        <pt x="27" y="551" on="0"/>
        <pt x="67" y="735" on="1"/>
        <pt x="226" y="1483" on="0"/>
      </contour>
      <contour>
        <pt x="188" y="424" on="1"/>
        <pt x="188" y="122" on="0"/>
        <pt x="392" y="122" on="1"/>
        <pt x="538" y="122" on="0"/>
        <pt x="753" y="429" on="0"/>
        <pt x="817" y="733" on="1"/>
        <pt x="857" y="920" on="0"/>
        <pt x="857" y="1049" on="1"/>
        <pt x="857" y="1341" on="0"/>
        <pt x="654" y="1341" on="1"/>
        <pt x="506" y="1341" on="0"/>
        <pt x="290" y="1032" on="0"/>
        <pt x="226" y="733" on="1"/>
        <pt x="188" y="552" on="0"/>
      </contour>
    </TTGlyph>
    <TTGlyph name="P" xMin="-6" yMin="0" xMax="903" yMax="1462">
      <contour>
        <pt x="561" y="1462" on="1"/>
        <pt x="774" y="1462" on="0"/>
        <pt x="853" y="1357" on="1"/>
        <pt x="903" y="1291" on="0"/>
        <pt x="903" y="1178" on="1"/>
        <pt x="903" y="1113" on="0"/>
        <pt x="886" y="1032" on="1"/>
        <pt x="789" y="579" on="0"/>
        <pt x="365" y="579" on="1"/>
        <pt x="273" y="579" on="1"/>
        <pt x="150" y="0" on="1"/>
        <pt x="-6" y="0" on="1"/>
        <pt x="304" y="1462" on="1"/>
      </contour>
      <contour>
        <pt x="385" y="717" on="1"/>
        <pt x="532" y="717" on="0"/>
        <pt x="693" y="862" on="0"/>
        <pt x="728" y="1028" on="1"/>
        <pt x="741" y="1090" on="0"/>
        <pt x="741" y="1211" on="0"/>
        <pt x="712" y="1254" on="1"/>
        <pt x="662" y="1324" on="0"/>
        <pt x="526" y="1324" on="1"/>
        <pt x="431" y="1324" on="1"/>
        <pt x="302" y="717" on="1"/>
      </contour>
    </TTGlyph>
    <TTGlyph name="Q" xMin="97" yMin="-348" xMax="1087" yMax="1483">
      <contour>
        <pt x="432" y="-20" on="1"/>
        <pt x="209" y="-20" on="0"/>
        <pt x="134" y="177" on="1"/>
        <pt x="97" y="273" on="0"/>
        <pt x="97" y="550" on="0"/>
        <pt x="138" y="735" on="1"/>
        <pt x="296" y="1483" on="0"/>
        <pt x="755" y="1483" on="1"/>
        <pt x="974" y="1483" on="0"/>
        <pt x="1050" y="1288" on="1"/>
        <pt x="1087" y="1191" on="0"/>
        <pt x="1087" y="914" on="0"/>
        <pt x="1048" y="733" on="1"/>
        <pt x="989" y="455" on="0"/>
        <pt x="774" y="93" on="0"/>
        <pt x="627" y="23" on="1"/>
        <pt x="779" y="-348" on="1"/>
        <pt x="592" y="-348" on="1"/>
        <pt x="472" y="-17" on="1"/>
        <pt x="465" y="-16" on="0"/>
        <pt x="438" y="-20" on="0"/>
      </contour>
      <contour>
        <pt x="927" y="1045" on="1"/>
        <pt x="927" y="1341" on="0"/>
        <pt x="724" y="1341" on="1"/>
        <pt x="427" y="1341" on="0"/>
        <pt x="297" y="733" on="1"/>
        <pt x="258" y="551" on="0"/>
        <pt x="258" y="423" on="1"/>
        <pt x="258" y="122" on="0"/>
        <pt x="462" y="122" on="1"/>
        <pt x="608" y="122" on="0"/>
        <pt x="824" y="429" on="0"/>
        <pt x="888" y="733" on="1"/>
        <pt x="927" y="916" on="0"/>
      </contour>
    </TTGlyph>
    <TTGlyph name="R" xMin="-5" yMin="0" xMax="906" yMax="1462">
      <contour>
        <pt x="556" y="1462" on="1"/>
        <pt x="773" y="1462" on="0"/>
        <pt x="854" y="1360" on="1"/>
        <pt x="906" y="1294" on="0"/>
        <pt x="906" y="1183" on="1"/>
        <pt x="906" y="1123" on="0"/>
        <pt x="891" y="1049" on="1"/>
        <pt x="859" y="899" on="0"/>
        <pt x="712" y="705" on="0"/>
        <pt x="588" y="655" on="1"/>
        <pt x="736" y="0" on="1"/>
        <pt x="566" y="0" on="1"/>
        <pt x="438" y="616" on="1"/>
        <pt x="281" y="616" on="1"/>
        <pt x="150" y="0" on="1"/>
        <pt x="-5" y="0" on="1"/>
        <pt x="305" y="1462" on="1"/>
      </contour>
      <contour>
        <pt x="425" y="753" on="1"/>
        <pt x="546" y="753" on="0"/>
        <pt x="701" y="899" on="0"/>
        <pt x="731" y="1043" on="1"/>
        <pt x="743" y="1100" on="0"/>
        <pt x="743" y="1145" on="1"/>
        <pt x="743" y="1215" on="0"/>
        <pt x="713" y="1255" on="1"/>
        <pt x="664" y="1320" on="0"/>
        <pt x="526" y="1320" on="1"/>
        <pt x="430" y="1320" on="1"/>
        <pt x="310" y="753" on="1"/>
      </contour>
    </TTGlyph>
    <TTGlyph name="S" xMin="-67" yMin="-20" xMax="874" yMax="1483">
      <contour>
        <pt x="237" y="121" on="1"/>
        <pt x="337" y="121" on="0"/>
        <pt x="491" y="265" on="0"/>
        <pt x="514" y="375" on="1"/>
        <pt x="521" y="408" on="0"/>
        <pt x="521" y="439" on="1"/>
        <pt x="521" y="496" on="0"/>
        <pt x="495" y="542" on="1"/>
        <pt x="455" y="611" on="0"/>
        <pt x="367" y="672" on="1"/>
        <pt x="257" y="743" on="0"/>
        <pt x="208" y="811" on="1"/>
        <pt x="156" y="882" on="0"/>
        <pt x="156" y="981" on="1"/>
        <pt x="156" y="1035" on="0"/>
        <pt x="171" y="1101" on="1"/>
        <pt x="206" y="1269" on="0"/>
        <pt x="451" y="1483" on="0"/>
        <pt x="767" y="1483" on="0"/>
        <pt x="874" y="1411" on="1"/>
        <pt x="818" y="1321" on="0"/>
        <pt x="791" y="1276" on="1"/>
        <pt x="688" y="1338" on="0"/>
        <pt x="491" y="1338" on="0"/>
        <pt x="346" y="1208" on="0"/>
        <pt x="324" y="1105" on="1"/>
        <pt x="313" y="1061" on="0"/>
        <pt x="313" y="1005" on="0"/>
        <pt x="316" y="988" on="1"/>
        <pt x="324" y="938" on="0"/>
        <pt x="400" y="852" on="0"/>
        <pt x="483" y="799" on="1"/>
        <pt x="613" y="720" on="0"/>
        <pt x="657" y="623" on="1"/>
        <pt x="684" y="565" on="0"/>
        <pt x="684" y="443" on="0"/>
        <pt x="672" y="389" on="1"/>
        <pt x="632" y="202" on="0"/>
        <pt x="382" y="-20" on="0"/>
        <pt x="38" y="-20" on="0"/>
        <pt x="-67" y="38" on="1"/>
        <pt x="-33" y="198" on="1"/>
        <pt x="19" y="163" on="0"/>
        <pt x="166" y="121" on="0"/>
      </contour>
    </TTGlyph>
    <TTGlyph name="Scaron" xMin="-112" yMin="-20" xMax="918" yMax="1907">
      <contour>
        <pt x="918" y="1907" on="1"/>
        <pt x="913" y="1885" on="1"/>
        <pt x="836" y="1807" on="0"/>
        <pt x="684" y="1628" on="0"/>
        <pt x="650" y="1579" on="1"/>
        <pt x="495" y="1579" on="1"/>
        <pt x="457" y="1711" on="0"/>
        <pt x="363" y="1885" on="1"/>
        <pt x="368" y="1907" on="1"/>
        <pt x="453" y="1907" on="1"/>
        <pt x="500" y="1856" on="0"/>
        <pt x="602" y="1705" on="1"/>
        <pt x="754" y="1852" on="0"/>
        <pt x="832" y="1907" on="1"/>
      </contour>
      <contour>
        <pt x="192" y="121" on="1"/>
        <pt x="292" y="121" on="0"/>
        <pt x="446" y="265" on="0"/>
        <pt x="469" y="375" on="1"/>
        <pt x="476" y="408" on="0"/>
        <pt x="476" y="439" on="1"/>
        <pt x="476" y="496" on="0"/>
        <pt x="450" y="542" on="1"/>
        <pt x="410" y="611" on="0"/>
        <pt x="322" y="672" on="1"/>
        <pt x="212" y="743" on="0"/>
        <pt x="162" y="811" on="1"/>
        <pt x="111" y="882" on="0"/>
        <pt x="111" y="985" on="1"/>
        <pt x="111" y="1037" on="0"/>
        <pt x="125" y="1101" on="1"/>
        <pt x="161" y="1269" on="0"/>
        <pt x="406" y="1483" on="0"/>
        <pt x="722" y="1483" on="0"/>
        <pt x="829" y="1411" on="1"/>
        <pt x="773" y="1321" on="0"/>
        <pt x="746" y="1276" on="1"/>
        <pt x="643" y="1338" on="0"/>
        <pt x="446" y="1338" on="0"/>
        <pt x="301" y="1207" on="0"/>
        <pt x="279" y="1105" on="1"/>
        <pt x="268" y="1061" on="0"/>
        <pt x="268" y="1005" on="0"/>
        <pt x="270" y="988" on="1"/>
        <pt x="279" y="938" on="0"/>
        <pt x="355" y="852" on="0"/>
        <pt x="438" y="799" on="1"/>
        <pt x="568" y="720" on="0"/>
        <pt x="612" y="623" on="1"/>
        <pt x="639" y="565" on="0"/>
        <pt x="639" y="443" on="0"/>
        <pt x="627" y="389" on="1"/>
        <pt x="587" y="202" on="0"/>
        <pt x="337" y="-20" on="0"/>
        <pt x="-8" y="-20" on="0"/>
        <pt x="-112" y="38" on="1"/>
        <pt x="-78" y="198" on="1"/>
        <pt x="-26" y="163" on="0"/>
        <pt x="121" y="121" on="0"/>
      </contour>
    </TTGlyph>
    <TTGlyph name="T" xMin="143" yMin="0" xMax="903" yMax="1462">
      <contour>
        <pt x="873" y="1320" on="1"/>
        <pt x="586" y="1320" on="1"/>
        <pt x="306" y="0" on="1"/>
        <pt x="151" y="0" on="1"/>
        <pt x="431" y="1320" on="1"/>
        <pt x="143" y="1320" on="1"/>
        <pt x="173" y="1462" on="1"/>
        <pt x="903" y="1462" on="1"/>
      </contour>
    </TTGlyph>
    <TTGlyph name="Thorn" xMin="-6" yMin="0" xMax="850" yMax="1462">
      <contour>
        <pt x="506" y="1204" on="1"/>
        <pt x="719" y="1204" on="0"/>
        <pt x="799" y="1100" on="1"/>
        <pt x="850" y="1035" on="0"/>
        <pt x="850" y="924" on="1"/>
        <pt x="850" y="860" on="0"/>
        <pt x="833" y="782" on="1"/>
        <pt x="784" y="554" on="0"/>
        <pt x="521" y="321" on="0"/>
        <pt x="312" y="321" on="1"/>
        <pt x="218" y="321" on="1"/>
        <pt x="150" y="0" on="1"/>
        <pt x="-6" y="0" on="1"/>
        <pt x="304" y="1462" on="1"/>
        <pt x="460" y="1462" on="1"/>
        <pt x="406" y="1204" on="1"/>
      </contour>
      <contour>
        <pt x="331" y="461" on="1"/>
        <pt x="479" y="461" on="0"/>
        <pt x="638" y="603" on="0"/>
        <pt x="673" y="770" on="1"/>
        <pt x="686" y="830" on="0"/>
        <pt x="686" y="950" on="0"/>
        <pt x="656" y="992" on="1"/>
        <pt x="608" y="1062" on="0"/>
        <pt x="470" y="1062" on="1"/>
        <pt x="375" y="1062" on="1"/>
        <pt x="248" y="461" on="1"/>
      </contour>
    </TTGlyph>
    <TTGlyph name="U" xMin="68" yMin="-20" xMax="1076" yMax="1462">
      <contour>
        <pt x="815" y="237" on="0"/>
        <pt x="564" y="-20" on="0"/>
        <pt x="181" y="-20" on="0"/>
        <pt x="109" y="110" on="1"/>
        <pt x="68" y="186" on="0"/>
        <pt x="68" y="384" on="0"/>
        <pt x="90" y="490" on="1"/>
        <pt x="297" y="1462" on="1"/>
        <pt x="453" y="1462" on="1"/>
        <pt x="243" y="475" on="1"/>
        <pt x="226" y="394" on="0"/>
        <pt x="226" y="260" on="0"/>
        <pt x="248" y="212" on="1"/>
        <pt x="290" y="123" on="0"/>
        <pt x="518" y="123" on="0"/>
        <pt x="674" y="303" on="0"/>
        <pt x="711" y="476" on="1"/>
        <pt x="921" y="1462" on="1"/>
        <pt x="1076" y="1462" on="1"/>
        <pt x="869" y="489" on="1"/>
      </contour>
    </TTGlyph>
    <TTGlyph name="Uacute" xMin="21" yMin="-20" xMax="1028" yMax="1907">
      <contour>
        <pt x="1007" y="1907" on="1"/>
        <pt x="1003" y="1888" on="1"/>
        <pt x="962" y="1833" on="0"/>
        <pt x="744" y="1640" on="0"/>
        <pt x="657" y="1579" on="1"/>
        <pt x="564" y="1579" on="1"/>
        <pt x="569" y="1601" on="1"/>
        <pt x="719" y="1756" on="0"/>
        <pt x="819" y="1907" on="1"/>
      </contour>
      <contour>
        <pt x="768" y="237" on="0"/>
        <pt x="517" y="-20" on="0"/>
        <pt x="134" y="-20" on="0"/>
        <pt x="62" y="111" on="1"/>
        <pt x="21" y="186" on="0"/>
        <pt x="21" y="385" on="0"/>
        <pt x="43" y="490" on="1"/>
        <pt x="249" y="1462" on="1"/>
        <pt x="405" y="1462" on="1"/>
        <pt x="195" y="475" on="1"/>
        <pt x="178" y="395" on="0"/>
        <pt x="178" y="261" on="0"/>
        <pt x="200" y="213" on="1"/>
        <pt x="243" y="123" on="0"/>
        <pt x="471" y="123" on="0"/>
        <pt x="627" y="303" on="0"/>
        <pt x="664" y="476" on="1"/>
        <pt x="873" y="1462" on="1"/>
        <pt x="1028" y="1462" on="1"/>
        <pt x="821" y="489" on="1"/>
      </contour>
    </TTGlyph>
    <TTGlyph name="Ucircumflex" xMin="21" yMin="-20" xMax="1028" yMax="1907">
      <contour>
        <pt x="656" y="1907" on="1"/>
        <pt x="811" y="1907" on="1"/>
        <pt x="822" y="1857" on="0"/>
        <pt x="897" y="1683" on="0"/>
        <pt x="944" y="1600" on="1"/>
        <pt x="939" y="1579" on="1"/>
        <pt x="853" y="1579" on="1"/>
        <pt x="819" y="1615" on="0"/>
        <pt x="775" y="1679" on="1"/>
        <pt x="707" y="1780" on="1"/>
        <pt x="533" y="1624" on="0"/>
        <pt x="474" y="1579" on="1"/>
        <pt x="389" y="1579" on="1"/>
        <pt x="394" y="1600" on="1"/>
        <pt x="577" y="1791" on="0"/>
      </contour>
      <contour>
        <pt x="768" y="237" on="0"/>
        <pt x="517" y="-20" on="0"/>
        <pt x="134" y="-20" on="0"/>
        <pt x="62" y="111" on="1"/>
        <pt x="21" y="186" on="0"/>
        <pt x="21" y="385" on="0"/>
        <pt x="43" y="490" on="1"/>
        <pt x="249" y="1462" on="1"/>
        <pt x="405" y="1462" on="1"/>
        <pt x="195" y="475" on="1"/>
        <pt x="178" y="395" on="0"/>
        <pt x="178" y="261" on="0"/>
        <pt x="200" y="213" on="1"/>
        <pt x="243" y="123" on="0"/>
        <pt x="471" y="123" on="0"/>
        <pt x="627" y="303" on="0"/>
        <pt x="664" y="476" on="1"/>
        <pt x="873" y="1462" on="1"/>
        <pt x="1028" y="1462" on="1"/>
        <pt x="821" y="489" on="1"/>
      </contour>
    </TTGlyph>
    <TTGlyph name="Udieresis" xMin="29" yMin="-20" xMax="1037" yMax="1828">
      <contour>
        <pt x="520" y="1828" on="0"/>
        <pt x="596" y="1828" on="0"/>
        <pt x="614" y="1803" on="1"/>
        <pt x="626" y="1786" on="0"/>
        <pt x="626" y="1767" on="1"/>
        <pt x="626" y="1697" on="0"/>
        <pt x="584" y="1659" on="1"/>
        <pt x="555" y="1633" on="0"/>
        <pt x="479" y="1633" on="0"/>
        <pt x="460" y="1658" on="1"/>
        <pt x="448" y="1675" on="0"/>
        <pt x="448" y="1695" on="1"/>
        <pt x="448" y="1768" on="0"/>
        <pt x="491" y="1804" on="1"/>
      </contour>
      <contour>
        <pt x="827" y="1803" on="1"/>
        <pt x="856" y="1828" on="0"/>
        <pt x="932" y="1828" on="0"/>
        <pt x="950" y="1804" on="1"/>
        <pt x="963" y="1788" on="0"/>
        <pt x="963" y="1768" on="1"/>
        <pt x="963" y="1696" on="0"/>
        <pt x="920" y="1658" on="1"/>
        <pt x="891" y="1633" on="0"/>
        <pt x="815" y="1633" on="0"/>
        <pt x="796" y="1659" on="1"/>
        <pt x="784" y="1676" on="0"/>
        <pt x="784" y="1696" on="1"/>
        <pt x="784" y="1766" on="0"/>
      </contour>
      <contour>
        <pt x="776" y="237" on="0"/>
        <pt x="526" y="-20" on="0"/>
        <pt x="143" y="-20" on="0"/>
        <pt x="70" y="111" on="1"/>
        <pt x="29" y="187" on="0"/>
        <pt x="29" y="385" on="0"/>
        <pt x="51" y="490" on="1"/>
        <pt x="258" y="1462" on="1"/>
        <pt x="414" y="1462" on="1"/>
        <pt x="204" y="475" on="1"/>
        <pt x="187" y="394" on="0"/>
        <pt x="187" y="260" on="0"/>
        <pt x="209" y="212" on="1"/>
        <pt x="251" y="123" on="0"/>
        <pt x="479" y="123" on="0"/>
        <pt x="635" y="303" on="0"/>
        <pt x="672" y="476" on="1"/>
        <pt x="882" y="1462" on="1"/>
        <pt x="1037" y="1462" on="1"/>
        <pt x="830" y="489" on="1"/>
      </contour>
    </TTGlyph>
    <TTGlyph name="Ugrave" xMin="21" yMin="-20" xMax="1028" yMax="1907">
      <contour>
        <pt x="460" y="1907" on="1"/>
        <pt x="649" y="1907" on="1"/>
        <pt x="663" y="1842" on="0"/>
        <pt x="734" y="1661" on="0"/>
        <pt x="769" y="1602" on="1"/>
        <pt x="764" y="1579" on="1"/>
        <pt x="670" y="1579" on="1"/>
        <pt x="616" y="1633" on="0"/>
        <pt x="544" y="1731" on="1"/>
        <pt x="475" y="1829" on="0"/>
        <pt x="456" y="1889" on="1"/>
      </contour>
      <contour>
        <pt x="768" y="237" on="0"/>
        <pt x="517" y="-20" on="0"/>
        <pt x="134" y="-20" on="0"/>
        <pt x="62" y="111" on="1"/>
        <pt x="21" y="186" on="0"/>
        <pt x="21" y="385" on="0"/>
        <pt x="43" y="490" on="1"/>
        <pt x="249" y="1462" on="1"/>
        <pt x="405" y="1462" on="1"/>
        <pt x="195" y="475" on="1"/>
        <pt x="178" y="395" on="0"/>
        <pt x="178" y="261" on="0"/>
        <pt x="200" y="213" on="1"/>
        <pt x="243" y="123" on="0"/>
        <pt x="471" y="123" on="0"/>
        <pt x="627" y="303" on="0"/>
        <pt x="664" y="476" on="1"/>
        <pt x="873" y="1462" on="1"/>
        <pt x="1028" y="1462" on="1"/>
        <pt x="821" y="489" on="1"/>
      </contour>
    </TTGlyph>
    <TTGlyph name="V" xMin="155" yMin="0" xMax="1030" yMax="1462">
      <contour>
        <pt x="313" y="1462" on="1"/>
        <pt x="327" y="445" on="1"/>
        <pt x="327" y="314" on="0"/>
        <pt x="313" y="160" on="1"/>
        <pt x="363" y="305" on="0"/>
        <pt x="406" y="408" on="1"/>
        <pt x="872" y="1462" on="1"/>
        <pt x="1030" y="1462" on="1"/>
        <pt x="375" y="0" on="1"/>
        <pt x="188" y="0" on="1"/>
        <pt x="155" y="1462" on="1"/>
      </contour>
    </TTGlyph>
    <TTGlyph name="W" xMin="155" yMin="0" xMax="1611" yMax="1462">
      <contour>
        <pt x="1611" y="1462" on="1"/>
        <pt x="1006" y="0" on="1"/>
        <pt x="814" y="0" on="1"/>
        <pt x="824" y="741" on="1"/>
        <pt x="824" y="820" on="1"/>
        <pt x="824" y="876" on="0"/>
        <pt x="825" y="907" on="0"/>
        <pt x="827" y="999" on="0"/>
        <pt x="830" y="1035" on="1"/>
        <pt x="835" y="1112" on="0"/>
        <pt x="847" y="1268" on="1"/>
        <pt x="830" y="1216" on="0"/>
        <pt x="816" y="1180" on="1"/>
        <pt x="781" y="1085" on="1"/>
        <pt x="768" y="1052" on="0"/>
        <pt x="671" y="807" on="0"/>
        <pt x="646" y="741" on="1"/>
        <pt x="345" y="0" on="1"/>
        <pt x="155" y="0" on="1"/>
        <pt x="167" y="1458" on="0"/>
        <pt x="167" y="1462" on="1"/>
        <pt x="324" y="1462" on="1"/>
        <pt x="324" y="1456" on="0"/>
        <pt x="306" y="627" on="1"/>
        <pt x="303" y="557" on="0"/>
        <pt x="300" y="452" on="1"/>
        <pt x="294" y="237" on="0"/>
        <pt x="287" y="156" on="1"/>
        <pt x="359" y="368" on="0"/>
        <pt x="404" y="479" on="1"/>
        <pt x="806" y="1462" on="1"/>
        <pt x="974" y="1462" on="1"/>
        <pt x="961" y="625" on="1"/>
        <pt x="958" y="404" on="0"/>
        <pt x="939" y="155" on="1"/>
        <pt x="1022" y="400" on="0"/>
        <pt x="1070" y="515" on="1"/>
        <pt x="1455" y="1462" on="1"/>
      </contour>
    </TTGlyph>
    <TTGlyph name="X" xMin="-142" yMin="0" xMax="931" yMax="1462">
      <contour>
        <pt x="506" y="752" on="1"/>
        <pt x="630" y="0" on="1"/>
        <pt x="468" y="0" on="1"/>
        <pt x="384" y="623" on="1"/>
        <pt x="18" y="0" on="1"/>
        <pt x="-142" y="0" on="1"/>
        <pt x="338" y="771" on="1"/>
        <pt x="205" y="1462" on="1"/>
        <pt x="365" y="1462" on="1"/>
        <pt x="454" y="896" on="1"/>
        <pt x="770" y="1462" on="1"/>
        <pt x="931" y="1462" on="1"/>
      </contour>
    </TTGlyph>
    <TTGlyph name="Y" xMin="155" yMin="0" xMax="932" yMax="1462">
      <contour>
        <pt x="432" y="576" on="1"/>
        <pt x="310" y="0" on="1"/>
        <pt x="155" y="0" on="1"/>
        <pt x="276" y="572" on="1"/>
        <pt x="155" y="1462" on="1"/>
        <pt x="319" y="1462" on="1"/>
        <pt x="396" y="766" on="1"/>
        <pt x="768" y="1462" on="1"/>
        <pt x="932" y="1462" on="1"/>
      </contour>
    </TTGlyph>
    <TTGlyph name="Yacute" xMin="107" yMin="0" xMax="885" yMax="1907">
      <contour>
        <pt x="872" y="1907" on="1"/>
        <pt x="868" y="1888" on="1"/>
        <pt x="827" y="1833" on="0"/>
        <pt x="609" y="1640" on="0"/>
        <pt x="522" y="1579" on="1"/>
        <pt x="429" y="1579" on="1"/>
        <pt x="434" y="1601" on="1"/>
        <pt x="578" y="1750" on="0"/>
        <pt x="684" y="1907" on="1"/>
      </contour>
      <contour>
        <pt x="385" y="576" on="1"/>
        <pt x="262" y="0" on="1"/>
        <pt x="107" y="0" on="1"/>
        <pt x="229" y="572" on="1"/>
        <pt x="108" y="1462" on="1"/>
        <pt x="272" y="1462" on="1"/>
        <pt x="349" y="766" on="1"/>
        <pt x="721" y="1462" on="1"/>
        <pt x="885" y="1462" on="1"/>
      </contour>
    </TTGlyph>
    <TTGlyph name="Ydieresis" xMin="116" yMin="0" xMax="893" yMax="1828">
      <contour>
        <pt x="379" y="1828" on="0"/>
        <pt x="455" y="1828" on="0"/>
        <pt x="473" y="1803" on="1"/>
        <pt x="485" y="1786" on="0"/>
        <pt x="485" y="1767" on="1"/>
        <pt x="485" y="1697" on="0"/>
        <pt x="443" y="1659" on="1"/>
        <pt x="414" y="1633" on="0"/>
        <pt x="338" y="1633" on="0"/>
        <pt x="320" y="1658" on="1"/>
        <pt x="307" y="1675" on="0"/>
        <pt x="307" y="1695" on="1"/>
        <pt x="307" y="1768" on="0"/>
        <pt x="350" y="1804" on="1"/>
      </contour>
      <contour>
        <pt x="685" y="1803" on="1"/>
        <pt x="714" y="1828" on="0"/>
        <pt x="791" y="1828" on="0"/>
        <pt x="810" y="1804" on="1"/>
        <pt x="822" y="1788" on="0"/>
        <pt x="822" y="1768" on="1"/>
        <pt x="822" y="1696" on="0"/>
        <pt x="779" y="1658" on="1"/>
        <pt x="750" y="1633" on="0"/>
        <pt x="674" y="1633" on="0"/>
        <pt x="656" y="1659" on="1"/>
        <pt x="643" y="1676" on="0"/>
        <pt x="643" y="1696" on="1"/>
        <pt x="643" y="1767" on="0"/>
      </contour>
      <contour>
        <pt x="393" y="576" on="1"/>
        <pt x="271" y="0" on="1"/>
        <pt x="116" y="0" on="1"/>
        <pt x="237" y="572" on="1"/>
        <pt x="116" y="1462" on="1"/>
        <pt x="280" y="1462" on="1"/>
        <pt x="358" y="766" on="1"/>
        <pt x="729" y="1462" on="1"/>
        <pt x="893" y="1462" on="1"/>
      </contour>
    </TTGlyph>
    <TTGlyph name="Z" xMin="-103" yMin="0" xMax="821" yMax="1462">
      <contour>
        <pt x="795" y="1339" on="1"/>
        <pt x="98" y="142" on="1"/>
        <pt x="554" y="142" on="1"/>
        <pt x="524" y="0" on="1"/>
        <pt x="-103" y="0" on="1"/>
        <pt x="-77" y="122" on="1"/>
        <pt x="616" y="1319" on="1"/>
        <pt x="186" y="1319" on="1"/>
        <pt x="216" y="1462" on="1"/>
        <pt x="821" y="1462" on="1"/>
      </contour>
    </TTGlyph>
    <TTGlyph name="Zcaron" xMin="-151" yMin="0" xMax="840" yMax="1907">
      <contour>
        <pt x="840" y="1907" on="1"/>
        <pt x="835" y="1885" on="1"/>
        <pt x="758" y="1807" on="0"/>
        <pt x="606" y="1628" on="0"/>
        <pt x="572" y="1579" on="1"/>
        <pt x="417" y="1579" on="1"/>
        <pt x="381" y="1705" on="0"/>
        <pt x="285" y="1885" on="1"/>
        <pt x="290" y="1907" on="1"/>
        <pt x="375" y="1907" on="1"/>
        <pt x="414" y="1865" on="0"/>
        <pt x="524" y="1705" on="1"/>
        <pt x="676" y="1852" on="0"/>
        <pt x="754" y="1907" on="1"/>
      </contour>
      <contour>
        <pt x="748" y="1339" on="1"/>
        <pt x="51" y="142" on="1"/>
        <pt x="507" y="142" on="1"/>
        <pt x="476" y="0" on="1"/>
        <pt x="-151" y="0" on="1"/>
        <pt x="-125" y="122" on="1"/>
        <pt x="569" y="1319" on="1"/>
        <pt x="139" y="1319" on="1"/>
        <pt x="169" y="1462" on="1"/>
        <pt x="774" y="1462" on="1"/>
      </contour>
    </TTGlyph>
    <TTGlyph name="a" xMin="5" yMin="-18" xMax="771" yMax="1116">
      <contour>
        <pt x="283" y="923" on="1"/>
        <pt x="249" y="1034" on="1"/>
        <pt x="397" y="1116" on="0"/>
        <pt x="691" y="1116" on="0"/>
        <pt x="742" y="1025" on="1"/>
        <pt x="771" y="974" on="0"/>
        <pt x="771" y="827" on="0"/>
        <pt x="753" y="741" on="1"/>
        <pt x="595" y="0" on="1"/>
        <pt x="479" y="0" on="1"/>
        <pt x="486" y="152" on="1"/>
        <pt x="481" y="152" on="1"/>
        <pt x="362" y="-18" on="0"/>
        <pt x="203" y="-18" on="1"/>
        <pt x="83" y="-18" on="0"/>
        <pt x="34" y="66" on="1"/>
        <pt x="5" y="116" on="0"/>
        <pt x="5" y="241" on="0"/>
        <pt x="18" y="303" on="1"/>
        <pt x="52" y="464" on="0"/>
        <pt x="278" y="643" on="0"/>
        <pt x="456" y="651" on="1"/>
        <pt x="584" y="657" on="1"/>
        <pt x="602" y="743" on="1"/>
        <pt x="617" y="812" on="0"/>
        <pt x="617" y="902" on="0"/>
        <pt x="606" y="930" on="1"/>
        <pt x="583" y="990" on="0"/>
        <pt x="501" y="990" on="1"/>
        <pt x="405" y="990" on="0"/>
      </contour>
      <contour>
        <pt x="165" y="219" on="1"/>
        <pt x="165" y="102" on="0"/>
        <pt x="270" y="102" on="1"/>
        <pt x="362" y="102" on="0"/>
        <pt x="504" y="281" on="0"/>
        <pt x="538" y="440" on="1"/>
        <pt x="560" y="546" on="1"/>
        <pt x="528" y="545" on="0"/>
        <pt x="457" y="541" on="1"/>
        <pt x="338" y="535" on="0"/>
        <pt x="200" y="416" on="0"/>
        <pt x="175" y="301" on="1"/>
        <pt x="165" y="254" on="0"/>
      </contour>
    </TTGlyph>
    <TTGlyph name="aacute" xMin="-43" yMin="-18" xMax="856" yMax="1569">
      <contour>
        <pt x="856" y="1569" on="1"/>
        <pt x="852" y="1550" on="1"/>
        <pt x="811" y="1495" on="0"/>
        <pt x="593" y="1302" on="0"/>
        <pt x="506" y="1241" on="1"/>
        <pt x="413" y="1241" on="1"/>
        <pt x="418" y="1263" on="1"/>
        <pt x="562" y="1412" on="0"/>
        <pt x="668" y="1569" on="1"/>
      </contour>
      <contour>
        <pt x="235" y="923" on="1"/>
        <pt x="201" y="1034" on="1"/>
        <pt x="349" y="1116" on="0"/>
        <pt x="643" y="1116" on="0"/>
        <pt x="694" y="1025" on="1"/>
        <pt x="723" y="974" on="0"/>
        <pt x="723" y="827" on="0"/>
        <pt x="705" y="741" on="1"/>
        <pt x="547" y="0" on="1"/>
        <pt x="431" y="0" on="1"/>
        <pt x="437" y="152" on="1"/>
        <pt x="432" y="152" on="1"/>
        <pt x="314" y="-18" on="0"/>
        <pt x="155" y="-18" on="1"/>
        <pt x="35" y="-18" on="0"/>
        <pt x="-14" y="66" on="1"/>
        <pt x="-43" y="116" on="0"/>
        <pt x="-43" y="241" on="0"/>
        <pt x="-30" y="303" on="1"/>
        <pt x="4" y="464" on="0"/>
        <pt x="230" y="643" on="0"/>
        <pt x="408" y="651" on="1"/>
        <pt x="536" y="657" on="1"/>
        <pt x="554" y="743" on="1"/>
        <pt x="569" y="812" on="0"/>
        <pt x="569" y="902" on="0"/>
        <pt x="558" y="930" on="1"/>
        <pt x="535" y="990" on="0"/>
        <pt x="453" y="990" on="1"/>
        <pt x="357" y="990" on="0"/>
      </contour>
      <contour>
        <pt x="117" y="219" on="1"/>
        <pt x="117" y="102" on="0"/>
        <pt x="222" y="102" on="1"/>
        <pt x="314" y="102" on="0"/>
        <pt x="456" y="281" on="0"/>
        <pt x="490" y="440" on="1"/>
        <pt x="512" y="546" on="1"/>
        <pt x="480" y="545" on="0"/>
        <pt x="409" y="541" on="1"/>
        <pt x="290" y="535" on="0"/>
        <pt x="152" y="417" on="0"/>
        <pt x="127" y="301" on="1"/>
        <pt x="117" y="254" on="0"/>
      </contour>
    </TTGlyph>
    <TTGlyph name="acircumflex" xMin="-44" yMin="-18" xMax="800" yMax="1570">
      <contour>
        <pt x="512" y="1570" on="1"/>
        <pt x="667" y="1570" on="1"/>
        <pt x="678" y="1520" on="0"/>
        <pt x="753" y="1346" on="0"/>
        <pt x="800" y="1263" on="1"/>
        <pt x="795" y="1242" on="1"/>
        <pt x="709" y="1242" on="1"/>
        <pt x="675" y="1278" on="0"/>
        <pt x="631" y="1342" on="1"/>
        <pt x="563" y="1443" on="1"/>
        <pt x="389" y="1287" on="0"/>
        <pt x="330" y="1242" on="1"/>
        <pt x="245" y="1242" on="1"/>
        <pt x="250" y="1263" on="1"/>
        <pt x="433" y="1454" on="0"/>
      </contour>
      <contour>
        <pt x="235" y="923" on="1"/>
        <pt x="201" y="1034" on="1"/>
        <pt x="349" y="1116" on="0"/>
        <pt x="643" y="1116" on="0"/>
        <pt x="694" y="1025" on="1"/>
        <pt x="723" y="974" on="0"/>
        <pt x="723" y="827" on="0"/>
        <pt x="705" y="741" on="1"/>
        <pt x="547" y="0" on="1"/>
        <pt x="431" y="0" on="1"/>
        <pt x="437" y="152" on="1"/>
        <pt x="432" y="152" on="1"/>
        <pt x="314" y="-18" on="0"/>
        <pt x="155" y="-18" on="1"/>
        <pt x="35" y="-18" on="0"/>
        <pt x="-14" y="66" on="1"/>
        <pt x="-44" y="117" on="0"/>
        <pt x="-44" y="243" on="0"/>
        <pt x="-31" y="303" on="1"/>
        <pt x="3" y="464" on="0"/>
        <pt x="230" y="643" on="0"/>
        <pt x="407" y="651" on="1"/>
        <pt x="536" y="657" on="1"/>
        <pt x="554" y="743" on="1"/>
        <pt x="569" y="811" on="0"/>
        <pt x="569" y="902" on="0"/>
        <pt x="558" y="930" on="1"/>
        <pt x="534" y="990" on="0"/>
        <pt x="357" y="990" on="0"/>
      </contour>
      <contour>
        <pt x="117" y="219" on="1"/>
        <pt x="117" y="102" on="0"/>
        <pt x="222" y="102" on="1"/>
        <pt x="314" y="102" on="0"/>
        <pt x="456" y="281" on="0"/>
        <pt x="490" y="440" on="1"/>
        <pt x="512" y="546" on="1"/>
        <pt x="476" y="545" on="0"/>
        <pt x="409" y="541" on="1"/>
        <pt x="290" y="535" on="0"/>
        <pt x="152" y="417" on="0"/>
        <pt x="127" y="301" on="1"/>
        <pt x="117" y="254" on="0"/>
      </contour>
    </TTGlyph>
    <TTGlyph name="acute" xMin="358" yMin="1241" xMax="801" yMax="1569">
      <contour>
        <pt x="801" y="1569" on="1"/>
        <pt x="797" y="1550" on="1"/>
        <pt x="756" y="1495" on="0"/>
        <pt x="538" y="1302" on="0"/>
        <pt x="451" y="1241" on="1"/>
        <pt x="358" y="1241" on="1"/>
        <pt x="363" y="1263" on="1"/>
        <pt x="513" y="1418" on="0"/>
        <pt x="613" y="1569" on="1"/>
      </contour>
    </TTGlyph>
    <TTGlyph name="adieresis" xMin="-35" yMin="-18" xMax="816" yMax="1490">
      <contour>
        <pt x="373" y="1490" on="0"/>
        <pt x="449" y="1490" on="0"/>
        <pt x="467" y="1465" on="1"/>
        <pt x="479" y="1448" on="0"/>
        <pt x="479" y="1429" on="1"/>
        <pt x="479" y="1359" on="0"/>
        <pt x="437" y="1321" on="1"/>
        <pt x="408" y="1295" on="0"/>
        <pt x="332" y="1295" on="0"/>
        <pt x="314" y="1320" on="1"/>
        <pt x="301" y="1337" on="0"/>
        <pt x="301" y="1357" on="1"/>
        <pt x="301" y="1430" on="0"/>
        <pt x="344" y="1466" on="1"/>
      </contour>
      <contour>
        <pt x="679" y="1465" on="1"/>
        <pt x="708" y="1490" on="0"/>
        <pt x="785" y="1490" on="0"/>
        <pt x="804" y="1466" on="1"/>
        <pt x="816" y="1450" on="0"/>
        <pt x="816" y="1430" on="1"/>
        <pt x="816" y="1358" on="0"/>
        <pt x="773" y="1320" on="1"/>
        <pt x="744" y="1295" on="0"/>
        <pt x="668" y="1295" on="0"/>
        <pt x="650" y="1321" on="1"/>
        <pt x="637" y="1338" on="0"/>
        <pt x="637" y="1358" on="1"/>
        <pt x="637" y="1429" on="0"/>
      </contour>
      <contour>
        <pt x="244" y="923" on="1"/>
        <pt x="244" y="923" on="0"/>
        <pt x="209" y="1034" on="1"/>
        <pt x="357" y="1116" on="0"/>
        <pt x="651" y="1116" on="0"/>
        <pt x="702" y="1025" on="1"/>
        <pt x="731" y="974" on="0"/>
        <pt x="731" y="827" on="0"/>
        <pt x="713" y="741" on="1"/>
        <pt x="556" y="0" on="1"/>
        <pt x="440" y="0" on="1"/>
        <pt x="446" y="152" on="1"/>
        <pt x="441" y="152" on="1"/>
        <pt x="322" y="-18" on="0"/>
        <pt x="164" y="-18" on="1"/>
        <pt x="43" y="-18" on="0"/>
        <pt x="-6" y="66" on="1"/>
        <pt x="-35" y="116" on="0"/>
        <pt x="-35" y="241" on="0"/>
        <pt x="-22" y="303" on="1"/>
        <pt x="12" y="464" on="0"/>
        <pt x="239" y="643" on="0"/>
        <pt x="416" y="651" on="1"/>
        <pt x="544" y="657" on="1"/>
        <pt x="562" y="743" on="1"/>
        <pt x="577" y="812" on="0"/>
        <pt x="577" y="902" on="0"/>
        <pt x="566" y="930" on="1"/>
        <pt x="543" y="990" on="0"/>
        <pt x="461" y="990" on="1"/>
        <pt x="365" y="990" on="0"/>
      </contour>
      <contour>
        <pt x="126" y="218" on="1"/>
        <pt x="126" y="102" on="0"/>
        <pt x="230" y="102" on="1"/>
        <pt x="322" y="102" on="0"/>
        <pt x="464" y="281" on="0"/>
        <pt x="498" y="440" on="1"/>
        <pt x="521" y="546" on="1"/>
        <pt x="486" y="545" on="0"/>
        <pt x="418" y="541" on="1"/>
        <pt x="299" y="535" on="0"/>
        <pt x="160" y="416" on="0"/>
        <pt x="136" y="301" on="1"/>
        <pt x="126" y="254" on="0"/>
      </contour>
    </TTGlyph>
    <TTGlyph name="ae" xMin="-14" yMin="-20" xMax="1274" yMax="1115">
      <contour>
        <pt x="284" y="923" on="1"/>
        <pt x="249" y="1034" on="1"/>
        <pt x="397" y="1114" on="0"/>
        <pt x="534" y="1114" on="1"/>
        <pt x="710" y="1114" on="0"/>
        <pt x="751" y="970" on="1"/>
        <pt x="869" y="1115" on="0"/>
        <pt x="1181" y="1115" on="0"/>
        <pt x="1240" y="985" on="1"/>
        <pt x="1274" y="912" on="0"/>
        <pt x="1274" y="730" on="0"/>
        <pt x="1253" y="631" on="1"/>
        <pt x="1230" y="525" on="1"/>
        <pt x="709" y="525" on="1"/>
        <pt x="689" y="421" on="0"/>
        <pt x="689" y="343" on="1"/>
        <pt x="689" y="108" on="0"/>
        <pt x="867" y="108" on="1"/>
        <pt x="988" y="108" on="0"/>
        <pt x="1118" y="180" on="1"/>
        <pt x="1090" y="48" on="1"/>
        <pt x="965" y="-20" on="0"/>
        <pt x="824" y="-20" on="1"/>
        <pt x="715" y="-20" on="0"/>
        <pt x="576" y="93" on="0"/>
        <pt x="553" y="200" on="1"/>
        <pt x="480" y="85" on="0"/>
        <pt x="313" y="-20" on="0"/>
        <pt x="211" y="-20" on="1"/>
        <pt x="87" y="-20" on="0"/>
        <pt x="-14" y="151" on="0"/>
        <pt x="52" y="464" on="0"/>
        <pt x="279" y="643" on="0"/>
        <pt x="456" y="651" on="1"/>
        <pt x="584" y="657" on="1"/>
        <pt x="603" y="743" on="1"/>
        <pt x="616" y="806" on="0"/>
        <pt x="616" y="853" on="1"/>
        <pt x="616" y="990" on="0"/>
        <pt x="501" y="990" on="1"/>
        <pt x="405" y="990" on="0"/>
      </contour>
      <contour>
        <pt x="1108" y="646" on="1"/>
        <pt x="1126" y="731" on="0"/>
        <pt x="1126" y="854" on="0"/>
        <pt x="1113" y="896" on="1"/>
        <pt x="1084" y="988" on="0"/>
        <pt x="1001" y="988" on="1"/>
        <pt x="830" y="988" on="0"/>
        <pt x="738" y="646" on="1"/>
      </contour>
      <contour>
        <pt x="166" y="218" on="1"/>
        <pt x="166" y="102" on="0"/>
        <pt x="270" y="102" on="1"/>
        <pt x="362" y="102" on="0"/>
        <pt x="504" y="281" on="0"/>
        <pt x="538" y="440" on="1"/>
        <pt x="561" y="546" on="1"/>
        <pt x="526" y="545" on="0"/>
        <pt x="458" y="541" on="1"/>
        <pt x="337" y="535" on="0"/>
        <pt x="201" y="420" on="0"/>
        <pt x="176" y="301" on="1"/>
        <pt x="166" y="254" on="0"/>
      </contour>
    </TTGlyph>
    <TTGlyph name="agrave" xMin="-43" yMin="-18" xMax="723" yMax="1569">
      <contour>
        <pt x="326" y="1569" on="1"/>
        <pt x="515" y="1569" on="1"/>
        <pt x="529" y="1504" on="0"/>
        <pt x="600" y="1323" on="0"/>
        <pt x="635" y="1264" on="1"/>
        <pt x="630" y="1241" on="1"/>
        <pt x="536" y="1241" on="1"/>
        <pt x="482" y="1295" on="0"/>
        <pt x="410" y="1393" on="1"/>
        <pt x="341" y="1491" on="0"/>
        <pt x="322" y="1551" on="1"/>
      </contour>
      <contour>
        <pt x="235" y="923" on="1"/>
        <pt x="201" y="1034" on="1"/>
        <pt x="349" y="1116" on="0"/>
        <pt x="643" y="1116" on="0"/>
        <pt x="694" y="1025" on="1"/>
        <pt x="723" y="974" on="0"/>
        <pt x="723" y="827" on="0"/>
        <pt x="705" y="741" on="1"/>
        <pt x="547" y="0" on="1"/>
        <pt x="431" y="0" on="1"/>
        <pt x="437" y="152" on="1"/>
        <pt x="432" y="152" on="1"/>
        <pt x="314" y="-18" on="0"/>
        <pt x="155" y="-18" on="1"/>
        <pt x="35" y="-18" on="0"/>
        <pt x="-14" y="66" on="1"/>
        <pt x="-43" y="116" on="0"/>
        <pt x="-43" y="241" on="0"/>
        <pt x="-30" y="303" on="1"/>
        <pt x="4" y="464" on="0"/>
        <pt x="230" y="643" on="0"/>
        <pt x="408" y="651" on="1"/>
        <pt x="536" y="657" on="1"/>
        <pt x="554" y="743" on="1"/>
        <pt x="569" y="812" on="0"/>
        <pt x="569" y="902" on="0"/>
        <pt x="558" y="930" on="1"/>
        <pt x="535" y="990" on="0"/>
        <pt x="453" y="990" on="1"/>
        <pt x="357" y="990" on="0"/>
      </contour>
      <contour>
        <pt x="117" y="219" on="1"/>
        <pt x="117" y="102" on="0"/>
        <pt x="222" y="102" on="1"/>
        <pt x="314" y="102" on="0"/>
        <pt x="456" y="281" on="0"/>
        <pt x="490" y="440" on="1"/>
        <pt x="512" y="546" on="1"/>
        <pt x="480" y="545" on="0"/>
        <pt x="409" y="541" on="1"/>
        <pt x="290" y="535" on="0"/>
        <pt x="152" y="417" on="0"/>
        <pt x="127" y="301" on="1"/>
        <pt x="117" y="254" on="0"/>
      </contour>
    </TTGlyph>
    <TTGlyph name="alefdageshhb" xMin="-61" yMin="0" xMax="920" yMax="1290">
      <contour>
        <pt x="920" y="1290" on="1"/>
        <pt x="821" y="823" on="1"/>
        <pt x="808" y="762" on="0"/>
        <pt x="776" y="669" on="0"/>
        <pt x="746" y="614" on="1"/>
        <pt x="685" y="498" on="0"/>
        <pt x="552" y="447" on="1"/>
        <pt x="569" y="369" on="0"/>
        <pt x="635" y="71" on="0"/>
        <pt x="650" y="0" on="1"/>
        <pt x="479" y="0" on="1"/>
        <pt x="336" y="718" on="1"/>
        <pt x="273" y="678" on="0"/>
        <pt x="201" y="534" on="0"/>
        <pt x="177" y="417" on="1"/>
        <pt x="88" y="0" on="1"/>
        <pt x="-61" y="0" on="1"/>
        <pt x="36" y="455" on="1"/>
        <pt x="63" y="577" on="0"/>
        <pt x="111" y="668" on="1"/>
        <pt x="175" y="787" on="0"/>
        <pt x="306" y="843" on="1"/>
        <pt x="205" y="1290" on="1"/>
        <pt x="375" y="1290" on="1"/>
        <pt x="467" y="803" on="1"/>
        <pt x="522" y="572" on="1"/>
        <pt x="586" y="609" on="0"/>
        <pt x="655" y="741" on="0"/>
        <pt x="680" y="861" on="1"/>
        <pt x="771" y="1290" on="1"/>
      </contour>
      <contour>
        <pt x="285" y="327" on="1"/>
        <pt x="344" y="327" on="0"/>
        <pt x="344" y="271" on="1"/>
        <pt x="344" y="257" on="0"/>
        <pt x="340" y="240" on="1"/>
        <pt x="322" y="154" on="0"/>
        <pt x="249" y="154" on="1"/>
        <pt x="193" y="154" on="0"/>
        <pt x="193" y="208" on="1"/>
        <pt x="193" y="222" on="0"/>
        <pt x="197" y="240" on="1"/>
        <pt x="215" y="327" on="0"/>
      </contour>
    </TTGlyph>
    <TTGlyph name="alefpatahhb" xMin="-61" yMin="-308" xMax="920" yMax="1290">
      <contour>
        <pt x="920" y="1290" on="1"/>
        <pt x="821" y="823" on="1"/>
        <pt x="808" y="762" on="0"/>
        <pt x="776" y="669" on="0"/>
        <pt x="746" y="614" on="1"/>
        <pt x="685" y="498" on="0"/>
        <pt x="552" y="447" on="1"/>
        <pt x="569" y="369" on="0"/>
        <pt x="635" y="71" on="0"/>
        <pt x="650" y="0" on="1"/>
        <pt x="479" y="0" on="1"/>
        <pt x="336" y="718" on="1"/>
        <pt x="273" y="678" on="0"/>
        <pt x="201" y="534" on="0"/>
        <pt x="177" y="417" on="1"/>
        <pt x="88" y="0" on="1"/>
        <pt x="-61" y="0" on="1"/>
        <pt x="36" y="455" on="1"/>
        <pt x="63" y="577" on="0"/>
        <pt x="111" y="668" on="1"/>
        <pt x="175" y="787" on="0"/>
        <pt x="306" y="843" on="1"/>
        <pt x="205" y="1290" on="1"/>
        <pt x="375" y="1290" on="1"/>
        <pt x="467" y="803" on="1"/>
        <pt x="522" y="572" on="1"/>
        <pt x="586" y="609" on="0"/>
        <pt x="655" y="741" on="0"/>
        <pt x="680" y="861" on="1"/>
        <pt x="771" y="1290" on="1"/>
      </contour>
      <contour>
        <pt x="433" y="-308" on="1"/>
        <pt x="23" y="-308" on="1"/>
        <pt x="41" y="-226" on="1"/>
        <pt x="451" y="-226" on="1"/>
      </contour>
    </TTGlyph>
    <TTGlyph name="alefqamatshb" xMin="-61" yMin="-540" xMax="920" yMax="1290">
      <contour>
        <pt x="920" y="1290" on="1"/>
        <pt x="821" y="823" on="1"/>
        <pt x="808" y="762" on="0"/>
        <pt x="776" y="669" on="0"/>
        <pt x="746" y="614" on="1"/>
        <pt x="685" y="498" on="0"/>
        <pt x="552" y="447" on="1"/>
        <pt x="569" y="369" on="0"/>
        <pt x="635" y="71" on="0"/>
        <pt x="650" y="0" on="1"/>
        <pt x="479" y="0" on="1"/>
        <pt x="336" y="718" on="1"/>
        <pt x="273" y="678" on="0"/>
        <pt x="201" y="534" on="0"/>
        <pt x="177" y="417" on="1"/>
        <pt x="88" y="0" on="1"/>
        <pt x="-61" y="0" on="1"/>
        <pt x="36" y="455" on="1"/>
        <pt x="63" y="577" on="0"/>
        <pt x="111" y="668" on="1"/>
        <pt x="175" y="787" on="0"/>
        <pt x="306" y="843" on="1"/>
        <pt x="205" y="1290" on="1"/>
        <pt x="375" y="1290" on="1"/>
        <pt x="467" y="803" on="1"/>
        <pt x="522" y="572" on="1"/>
        <pt x="586" y="609" on="0"/>
        <pt x="655" y="741" on="0"/>
        <pt x="680" y="861" on="1"/>
        <pt x="771" y="1290" on="1"/>
      </contour>
      <contour>
        <pt x="429" y="-308" on="1"/>
        <pt x="265" y="-308" on="1"/>
        <pt x="216" y="-540" on="1"/>
        <pt x="134" y="-540" on="1"/>
        <pt x="183" y="-308" on="1"/>
        <pt x="19" y="-308" on="1"/>
        <pt x="36" y="-226" on="1"/>
        <pt x="446" y="-226" on="1"/>
      </contour>
    </TTGlyph>
    <TTGlyph name="ampersand" xMin="-30" yMin="-20" xMax="888" yMax="1483">
      <contour>
        <pt x="303" y="794" on="1"/>
        <pt x="247" y="953" on="0"/>
        <pt x="247" y="1045" on="1"/>
        <pt x="247" y="1102" on="0"/>
        <pt x="261" y="1165" on="1"/>
        <pt x="292" y="1311" on="0"/>
        <pt x="461" y="1483" on="0"/>
        <pt x="683" y="1483" on="0"/>
        <pt x="732" y="1402" on="1"/>
        <pt x="762" y="1351" on="0"/>
        <pt x="762" y="1278" on="1"/>
        <pt x="762" y="1234" on="0"/>
        <pt x="751" y="1181" on="1"/>
        <pt x="723" y="1052" on="0"/>
        <pt x="595" y="862" on="0"/>
        <pt x="474" y="771" on="1"/>
        <pt x="480" y="757" on="0"/>
        <pt x="620" y="393" on="1"/>
        <pt x="702" y="510" on="0"/>
        <pt x="748" y="685" on="1"/>
        <pt x="888" y="685" on="1"/>
        <pt x="858" y="578" on="0"/>
        <pt x="740" y="342" on="0"/>
        <pt x="678" y="263" on="1"/>
        <pt x="791" y="0" on="1"/>
        <pt x="619" y="0" on="1"/>
        <pt x="607" y="29" on="0"/>
        <pt x="568" y="137" on="0"/>
        <pt x="562" y="152" on="1"/>
        <pt x="472" y="58" on="0"/>
        <pt x="310" y="-20" on="0"/>
        <pt x="212" y="-20" on="1"/>
        <pt x="67" y="-20" on="0"/>
        <pt x="6" y="82" on="1"/>
        <pt x="-30" y="143" on="0"/>
        <pt x="-30" y="234" on="1"/>
        <pt x="-30" y="294" on="0"/>
        <pt x="-14" y="367" on="1"/>
        <pt x="14" y="499" on="0"/>
        <pt x="157" y="692" on="0"/>
      </contour>
      <contour>
        <pt x="542" y="1348" on="1"/>
        <pt x="496" y="1348" on="0"/>
        <pt x="426" y="1257" on="0"/>
        <pt x="397" y="1117" on="0"/>
        <pt x="397" y="1078" on="1"/>
        <pt x="397" y="956" on="0"/>
        <pt x="431" y="877" on="1"/>
        <pt x="505" y="935" on="0"/>
        <pt x="585" y="1077" on="0"/>
        <pt x="605" y="1173" on="1"/>
        <pt x="615" y="1220" on="0"/>
        <pt x="615" y="1255" on="1"/>
        <pt x="615" y="1348" on="0"/>
      </contour>
      <contour>
        <pt x="140" y="374" on="1"/>
        <pt x="129" y="321" on="0"/>
        <pt x="129" y="225" on="0"/>
        <pt x="146" y="188" on="1"/>
        <pt x="178" y="121" on="0"/>
        <pt x="257" y="121" on="1"/>
        <pt x="382" y="121" on="0"/>
        <pt x="511" y="271" on="1"/>
        <pt x="350" y="690" on="1"/>
        <pt x="253" y="615" on="0"/>
        <pt x="161" y="475" on="0"/>
      </contour>
    </TTGlyph>
    <TTGlyph name="aring" xMin="-52" yMin="-18" xMax="776" yMax="1651">
      <contour>
        <pt x="360" y="1541" on="0"/>
        <pt x="501" y="1651" on="0"/>
        <pt x="691" y="1651" on="0"/>
        <pt x="740" y="1596" on="1"/>
        <pt x="776" y="1555" on="0"/>
        <pt x="776" y="1498" on="1"/>
        <pt x="776" y="1476" on="0"/>
        <pt x="771" y="1452" on="1"/>
        <pt x="752" y="1358" on="0"/>
        <pt x="610" y="1247" on="0"/>
        <pt x="415" y="1247" on="0"/>
        <pt x="368" y="1301" on="1"/>
        <pt x="334" y="1339" on="0"/>
        <pt x="334" y="1397" on="1"/>
        <pt x="334" y="1421" on="0"/>
        <pt x="340" y="1449" on="1"/>
      </contour>
      <contour>
        <pt x="655" y="1530" on="1"/>
        <pt x="631" y="1560" on="0"/>
        <pt x="528" y="1560" on="0"/>
        <pt x="489" y="1529" on="1"/>
        <pt x="436" y="1487" on="0"/>
        <pt x="436" y="1418" on="1"/>
        <pt x="436" y="1387" on="0"/>
        <pt x="452" y="1367" on="1"/>
        <pt x="476" y="1337" on="0"/>
        <pt x="582" y="1337" on="0"/>
        <pt x="658" y="1398" on="0"/>
        <pt x="668" y="1449" on="1"/>
        <pt x="671" y="1465" on="0"/>
        <pt x="671" y="1509" on="0"/>
      </contour>
      <contour>
        <pt x="227" y="923" on="1"/>
        <pt x="227" y="923" on="0"/>
        <pt x="192" y="1034" on="1"/>
        <pt x="340" y="1116" on="0"/>
        <pt x="634" y="1116" on="0"/>
        <pt x="686" y="1025" on="1"/>
        <pt x="714" y="974" on="0"/>
        <pt x="714" y="827" on="0"/>
        <pt x="696" y="741" on="1"/>
        <pt x="538" y="0" on="1"/>
        <pt x="422" y="0" on="1"/>
        <pt x="429" y="152" on="1"/>
        <pt x="424" y="152" on="1"/>
        <pt x="305" y="-18" on="0"/>
        <pt x="147" y="-18" on="1"/>
        <pt x="26" y="-18" on="0"/>
        <pt x="-23" y="66" on="1"/>
        <pt x="-52" y="116" on="0"/>
        <pt x="-52" y="241" on="0"/>
        <pt x="-39" y="303" on="1"/>
        <pt x="-5" y="464" on="0"/>
        <pt x="221" y="643" on="0"/>
        <pt x="399" y="651" on="1"/>
        <pt x="527" y="657" on="1"/>
        <pt x="545" y="743" on="1"/>
        <pt x="560" y="812" on="0"/>
        <pt x="560" y="902" on="0"/>
        <pt x="550" y="930" on="1"/>
        <pt x="526" y="990" on="0"/>
        <pt x="444" y="990" on="1"/>
        <pt x="348" y="990" on="0"/>
      </contour>
      <contour>
        <pt x="109" y="219" on="1"/>
        <pt x="109" y="102" on="0"/>
        <pt x="213" y="102" on="1"/>
        <pt x="305" y="102" on="0"/>
        <pt x="447" y="281" on="0"/>
        <pt x="481" y="440" on="1"/>
        <pt x="504" y="546" on="1"/>
        <pt x="471" y="545" on="0"/>
        <pt x="400" y="541" on="1"/>
        <pt x="281" y="535" on="0"/>
        <pt x="143" y="416" on="0"/>
        <pt x="118" y="301" on="1"/>
        <pt x="109" y="255" on="0"/>
      </contour>
    </TTGlyph>
    <TTGlyph name="asciicircum" xMin="-54" yMin="681" xMax="797" yMax="1463">
      <contour>
        <pt x="797" y="681" on="1"/>
        <pt x="654" y="681" on="1"/>
        <pt x="495" y="1295" on="1"/>
        <pt x="87" y="681" on="1"/>
        <pt x="-54" y="681" on="1"/>
        <pt x="483" y="1463" on="1"/>
        <pt x="573" y="1463" on="1"/>
      </contour>
    </TTGlyph>
    <TTGlyph name="asciitilde" xMin="92" yMin="603" xMax="814" yMax="847">
      <contour>
        <pt x="573" y="603" on="1"/>
        <pt x="513" y="603" on="0"/>
        <pt x="454" y="631" on="1"/>
        <pt x="443" y="636" on="0"/>
        <pt x="324" y="702" on="0"/>
        <pt x="288" y="711" on="1"/>
        <pt x="245" y="711" on="0"/>
        <pt x="185" y="686" on="0"/>
        <pt x="165" y="677" on="0"/>
        <pt x="136" y="659" on="0"/>
        <pt x="130" y="655" on="1"/>
        <pt x="110" y="643" on="0"/>
        <pt x="92" y="631" on="1"/>
        <pt x="122" y="772" on="1"/>
        <pt x="152" y="796" on="0"/>
        <pt x="266" y="840" on="0"/>
        <pt x="307" y="840" on="1"/>
        <pt x="357" y="837" on="0"/>
        <pt x="420" y="805" on="1"/>
        <pt x="438" y="796" on="0"/>
        <pt x="484" y="770" on="0"/>
        <pt x="488" y="768" on="1"/>
        <pt x="553" y="729" on="0"/>
        <pt x="606" y="729" on="1"/>
        <pt x="699" y="729" on="0"/>
        <pt x="814" y="847" on="1"/>
        <pt x="785" y="709" on="1"/>
        <pt x="685" y="603" on="0"/>
      </contour>
    </TTGlyph>
    <TTGlyph name="asterisk" xMin="76" yMin="896" xMax="740" yMax="1556">
      <contour>
        <pt x="469" y="1288" on="1"/>
        <pt x="740" y="1354" on="1"/>
        <pt x="729" y="1208" on="1"/>
        <pt x="481" y="1197" on="1"/>
        <pt x="597" y="964" on="1"/>
        <pt x="452" y="898" on="1"/>
        <pt x="389" y="1142" on="1"/>
        <pt x="220" y="896" on="1"/>
        <pt x="105" y="964" on="1"/>
        <pt x="315" y="1197" on="1"/>
        <pt x="76" y="1208" on="1"/>
        <pt x="131" y="1353" on="1"/>
        <pt x="370" y="1288" on="1"/>
        <pt x="397" y="1556" on="1"/>
        <pt x="557" y="1556" on="1"/>
      </contour>
    </TTGlyph>
    <TTGlyph name="at" xMin="49" yMin="-176" xMax="1271" yMax="1474">
      <contour>
        <pt x="839" y="431" on="1"/>
        <pt x="839" y="351" on="0"/>
        <pt x="906" y="351" on="1"/>
        <pt x="1026" y="351" on="0"/>
        <pt x="1110" y="743" on="1"/>
        <pt x="1137" y="871" on="0"/>
        <pt x="1137" y="1099" on="0"/>
        <pt x="1098" y="1189" on="1"/>
        <pt x="1028" y="1355" on="0"/>
        <pt x="850" y="1355" on="1"/>
        <pt x="707" y="1355" on="0"/>
        <pt x="450" y="1160" on="0"/>
        <pt x="264" y="818" on="0"/>
        <pt x="217" y="598" on="1"/>
        <pt x="186" y="451" on="0"/>
        <pt x="186" y="207" on="0"/>
        <pt x="224" y="116" on="1"/>
        <pt x="295" y="-59" on="0"/>
        <pt x="489" y="-59" on="1"/>
        <pt x="637" y="-59" on="0"/>
        <pt x="775" y="16" on="1"/>
        <pt x="750" y="-106" on="1"/>
        <pt x="614" y="-176" on="0"/>
        <pt x="459" y="-176" on="1"/>
        <pt x="204" y="-176" on="0"/>
        <pt x="105" y="21" on="1"/>
        <pt x="49" y="132" on="0"/>
        <pt x="49" y="295" on="1"/>
        <pt x="49" y="422" on="0"/>
        <pt x="83" y="580" on="1"/>
        <pt x="171" y="993" on="0"/>
        <pt x="601" y="1474" on="0"/>
        <pt x="874" y="1474" on="1"/>
        <pt x="995" y="1474" on="0"/>
        <pt x="1082" y="1420" on="1"/>
        <pt x="1250" y="1318" on="0"/>
        <pt x="1269" y="1038" on="1"/>
        <pt x="1271" y="1011" on="0"/>
        <pt x="1271" y="983" on="1"/>
        <pt x="1271" y="870" on="0"/>
        <pt x="1241" y="739" on="1"/>
        <pt x="1187" y="487" on="0"/>
        <pt x="1003" y="231" on="0"/>
        <pt x="879" y="231" on="1"/>
        <pt x="748" y="231" on="0"/>
        <pt x="748" y="368" on="1"/>
        <pt x="748" y="390" on="0"/>
        <pt x="751" y="415" on="1"/>
        <pt x="742" y="415" on="1"/>
        <pt x="659" y="231" on="0"/>
        <pt x="529" y="231" on="1"/>
        <pt x="429" y="231" on="0"/>
        <pt x="394" y="324" on="1"/>
        <pt x="376" y="370" on="0"/>
        <pt x="376" y="503" on="0"/>
        <pt x="395" y="593" on="1"/>
        <pt x="444" y="821" on="0"/>
        <pt x="653" y="1071" on="0"/>
        <pt x="793" y="1071" on="1"/>
        <pt x="890" y="1071" on="0"/>
        <pt x="980" y="1038" on="1"/>
        <pt x="859" y="564" on="1"/>
        <pt x="848" y="511" on="1"/>
        <pt x="839" y="464" on="0"/>
      </contour>
      <contour>
        <pt x="758" y="960" on="1"/>
        <pt x="687" y="960" on="0"/>
        <pt x="567" y="767" on="0"/>
        <pt x="529" y="590" on="1"/>
        <pt x="512" y="510" on="0"/>
        <pt x="512" y="457" on="1"/>
        <pt x="512" y="351" on="0"/>
        <pt x="578" y="351" on="1"/>
        <pt x="624" y="351" on="0"/>
        <pt x="706" y="505" on="0"/>
        <pt x="751" y="671" on="1"/>
        <pt x="825" y="951" on="1"/>
        <pt x="796" y="960" on="0"/>
      </contour>
    </TTGlyph>
    <TTGlyph name="atilde" xMin="-34" yMin="-18" xMax="896" yMax="1483">
      <contour>
        <pt x="664" y="1242" on="1"/>
        <pt x="630" y="1242" on="0"/>
        <pt x="562" y="1280" on="0"/>
        <pt x="540" y="1302" on="1"/>
        <pt x="481" y="1363" on="0"/>
        <pt x="443" y="1363" on="1"/>
        <pt x="380" y="1363" on="0"/>
        <pt x="335" y="1240" on="1"/>
        <pt x="239" y="1240" on="1"/>
        <pt x="276" y="1357" on="0"/>
        <pt x="395" y="1481" on="0"/>
        <pt x="473" y="1481" on="1"/>
        <pt x="507" y="1481" on="0"/>
        <pt x="574" y="1444" on="0"/>
        <pt x="618" y="1398" on="0"/>
        <pt x="673" y="1361" on="0"/>
        <pt x="728" y="1361" on="0"/>
        <pt x="775" y="1421" on="0"/>
        <pt x="800" y="1483" on="1"/>
        <pt x="896" y="1483" on="1"/>
        <pt x="861" y="1366" on="0"/>
        <pt x="740" y="1242" on="0"/>
      </contour>
      <contour>
        <pt x="244" y="923" on="1"/>
        <pt x="210" y="1034" on="1"/>
        <pt x="358" y="1116" on="0"/>
        <pt x="652" y="1116" on="0"/>
        <pt x="704" y="1025" on="1"/>
        <pt x="732" y="974" on="0"/>
        <pt x="732" y="827" on="0"/>
        <pt x="714" y="741" on="1"/>
        <pt x="556" y="0" on="1"/>
        <pt x="440" y="0" on="1"/>
        <pt x="447" y="152" on="1"/>
        <pt x="442" y="152" on="1"/>
        <pt x="323" y="-18" on="0"/>
        <pt x="164" y="-18" on="1"/>
        <pt x="44" y="-18" on="0"/>
        <pt x="-5" y="66" on="1"/>
        <pt x="-34" y="116" on="0"/>
        <pt x="-34" y="241" on="0"/>
        <pt x="-21" y="303" on="1"/>
        <pt x="13" y="464" on="0"/>
        <pt x="239" y="643" on="0"/>
        <pt x="417" y="651" on="1"/>
        <pt x="545" y="657" on="1"/>
        <pt x="563" y="743" on="1"/>
        <pt x="578" y="812" on="0"/>
        <pt x="578" y="902" on="0"/>
        <pt x="568" y="930" on="1"/>
        <pt x="544" y="990" on="0"/>
        <pt x="462" y="990" on="1"/>
        <pt x="366" y="990" on="0"/>
      </contour>
      <contour>
        <pt x="126" y="219" on="1"/>
        <pt x="126" y="102" on="0"/>
        <pt x="231" y="102" on="1"/>
        <pt x="323" y="102" on="0"/>
        <pt x="465" y="281" on="0"/>
        <pt x="499" y="440" on="1"/>
        <pt x="521" y="546" on="1"/>
        <pt x="489" y="545" on="0"/>
        <pt x="418" y="541" on="1"/>
        <pt x="299" y="535" on="0"/>
        <pt x="161" y="416" on="0"/>
        <pt x="136" y="301" on="1"/>
        <pt x="126" y="254" on="0"/>
      </contour>
    </TTGlyph>
    <TTGlyph name="b" xMin="-29" yMin="-20" xMax="830" yMax="1556">
      <contour>
        <pt x="327" y="950" on="1"/>
        <pt x="449" y="1114" on="0"/>
        <pt x="754" y="1114" on="0"/>
        <pt x="806" y="970" on="1"/>
        <pt x="830" y="903" on="0"/>
        <pt x="830" y="696" on="0"/>
        <pt x="799" y="549" on="1"/>
        <pt x="741" y="273" on="0"/>
        <pt x="514" y="-20" on="0"/>
        <pt x="206" y="-20" on="0"/>
        <pt x="152" y="142" on="1"/>
        <pt x="141" y="142" on="1"/>
        <pt x="117" y="77" on="0"/>
        <pt x="88" y="0" on="1"/>
        <pt x="-29" y="0" on="1"/>
        <pt x="301" y="1556" on="1"/>
        <pt x="452" y="1556" on="1"/>
        <pt x="355" y="1096" on="1"/>
        <pt x="353" y="1086" on="0"/>
        <pt x="326" y="987" on="0"/>
        <pt x="317" y="950" on="1"/>
      </contour>
      <contour>
        <pt x="674" y="781" on="1"/>
        <pt x="674" y="980" on="0"/>
        <pt x="537" y="980" on="1"/>
        <pt x="428" y="980" on="0"/>
        <pt x="289" y="786" on="0"/>
        <pt x="241" y="559" on="1"/>
        <pt x="235" y="533" on="1"/>
        <pt x="207" y="403" on="0"/>
        <pt x="207" y="313" on="1"/>
        <pt x="207" y="113" on="0"/>
        <pt x="356" y="113" on="1"/>
        <pt x="455" y="113" on="0"/>
        <pt x="597" y="328" on="0"/>
        <pt x="644" y="550" on="1"/>
        <pt x="674" y="688" on="0"/>
      </contour>
    </TTGlyph>
    <TTGlyph name="backslash" xMin="194" yMin="0" xMax="566" yMax="1462">
      <contour>
        <pt x="566" y="0" on="1"/>
        <pt x="413" y="0" on="1"/>
        <pt x="194" y="1462" on="1"/>
        <pt x="343" y="1462" on="1"/>
      </contour>
    </TTGlyph>
    <TTGlyph name="bar" xMin="162" yMin="-485" xMax="728" yMax="1554">
      <contour>
        <pt x="294" y="-485" on="1"/>
        <pt x="162" y="-485" on="1"/>
        <pt x="596" y="1554" on="1"/>
        <pt x="728" y="1554" on="1"/>
      </contour>
    </TTGlyph>
    <TTGlyph name="betdageshhb" xMin="-45" yMin="0" xMax="753" yMax="1310">
      <contour>
        <pt x="230" y="1298" on="1"/>
        <pt x="339" y="1310" on="0"/>
        <pt x="546" y="1310" on="0"/>
        <pt x="666" y="1274" on="0"/>
        <pt x="699" y="1243" on="1"/>
        <pt x="753" y="1192" on="0"/>
        <pt x="753" y="1079" on="1"/>
        <pt x="753" y="1017" on="0"/>
        <pt x="732" y="918" on="1"/>
        <pt x="564" y="127" on="1"/>
        <pt x="666" y="127" on="1"/>
        <pt x="639" y="0" on="1"/>
        <pt x="-45" y="0" on="1"/>
        <pt x="-18" y="127" on="1"/>
        <pt x="412" y="127" on="1"/>
        <pt x="580" y="918" on="1"/>
        <pt x="595" y="989" on="0"/>
        <pt x="595" y="1078" on="0"/>
        <pt x="577" y="1134" on="0"/>
        <pt x="553" y="1150" on="1"/>
        <pt x="510" y="1180" on="0"/>
        <pt x="417" y="1180" on="1"/>
        <pt x="308" y="1180" on="0"/>
        <pt x="230" y="1170" on="1"/>
        <pt x="202" y="1167" on="1"/>
      </contour>
      <contour>
        <pt x="309" y="732" on="1"/>
        <pt x="368" y="732" on="0"/>
        <pt x="368" y="676" on="1"/>
        <pt x="368" y="662" on="0"/>
        <pt x="364" y="645" on="1"/>
        <pt x="346" y="559" on="0"/>
        <pt x="273" y="559" on="1"/>
        <pt x="217" y="559" on="0"/>
        <pt x="217" y="613" on="1"/>
        <pt x="217" y="627" on="0"/>
        <pt x="221" y="645" on="1"/>
        <pt x="239" y="732" on="0"/>
      </contour>
    </TTGlyph>
    <TTGlyph name="braceleft" xMin="68" yMin="-324" xMax="846" yMax="1462">
      <contour>
        <pt x="385" y="486" on="1"/>
        <pt x="408" y="450" on="0"/>
        <pt x="408" y="361" on="0"/>
        <pt x="399" y="320" on="1"/>
        <pt x="337" y="30" on="1"/>
        <pt x="326" y="-22" on="0"/>
        <pt x="326" y="-114" on="0"/>
        <pt x="345" y="-144" on="1"/>
        <pt x="379" y="-199" on="0"/>
        <pt x="493" y="-200" on="1"/>
        <pt x="466" y="-324" on="1"/>
        <pt x="288" y="-320" on="0"/>
        <pt x="218" y="-244" on="1"/>
        <pt x="170" y="-191" on="0"/>
        <pt x="170" y="-103" on="1"/>
        <pt x="170" y="-63" on="0"/>
        <pt x="180" y="-16" on="1"/>
        <pt x="248" y="304" on="1"/>
        <pt x="256" y="344" on="0"/>
        <pt x="256" y="376" on="1"/>
        <pt x="256" y="432" on="0"/>
        <pt x="230" y="462" on="1"/>
        <pt x="190" y="509" on="0"/>
        <pt x="68" y="509" on="1"/>
        <pt x="94" y="629" on="1"/>
        <pt x="214" y="629" on="0"/>
        <pt x="335" y="715" on="0"/>
        <pt x="359" y="829" on="1"/>
        <pt x="429" y="1155" on="1"/>
        <pt x="492" y="1455" on="0"/>
        <pt x="846" y="1462" on="1"/>
        <pt x="819" y="1338" on="1"/>
        <pt x="713" y="1337" on="0"/>
        <pt x="595" y="1238" on="0"/>
        <pt x="572" y="1133" on="1"/>
        <pt x="506" y="821" on="1"/>
        <pt x="481" y="710" on="0"/>
        <pt x="357" y="593" on="0"/>
        <pt x="246" y="573" on="1"/>
        <pt x="244" y="564" on="1"/>
        <pt x="348" y="545" on="0"/>
      </contour>
    </TTGlyph>
    <TTGlyph name="braceright" xMin="-110" yMin="-324" xMax="669" yMax="1462">
      <contour>
        <pt x="567" y="1238" on="1"/>
        <pt x="567" y="1200" on="0"/>
        <pt x="558" y="1155" on="1"/>
        <pt x="488" y="829" on="1"/>
        <pt x="480" y="789" on="0"/>
        <pt x="480" y="758" on="1"/>
        <pt x="480" y="703" on="0"/>
        <pt x="506" y="674" on="1"/>
        <pt x="547" y="629" on="0"/>
        <pt x="669" y="629" on="1"/>
        <pt x="643" y="509" on="1"/>
        <pt x="528" y="509" on="0"/>
        <pt x="402" y="424" on="0"/>
        <pt x="377" y="304" on="1"/>
        <pt x="309" y="-16" on="1"/>
        <pt x="245" y="-316" on="0"/>
        <pt x="-110" y="-324" on="1"/>
        <pt x="-83" y="-200" on="1"/>
        <pt x="25" y="-199" on="0"/>
        <pt x="144" y="-98" on="0"/>
        <pt x="166" y="5" on="1"/>
        <pt x="233" y="319" on="1"/>
        <pt x="256" y="428" on="0"/>
        <pt x="379" y="544" on="0"/>
        <pt x="491" y="564" on="1"/>
        <pt x="493" y="573" on="1"/>
        <pt x="391" y="592" on="0"/>
        <pt x="354" y="651" on="1"/>
        <pt x="331" y="687" on="0"/>
        <pt x="331" y="778" on="0"/>
        <pt x="340" y="821" on="1"/>
        <pt x="406" y="1133" on="1"/>
        <pt x="414" y="1171" on="0"/>
        <pt x="414" y="1255" on="0"/>
        <pt x="390" y="1287" on="1"/>
        <pt x="351" y="1337" on="0"/>
        <pt x="243" y="1338" on="1"/>
        <pt x="270" y="1462" on="1"/>
        <pt x="567" y="1454" on="0"/>
      </contour>
    </TTGlyph>
    <TTGlyph name="bracketleft" xMin="-30" yMin="-324" xMax="771" yMax="1462">
      <contour>
        <pt x="744" y="1336" on="1"/>
        <pt x="468" y="1336" on="1"/>
        <pt x="142" y="-197" on="1"/>
        <pt x="418" y="-197" on="1"/>
        <pt x="391" y="-324" on="1"/>
        <pt x="-30" y="-324" on="1"/>
        <pt x="350" y="1462" on="1"/>
        <pt x="771" y="1462" on="1"/>
      </contour>
    </TTGlyph>
    <TTGlyph name="bracketright" xMin="-125" yMin="-324" xMax="676" yMax="1462">
      <contour>
        <pt x="296" y="-324" on="1"/>
        <pt x="-125" y="-324" on="1"/>
        <pt x="-98" y="-197" on="1"/>
        <pt x="179" y="-197" on="1"/>
        <pt x="505" y="1336" on="1"/>
        <pt x="228" y="1336" on="1"/>
        <pt x="255" y="1462" on="1"/>
        <pt x="676" y="1462" on="1"/>
      </contour>
    </TTGlyph>
    <TTGlyph name="breve" xMin="346" yMin="1243" xMax="848" yMax="1508">
      <contour>
        <pt x="816" y="1382" on="0"/>
        <pt x="654" y="1243" on="0"/>
        <pt x="425" y="1243" on="0"/>
        <pt x="378" y="1310" on="1"/>
        <pt x="346" y="1357" on="0"/>
        <pt x="346" y="1434" on="1"/>
        <pt x="346" y="1468" on="0"/>
        <pt x="352" y="1508" on="1"/>
        <pt x="450" y="1508" on="1"/>
        <pt x="448" y="1491" on="0"/>
        <pt x="448" y="1477" on="1"/>
        <pt x="448" y="1426" on="0"/>
        <pt x="498" y="1366" on="0"/>
        <pt x="636" y="1366" on="0"/>
        <pt x="721" y="1433" on="0"/>
        <pt x="747" y="1508" on="1"/>
        <pt x="848" y="1508" on="1"/>
      </contour>
    </TTGlyph>
    <TTGlyph name="brokenbar" xMin="162" yMin="-485" xMax="728" yMax="1554">
      <contour>
        <pt x="557" y="753" on="1"/>
        <pt x="425" y="753" on="1"/>
        <pt x="596" y="1554" on="1"/>
        <pt x="728" y="1554" on="1"/>
      </contour>
      <contour>
        <pt x="294" y="-485" on="1"/>
        <pt x="162" y="-485" on="1"/>
        <pt x="333" y="317" on="1"/>
        <pt x="465" y="317" on="1"/>
      </contour>
    </TTGlyph>
    <TTGlyph name="bullet" xMin="135" yMin="484" xMax="628" yMax="1011">
      <contour>
        <pt x="173" y="877" on="0"/>
        <pt x="323" y="1011" on="0"/>
        <pt x="552" y="1011" on="0"/>
        <pt x="599" y="944" on="1"/>
        <pt x="628" y="901" on="0"/>
        <pt x="628" y="835" on="1"/>
        <pt x="628" y="796" on="0"/>
        <pt x="618" y="748" on="1"/>
        <pt x="591" y="621" on="0"/>
        <pt x="439" y="484" on="0"/>
        <pt x="212" y="484" on="0"/>
        <pt x="165" y="552" on="1"/>
        <pt x="135" y="596" on="0"/>
        <pt x="135" y="663" on="1"/>
        <pt x="135" y="702" on="0"/>
        <pt x="145" y="748" on="1"/>
      </contour>
    </TTGlyph>
    <TTGlyph name="c" xMin="58" yMin="-20" xMax="748" yMax="1115">
      <contour>
        <pt x="321" y="-20" on="1"/>
        <pt x="58" y="-20" on="0"/>
        <pt x="58" y="298" on="1"/>
        <pt x="58" y="403" on="0"/>
        <pt x="87" y="541" on="1"/>
        <pt x="147" y="825" on="0"/>
        <pt x="386" y="1115" on="0"/>
        <pt x="563" y="1115" on="1"/>
        <pt x="678" y="1115" on="0"/>
        <pt x="748" y="1067" on="1"/>
        <pt x="672" y="943" on="1"/>
        <pt x="608" y="980" on="0"/>
        <pt x="549" y="980" on="1"/>
        <pt x="336" y="980" on="0"/>
        <pt x="243" y="543" on="1"/>
        <pt x="216" y="411" on="0"/>
        <pt x="216" y="260" on="0"/>
        <pt x="228" y="218" on="1"/>
        <pt x="259" y="115" on="0"/>
        <pt x="371" y="115" on="1"/>
        <pt x="445" y="115" on="0"/>
        <pt x="546" y="157" on="1"/>
        <pt x="518" y="26" on="1"/>
        <pt x="419" y="-20" on="0"/>
      </contour>
    </TTGlyph>
    <TTGlyph name="caron" xMin="328" yMin="1241" xMax="883" yMax="1569">
      <contour>
        <pt x="883" y="1569" on="1"/>
        <pt x="878" y="1547" on="1"/>
        <pt x="803" y="1470" on="0"/>
        <pt x="650" y="1292" on="0"/>
        <pt x="615" y="1241" on="1"/>
        <pt x="460" y="1241" on="1"/>
        <pt x="422" y="1373" on="0"/>
        <pt x="328" y="1547" on="1"/>
        <pt x="333" y="1569" on="1"/>
        <pt x="418" y="1569" on="1"/>
        <pt x="465" y="1518" on="0"/>
        <pt x="567" y="1367" on="1"/>
        <pt x="719" y="1514" on="0"/>
        <pt x="797" y="1569" on="1"/>
      </contour>
    </TTGlyph>
    <TTGlyph name="ccedilla" xMin="51" yMin="-492" xMax="799" yMax="1115">
      <contour>
        <pt x="282" y="-8" on="1"/>
        <pt x="108" y="42" on="0"/>
        <pt x="108" y="300" on="1"/>
        <pt x="108" y="404" on="0"/>
        <pt x="137" y="541" on="1"/>
        <pt x="197" y="825" on="0"/>
        <pt x="436" y="1115" on="0"/>
        <pt x="613" y="1115" on="1"/>
        <pt x="727" y="1115" on="0"/>
        <pt x="799" y="1067" on="1"/>
        <pt x="722" y="943" on="1"/>
        <pt x="660" y="980" on="0"/>
        <pt x="599" y="980" on="1"/>
        <pt x="386" y="980" on="0"/>
        <pt x="293" y="543" on="1"/>
        <pt x="266" y="411" on="0"/>
        <pt x="266" y="260" on="0"/>
        <pt x="278" y="218" on="1"/>
        <pt x="309" y="115" on="0"/>
        <pt x="421" y="115" on="1"/>
        <pt x="495" y="115" on="0"/>
        <pt x="596" y="157" on="1"/>
        <pt x="568" y="26" on="1"/>
        <pt x="480" y="-17" on="0"/>
        <pt x="382" y="-20" on="1"/>
        <pt x="327" y="-102" on="1"/>
        <pt x="452" y="-134" on="0"/>
        <pt x="452" y="-237" on="1"/>
        <pt x="452" y="-258" on="0"/>
        <pt x="447" y="-281" on="1"/>
        <pt x="425" y="-383" on="0"/>
        <pt x="271" y="-492" on="0"/>
        <pt x="149" y="-492" on="1"/>
        <pt x="85" y="-492" on="0"/>
        <pt x="51" y="-478" on="1"/>
        <pt x="73" y="-375" on="1"/>
        <pt x="115" y="-388" on="0"/>
        <pt x="162" y="-388" on="1"/>
        <pt x="294" y="-388" on="0"/>
        <pt x="315" y="-285" on="1"/>
        <pt x="318" y="-272" on="0"/>
        <pt x="318" y="-260" on="1"/>
        <pt x="318" y="-182" on="0"/>
        <pt x="179" y="-159" on="1"/>
      </contour>
    </TTGlyph>
    <TTGlyph name="cedilla" xMin="-18" yMin="-492" xMax="383" yMax="0">
      <contour>
        <pt x="258" y="-102" on="1"/>
        <pt x="383" y="-135" on="0"/>
        <pt x="383" y="-238" on="1"/>
        <pt x="383" y="-258" on="0"/>
        <pt x="378" y="-281" on="1"/>
        <pt x="356" y="-383" on="0"/>
        <pt x="202" y="-492" on="0"/>
        <pt x="80" y="-492" on="1"/>
        <pt x="16" y="-492" on="0"/>
        <pt x="-18" y="-478" on="1"/>
        <pt x="4" y="-375" on="1"/>
        <pt x="46" y="-388" on="0"/>
        <pt x="93" y="-388" on="1"/>
        <pt x="223" y="-388" on="0"/>
        <pt x="246" y="-285" on="1"/>
        <pt x="249" y="-272" on="0"/>
        <pt x="249" y="-261" on="1"/>
        <pt x="249" y="-225" on="0"/>
        <pt x="188" y="-172" on="0"/>
        <pt x="109" y="-159" on="1"/>
        <pt x="218" y="0" on="1"/>
        <pt x="325" y="0" on="1"/>
      </contour>
    </TTGlyph>
    <TTGlyph name="cent" xMin="133" yMin="-20" xMax="825" yMax="1481">
      <contour>
        <pt x="825" y="1269" on="1"/>
        <pt x="749" y="1143" on="1"/>
        <pt x="679" y="1179" on="0"/>
        <pt x="625" y="1179" on="1"/>
        <pt x="515" y="1179" on="0"/>
        <pt x="367" y="962" on="0"/>
        <pt x="321" y="745" on="1"/>
        <pt x="294" y="617" on="0"/>
        <pt x="294" y="527" on="1"/>
        <pt x="294" y="317" on="0"/>
        <pt x="441" y="317" on="1"/>
        <pt x="522" y="317" on="0"/>
        <pt x="622" y="362" on="1"/>
        <pt x="593" y="228" on="1"/>
        <pt x="528" y="193" on="0"/>
        <pt x="433" y="182" on="1"/>
        <pt x="390" y="-20" on="1"/>
        <pt x="280" y="-20" on="1"/>
        <pt x="325" y="188" on="1"/>
        <pt x="133" y="229" on="0"/>
        <pt x="133" y="496" on="1"/>
        <pt x="133" y="602" on="0"/>
        <pt x="163" y="742" on="1"/>
        <pt x="271" y="1250" on="0"/>
        <pt x="563" y="1309" on="1"/>
        <pt x="600" y="1481" on="1"/>
        <pt x="710" y="1481" on="1"/>
        <pt x="674" y="1316" on="1"/>
        <pt x="765" y="1307" on="0"/>
      </contour>
    </TTGlyph>
    <TTGlyph name="circumflex" xMin="263" yMin="1241" xMax="818" yMax="1569">
      <contour>
        <pt x="530" y="1569" on="1"/>
        <pt x="685" y="1569" on="1"/>
        <pt x="696" y="1519" on="0"/>
        <pt x="771" y="1345" on="0"/>
        <pt x="818" y="1262" on="1"/>
        <pt x="813" y="1241" on="1"/>
        <pt x="727" y="1241" on="1"/>
        <pt x="693" y="1277" on="0"/>
        <pt x="649" y="1341" on="1"/>
        <pt x="581" y="1442" on="1"/>
        <pt x="420" y="1295" on="0"/>
        <pt x="348" y="1241" on="1"/>
        <pt x="263" y="1241" on="1"/>
        <pt x="268" y="1262" on="1"/>
        <pt x="451" y="1453" on="0"/>
      </contour>
    </TTGlyph>
    <TTGlyph name="colon" xMin="28" yMin="-20" xMax="437" yMax="1103">
      <contour>
        <pt x="351" y="1103" on="1"/>
        <pt x="437" y="1103" on="0"/>
        <pt x="437" y="1022" on="1"/>
        <pt x="437" y="1002" on="0"/>
        <pt x="432" y="978" on="1"/>
        <pt x="419" y="916" on="0"/>
        <pt x="348" y="853" on="0"/>
        <pt x="298" y="853" on="1"/>
        <pt x="214" y="853" on="0"/>
        <pt x="214" y="933" on="1"/>
        <pt x="214" y="953" on="0"/>
        <pt x="219" y="978" on="1"/>
        <pt x="245" y="1103" on="0"/>
      </contour>
      <contour>
        <pt x="166" y="231" on="1"/>
        <pt x="251" y="231" on="0"/>
        <pt x="251" y="151" on="1"/>
        <pt x="251" y="131" on="0"/>
        <pt x="246" y="106" on="1"/>
        <pt x="233" y="43" on="0"/>
        <pt x="163" y="-20" on="0"/>
        <pt x="113" y="-20" on="1"/>
        <pt x="28" y="-20" on="0"/>
        <pt x="28" y="61" on="1"/>
        <pt x="28" y="81" on="0"/>
        <pt x="33" y="106" on="1"/>
        <pt x="61" y="231" on="0"/>
      </contour>
    </TTGlyph>
    <TTGlyph name="comma" xMin="-122" yMin="-264" xMax="254" yMax="216">
      <contour>
        <pt x="245" y="216" on="1"/>
        <pt x="254" y="193" on="1"/>
        <pt x="143" y="-31" on="0"/>
        <pt x="-13" y="-264" on="1"/>
        <pt x="-122" y="-264" on="1"/>
        <pt x="4" y="-9" on="0"/>
        <pt x="80" y="216" on="1"/>
      </contour>
    </TTGlyph>
    <TTGlyph name="copyright" xMin="80" yMin="-20" xMax="1618" yMax="1483">
      <contour>
        <pt x="1009" y="1483" on="1"/>
        <pt x="1214" y="1483" on="0"/>
        <pt x="1518" y="1276" on="0"/>
        <pt x="1581" y="1103" on="1"/>
        <pt x="1618" y="1000" on="0"/>
        <pt x="1618" y="906" on="1"/>
        <pt x="1618" y="655" on="0"/>
        <pt x="1478" y="438" on="1"/>
        <pt x="1298" y="158" on="0"/>
        <pt x="992" y="39" on="1"/>
        <pt x="840" y="-20" on="0"/>
        <pt x="689" y="-20" on="1"/>
        <pt x="581" y="-20" on="0"/>
        <pt x="391" y="38" on="0"/>
        <pt x="251" y="140" on="0"/>
        <pt x="196" y="210" on="1"/>
        <pt x="98" y="338" on="0"/>
        <pt x="82" y="541" on="1"/>
        <pt x="80" y="564" on="0"/>
        <pt x="80" y="658" on="0"/>
        <pt x="97" y="731" on="1"/>
        <pt x="130" y="887" on="0"/>
        <pt x="314" y="1169" on="0"/>
        <pt x="562" y="1367" on="0"/>
        <pt x="862" y="1483" on="0"/>
      </contour>
      <contour>
        <pt x="1224" y="1325" on="1"/>
        <pt x="1115" y="1376" on="0"/>
        <pt x="853" y="1376" on="0"/>
        <pt x="590" y="1271" on="0"/>
        <pt x="382" y="1095" on="0"/>
        <pt x="231" y="858" on="0"/>
        <pt x="204" y="731" on="1"/>
        <pt x="188" y="660" on="0"/>
        <pt x="188" y="533" on="0"/>
        <pt x="202" y="476" on="1"/>
        <pt x="262" y="234" on="0"/>
        <pt x="476" y="136" on="1"/>
        <pt x="584" y="86" on="0"/>
        <pt x="712" y="86" on="1"/>
        <pt x="889" y="86" on="0"/>
        <pt x="1225" y="263" on="0"/>
        <pt x="1457" y="560" on="0"/>
        <pt x="1494" y="731" on="1"/>
        <pt x="1509" y="799" on="0"/>
        <pt x="1509" y="924" on="0"/>
        <pt x="1496" y="982" on="1"/>
        <pt x="1436" y="1225" on="0"/>
      </contour>
      <contour>
        <pt x="782" y="274" on="1"/>
        <pt x="590" y="274" on="0"/>
        <pt x="510" y="392" on="1"/>
        <pt x="460" y="467" on="0"/>
        <pt x="460" y="581" on="1"/>
        <pt x="460" y="647" on="0"/>
        <pt x="477" y="727" on="1"/>
        <pt x="522" y="938" on="0"/>
        <pt x="797" y="1186" on="0"/>
        <pt x="986" y="1186" on="1"/>
        <pt x="1113" y="1186" on="0"/>
        <pt x="1222" y="1127" on="1"/>
        <pt x="1151" y="1018" on="1"/>
        <pt x="1060" y="1067" on="0"/>
        <pt x="964" y="1067" on="1"/>
        <pt x="836" y="1067" on="0"/>
        <pt x="653" y="888" on="0"/>
        <pt x="620" y="732" on="1"/>
        <pt x="604" y="658" on="0"/>
        <pt x="604" y="524" on="0"/>
        <pt x="632" y="476" on="1"/>
        <pt x="679" y="393" on="0"/>
        <pt x="816" y="393" on="1"/>
        <pt x="918" y="393" on="0"/>
        <pt x="1037" y="441" on="1"/>
        <pt x="1012" y="322" on="1"/>
        <pt x="895" y="274" on="0"/>
      </contour>
    </TTGlyph>
    <TTGlyph name="currency" xMin="38" yMin="274" xMax="1090" yMax="1171">
      <contour>
        <pt x="860" y="1038" on="1"/>
        <pt x="913" y="1080" on="0"/>
        <pt x="1021" y="1171" on="1"/>
        <pt x="1090" y="1089" on="1"/>
        <pt x="1036" y="1044" on="0"/>
        <pt x="928" y="956" on="1"/>
        <pt x="965" y="887" on="0"/>
        <pt x="965" y="806" on="1"/>
        <pt x="965" y="766" on="0"/>
        <pt x="956" y="723" on="1"/>
        <pt x="927" y="590" on="0"/>
        <pt x="828" y="489" on="1"/>
        <pt x="918" y="376" on="0"/>
        <pt x="933" y="356" on="1"/>
        <pt x="832" y="274" on="1"/>
        <pt x="726" y="405" on="1"/>
        <pt x="605" y="330" on="0"/>
        <pt x="344" y="330" on="0"/>
        <pt x="261" y="407" on="1"/>
        <pt x="103" y="276" on="1"/>
        <pt x="38" y="360" on="1"/>
        <pt x="197" y="490" on="1"/>
        <pt x="161" y="558" on="0"/>
        <pt x="161" y="639" on="1"/>
        <pt x="161" y="810" on="0"/>
        <pt x="295" y="954" on="1"/>
        <pt x="190" y="1087" on="1"/>
        <pt x="291" y="1171" on="1"/>
        <pt x="396" y="1037" on="1"/>
        <pt x="518" y="1116" on="0"/>
        <pt x="774" y="1116" on="0"/>
      </contour>
      <contour>
        <pt x="803" y="917" on="1"/>
        <pt x="740" y="1001" on="0"/>
        <pt x="510" y="1001" on="0"/>
        <pt x="311" y="840" on="0"/>
        <pt x="286" y="723" on="1"/>
        <pt x="279" y="690" on="0"/>
        <pt x="279" y="660" on="1"/>
        <pt x="279" y="584" on="0"/>
        <pt x="324" y="526" on="1"/>
        <pt x="388" y="446" on="0"/>
        <pt x="619" y="446" on="0"/>
        <pt x="818" y="608" on="0"/>
        <pt x="843" y="723" on="1"/>
        <pt x="849" y="752" on="0"/>
        <pt x="849" y="780" on="1"/>
        <pt x="849" y="855" on="0"/>
      </contour>
    </TTGlyph>
    <TTGlyph name="d" xMin="9" yMin="-20" xMax="966" yMax="1556">
      <contour>
        <pt x="521" y="149" on="1"/>
        <pt x="403" y="-20" on="0"/>
        <pt x="244" y="-20" on="1"/>
        <pt x="9" y="-20" on="0"/>
        <pt x="9" y="289" on="1"/>
        <pt x="9" y="398" on="0"/>
        <pt x="40" y="545" on="1"/>
        <pt x="98" y="819" on="0"/>
        <pt x="325" y="1115" on="0"/>
        <pt x="478" y="1115" on="1"/>
        <pt x="549" y="1115" on="0"/>
        <pt x="660" y="1031" on="0"/>
        <pt x="684" y="955" on="1"/>
        <pt x="695" y="955" on="1"/>
        <pt x="711" y="1059" on="0"/>
        <pt x="720" y="1106" on="1"/>
        <pt x="815" y="1556" on="1"/>
        <pt x="966" y="1556" on="1"/>
        <pt x="636" y="0" on="1"/>
        <pt x="519" y="0" on="1"/>
        <pt x="522" y="46" on="0"/>
        <pt x="530" y="149" on="1"/>
      </contour>
      <contour>
        <pt x="165" y="307" on="1"/>
        <pt x="165" y="109" on="0"/>
        <pt x="301" y="109" on="1"/>
        <pt x="507" y="109" on="0"/>
        <pt x="588" y="491" on="1"/>
        <pt x="599" y="544" on="1"/>
        <pt x="629" y="687" on="0"/>
        <pt x="629" y="781" on="1"/>
        <pt x="629" y="979" on="0"/>
        <pt x="482" y="979" on="1"/>
        <pt x="381" y="979" on="0"/>
        <pt x="242" y="760" on="0"/>
        <pt x="196" y="542" on="1"/>
        <pt x="165" y="402" on="0"/>
      </contour>
    </TTGlyph>
    <TTGlyph name="dagger" xMin="171" yMin="0" xMax="890" yMax="1556">
      <contour>
        <pt x="578" y="1132" on="1"/>
        <pt x="890" y="1154" on="1"/>
        <pt x="861" y="1017" on="1"/>
        <pt x="557" y="1034" on="1"/>
        <pt x="372" y="0" on="1"/>
        <pt x="207" y="0" on="1"/>
        <pt x="460" y="1034" on="1"/>
        <pt x="171" y="1017" on="1"/>
        <pt x="200" y="1154" on="1"/>
        <pt x="481" y="1132" on="1"/>
        <pt x="537" y="1556" on="1"/>
        <pt x="702" y="1556" on="1"/>
      </contour>
    </TTGlyph>
    <TTGlyph name="daggerdbl" xMin="27" yMin="0" xMax="902" yMax="1556">
      <contour>
        <pt x="591" y="1176" on="1"/>
        <pt x="902" y="1198" on="1"/>
        <pt x="873" y="1061" on="1"/>
        <pt x="570" y="1078" on="1"/>
        <pt x="530" y="786" on="1"/>
        <pt x="442" y="479" on="1"/>
        <pt x="753" y="496" on="1"/>
        <pt x="724" y="359" on="1"/>
        <pt x="421" y="380" on="1"/>
        <pt x="375" y="0" on="1"/>
        <pt x="210" y="0" on="1"/>
        <pt x="324" y="380" on="1"/>
        <pt x="27" y="359" on="1"/>
        <pt x="56" y="496" on="1"/>
        <pt x="345" y="479" on="1"/>
        <pt x="388" y="786" on="1"/>
        <pt x="473" y="1078" on="1"/>
        <pt x="176" y="1061" on="1"/>
        <pt x="205" y="1198" on="1"/>
        <pt x="494" y="1176" on="1"/>
        <pt x="540" y="1556" on="1"/>
        <pt x="705" y="1556" on="1"/>
      </contour>
    </TTGlyph>
    <TTGlyph name="daletdageshhb" xMin="130" yMin="0" xMax="843" yMax="1290">
      <contour>
        <pt x="843" y="1290" on="1"/>
        <pt x="818" y="1174" on="1"/>
        <pt x="610" y="1105" on="0"/>
        <pt x="565" y="892" on="1"/>
        <pt x="375" y="0" on="1"/>
        <pt x="224" y="0" on="1"/>
        <pt x="414" y="894" on="1"/>
        <pt x="426" y="952" on="0"/>
        <pt x="476" y="1049" on="0"/>
        <pt x="502" y="1078" on="1"/>
        <pt x="559" y="1138" on="0"/>
        <pt x="594" y="1154" on="1"/>
        <pt x="610" y="1162" on="1"/>
        <pt x="130" y="1162" on="1"/>
        <pt x="157" y="1290" on="1"/>
      </contour>
      <contour>
        <pt x="225" y="732" on="1"/>
        <pt x="284" y="732" on="0"/>
        <pt x="284" y="676" on="1"/>
        <pt x="284" y="662" on="0"/>
        <pt x="280" y="645" on="1"/>
        <pt x="262" y="559" on="0"/>
        <pt x="189" y="559" on="1"/>
        <pt x="133" y="559" on="0"/>
        <pt x="133" y="613" on="1"/>
        <pt x="133" y="627" on="0"/>
        <pt x="137" y="645" on="1"/>
        <pt x="155" y="732" on="0"/>
      </contour>
    </TTGlyph>
    <TTGlyph name="degree" xMin="110" yMin="859" xMax="751" yMax="1483">
      <contour>
        <pt x="255" y="1393" on="1"/>
        <pt x="366" y="1483" on="0"/>
        <pt x="627" y="1483" on="0"/>
        <pt x="699" y="1394" on="1"/>
        <pt x="751" y="1331" on="0"/>
        <pt x="751" y="1243" on="1"/>
        <pt x="751" y="1209" on="0"/>
        <pt x="743" y="1170" on="1"/>
        <pt x="715" y="1035" on="0"/>
        <pt x="604" y="947" on="1"/>
        <pt x="497" y="859" on="0"/>
        <pt x="231" y="859" on="0"/>
        <pt x="159" y="947" on="1"/>
        <pt x="110" y="1009" on="0"/>
        <pt x="110" y="1095" on="1"/>
        <pt x="110" y="1130" on="0"/>
        <pt x="118" y="1170" on="1"/>
        <pt x="146" y="1302" on="0"/>
      </contour>
      <contour>
        <pt x="598" y="1312" on="1"/>
        <pt x="555" y="1370" on="0"/>
        <pt x="390" y="1370" on="0"/>
        <pt x="253" y="1251" on="0"/>
        <pt x="237" y="1170" on="1"/>
        <pt x="232" y="1146" on="0"/>
        <pt x="232" y="1124" on="1"/>
        <pt x="232" y="1070" on="0"/>
        <pt x="264" y="1029" on="1"/>
        <pt x="309" y="972" on="0"/>
        <pt x="468" y="972" on="0"/>
        <pt x="606" y="1086" on="0"/>
        <pt x="624" y="1170" on="1"/>
        <pt x="629" y="1195" on="0"/>
        <pt x="629" y="1217" on="1"/>
        <pt x="629" y="1272" on="0"/>
      </contour>
    </TTGlyph>
    <TTGlyph name="dieresis" xMin="306" yMin="1295" xMax="821" yMax="1490">
      <contour>
        <pt x="349" y="1466" on="1"/>
        <pt x="378" y="1490" on="0"/>
        <pt x="455" y="1490" on="0"/>
        <pt x="473" y="1465" on="1"/>
        <pt x="485" y="1449" on="0"/>
        <pt x="485" y="1410" on="0"/>
        <pt x="481" y="1394" on="1"/>
        <pt x="472" y="1347" on="0"/>
        <pt x="413" y="1295" on="0"/>
        <pt x="337" y="1295" on="0"/>
        <pt x="318" y="1320" on="1"/>
        <pt x="306" y="1337" on="0"/>
        <pt x="306" y="1357" on="1"/>
        <pt x="306" y="1430" on="0"/>
      </contour>
      <contour>
        <pt x="714" y="1490" on="0"/>
        <pt x="790" y="1490" on="0"/>
        <pt x="808" y="1466" on="1"/>
        <pt x="821" y="1450" on="0"/>
        <pt x="821" y="1430" on="1"/>
        <pt x="821" y="1358" on="0"/>
        <pt x="778" y="1320" on="1"/>
        <pt x="749" y="1295" on="0"/>
        <pt x="673" y="1295" on="0"/>
        <pt x="655" y="1321" on="1"/>
        <pt x="643" y="1338" on="0"/>
        <pt x="643" y="1378" on="0"/>
        <pt x="646" y="1394" on="1"/>
        <pt x="656" y="1440" on="0"/>
      </contour>
    </TTGlyph>
    <TTGlyph name="divide" xMin="61" yMin="253" xMax="789" yMax="1190">
      <contour>
        <pt x="525" y="1190" on="1"/>
        <pt x="597" y="1190" on="0"/>
        <pt x="597" y="1118" on="1"/>
        <pt x="597" y="1097" on="0"/>
        <pt x="591" y="1071" on="1"/>
        <pt x="579" y="1012" on="0"/>
        <pt x="516" y="952" on="0"/>
        <pt x="474" y="952" on="1"/>
        <pt x="401" y="952" on="0"/>
        <pt x="401" y="1026" on="1"/>
        <pt x="401" y="1046" on="0"/>
        <pt x="406" y="1071" on="1"/>
        <pt x="432" y="1190" on="0"/>
      </contour>
      <contour>
        <pt x="763" y="660" on="1"/>
        <pt x="61" y="660" on="1"/>
        <pt x="87" y="784" on="1"/>
        <pt x="789" y="784" on="1"/>
      </contour>
      <contour>
        <pt x="376" y="491" on="1"/>
        <pt x="449" y="491" on="0"/>
        <pt x="449" y="419" on="1"/>
        <pt x="449" y="399" on="0"/>
        <pt x="443" y="373" on="1"/>
        <pt x="431" y="314" on="0"/>
        <pt x="367" y="253" on="0"/>
        <pt x="325" y="253" on="1"/>
        <pt x="252" y="253" on="0"/>
        <pt x="252" y="326" on="1"/>
        <pt x="252" y="347" on="0"/>
        <pt x="258" y="373" on="1"/>
        <pt x="283" y="491" on="0"/>
      </contour>
    </TTGlyph>
    <TTGlyph name="dollar" xMin="-29" yMin="-119" xMax="876" yMax="1556">
      <contour>
        <pt x="876" y="1312" on="1"/>
        <pt x="798" y="1184" on="1"/>
        <pt x="691" y="1240" on="0"/>
        <pt x="587" y="1246" on="1"/>
        <pt x="493" y="801" on="1"/>
        <pt x="639" y="734" on="0"/>
        <pt x="692" y="655" on="1"/>
        <pt x="727" y="603" on="0"/>
        <pt x="727" y="529" on="1"/>
        <pt x="727" y="491" on="0"/>
        <pt x="718" y="448" on="1"/>
        <pt x="689" y="313" on="0"/>
        <pt x="490" y="135" on="0"/>
        <pt x="347" y="116" on="1"/>
        <pt x="297" y="-119" on="1"/>
        <pt x="204" y="-119" on="1"/>
        <pt x="253" y="110" on="1"/>
        <pt x="72" y="113" on="0"/>
        <pt x="-29" y="174" on="1"/>
        <pt x="3" y="324" on="1"/>
        <pt x="56" y="288" on="0"/>
        <pt x="206" y="246" on="0"/>
        <pt x="281" y="244" on="1"/>
        <pt x="375" y="687" on="1"/>
        <pt x="356" y="695" on="0"/>
        <pt x="324" y="713" on="1"/>
        <pt x="208" y="778" on="0"/>
        <pt x="173" y="853" on="1"/>
        <pt x="153" y="896" on="0"/>
        <pt x="153" y="996" on="0"/>
        <pt x="164" y="1047" on="1"/>
        <pt x="192" y="1179" on="0"/>
        <pt x="389" y="1359" on="0"/>
        <pt x="522" y="1378" on="1"/>
        <pt x="560" y="1556" on="1"/>
        <pt x="653" y="1556" on="1"/>
        <pt x="616" y="1381" on="1"/>
        <pt x="759" y="1375" on="0"/>
      </contour>
      <contour>
        <pt x="322" y="1124" on="0"/>
        <pt x="307" y="1051" on="1"/>
        <pt x="299" y="1016" on="0"/>
        <pt x="299" y="950" on="0"/>
        <pt x="312" y="924" on="1"/>
        <pt x="336" y="878" on="0"/>
        <pt x="408" y="841" on="1"/>
        <pt x="493" y="1242" on="1"/>
        <pt x="422" y="1227" on="0"/>
      </contour>
      <contour>
        <pt x="505" y="319" on="1"/>
        <pt x="579" y="390" on="0"/>
        <pt x="579" y="502" on="1"/>
        <pt x="579" y="587" on="0"/>
        <pt x="460" y="647" on="1"/>
        <pt x="376" y="252" on="1"/>
        <pt x="452" y="268" on="0"/>
      </contour>
    </TTGlyph>
    <TTGlyph name="dotaccent" xMin="127" yMin="1282" xMax="320" yMax="1503">
      <contour>
        <pt x="249" y="1503" on="1"/>
        <pt x="320" y="1503" on="0"/>
        <pt x="320" y="1430" on="1"/>
        <pt x="320" y="1413" on="0"/>
        <pt x="316" y="1392" on="1"/>
        <pt x="305" y="1340" on="0"/>
        <pt x="245" y="1282" on="0"/>
        <pt x="159" y="1282" on="0"/>
        <pt x="140" y="1311" on="1"/>
        <pt x="127" y="1330" on="0"/>
        <pt x="127" y="1373" on="0"/>
        <pt x="131" y="1392" on="1"/>
        <pt x="142" y="1446" on="0"/>
        <pt x="204" y="1503" on="0"/>
      </contour>
    </TTGlyph>
    <TTGlyph name="dotlessi" xMin="19" yMin="0" xMax="403" yMax="1095">
      <contour>
        <pt x="171" y="0" on="1"/>
        <pt x="19" y="0" on="1"/>
        <pt x="251" y="1095" on="1"/>
        <pt x="403" y="1095" on="1"/>
      </contour>
    </TTGlyph>
    <TTGlyph name="e" xMin="61" yMin="-20" xMax="802" yMax="1115">
      <contour>
        <pt x="355" y="-20" on="1"/>
        <pt x="170" y="-20" on="0"/>
        <pt x="100" y="126" on="1"/>
        <pt x="61" y="208" on="0"/>
        <pt x="61" y="421" on="0"/>
        <pt x="86" y="539" on="1"/>
        <pt x="145" y="817" on="0"/>
        <pt x="391" y="1115" on="0"/>
        <pt x="560" y="1115" on="1"/>
        <pt x="710" y="1115" on="0"/>
        <pt x="769" y="984" on="1"/>
        <pt x="802" y="912" on="0"/>
        <pt x="802" y="730" on="0"/>
        <pt x="781" y="631" on="1"/>
        <pt x="758" y="525" on="1"/>
        <pt x="237" y="525" on="1"/>
        <pt x="216" y="421" on="0"/>
        <pt x="216" y="343" on="1"/>
        <pt x="216" y="111" on="0"/>
        <pt x="399" y="111" on="1"/>
        <pt x="513" y="111" on="0"/>
        <pt x="646" y="182" on="1"/>
        <pt x="618" y="48" on="1"/>
        <pt x="491" y="-20" on="0"/>
      </contour>
      <contour>
        <pt x="634" y="646" on="1"/>
        <pt x="652" y="731" on="0"/>
        <pt x="652" y="853" on="0"/>
        <pt x="640" y="896" on="1"/>
        <pt x="611" y="990" on="0"/>
        <pt x="528" y="990" on="1"/>
        <pt x="355" y="990" on="0"/>
        <pt x="266" y="646" on="1"/>
      </contour>
    </TTGlyph>
    <TTGlyph name="eacute" xMin="13" yMin="-20" xMax="887" yMax="1569">
      <contour>
        <pt x="887" y="1569" on="1"/>
        <pt x="883" y="1550" on="1"/>
        <pt x="842" y="1495" on="0"/>
        <pt x="624" y="1302" on="0"/>
        <pt x="537" y="1241" on="1"/>
        <pt x="444" y="1241" on="1"/>
        <pt x="449" y="1263" on="1"/>
        <pt x="599" y="1418" on="0"/>
        <pt x="699" y="1569" on="1"/>
      </contour>
      <contour>
        <pt x="307" y="-20" on="1"/>
        <pt x="122" y="-20" on="0"/>
        <pt x="52" y="126" on="1"/>
        <pt x="13" y="208" on="0"/>
        <pt x="13" y="421" on="0"/>
        <pt x="38" y="539" on="1"/>
        <pt x="97" y="817" on="0"/>
        <pt x="342" y="1115" on="0"/>
        <pt x="511" y="1115" on="1"/>
        <pt x="661" y="1115" on="0"/>
        <pt x="720" y="984" on="1"/>
        <pt x="753" y="912" on="0"/>
        <pt x="753" y="731" on="0"/>
        <pt x="732" y="631" on="1"/>
        <pt x="710" y="525" on="1"/>
        <pt x="189" y="525" on="1"/>
        <pt x="168" y="421" on="0"/>
        <pt x="168" y="343" on="1"/>
        <pt x="168" y="111" on="0"/>
        <pt x="351" y="111" on="1"/>
        <pt x="465" y="111" on="0"/>
        <pt x="598" y="182" on="1"/>
        <pt x="570" y="48" on="1"/>
        <pt x="443" y="-20" on="0"/>
      </contour>
      <contour>
        <pt x="586" y="646" on="1"/>
        <pt x="604" y="731" on="0"/>
        <pt x="604" y="853" on="0"/>
        <pt x="592" y="896" on="1"/>
        <pt x="563" y="990" on="0"/>
        <pt x="480" y="990" on="1"/>
        <pt x="307" y="990" on="0"/>
        <pt x="218" y="646" on="1"/>
      </contour>
    </TTGlyph>
    <TTGlyph name="ecircumflex" xMin="13" yMin="-20" xMax="816" yMax="1569">
      <contour>
        <pt x="528" y="1569" on="1"/>
        <pt x="683" y="1569" on="1"/>
        <pt x="694" y="1519" on="0"/>
        <pt x="769" y="1345" on="0"/>
        <pt x="816" y="1262" on="1"/>
        <pt x="811" y="1241" on="1"/>
        <pt x="725" y="1241" on="1"/>
        <pt x="691" y="1277" on="0"/>
        <pt x="647" y="1341" on="1"/>
        <pt x="579" y="1442" on="1"/>
        <pt x="418" y="1295" on="0"/>
        <pt x="346" y="1241" on="1"/>
        <pt x="261" y="1241" on="1"/>
        <pt x="266" y="1262" on="1"/>
        <pt x="449" y="1453" on="0"/>
      </contour>
      <contour>
        <pt x="307" y="-20" on="1"/>
        <pt x="122" y="-20" on="0"/>
        <pt x="52" y="126" on="1"/>
        <pt x="13" y="208" on="0"/>
        <pt x="13" y="421" on="0"/>
        <pt x="38" y="539" on="1"/>
        <pt x="97" y="817" on="0"/>
        <pt x="342" y="1115" on="0"/>
        <pt x="511" y="1115" on="1"/>
        <pt x="661" y="1115" on="0"/>
        <pt x="720" y="984" on="1"/>
        <pt x="753" y="912" on="0"/>
        <pt x="753" y="731" on="0"/>
        <pt x="732" y="631" on="1"/>
        <pt x="710" y="525" on="1"/>
        <pt x="189" y="525" on="1"/>
        <pt x="168" y="421" on="0"/>
        <pt x="168" y="343" on="1"/>
        <pt x="168" y="111" on="0"/>
        <pt x="351" y="111" on="1"/>
        <pt x="465" y="111" on="0"/>
        <pt x="598" y="182" on="1"/>
        <pt x="570" y="48" on="1"/>
        <pt x="443" y="-20" on="0"/>
      </contour>
      <contour>
        <pt x="586" y="646" on="1"/>
        <pt x="604" y="731" on="0"/>
        <pt x="604" y="853" on="0"/>
        <pt x="592" y="896" on="1"/>
        <pt x="563" y="990" on="0"/>
        <pt x="480" y="990" on="1"/>
        <pt x="307" y="990" on="0"/>
        <pt x="218" y="646" on="1"/>
      </contour>
    </TTGlyph>
    <TTGlyph name="edieresis" xMin="21" yMin="-20" xMax="834" yMax="1490">
      <contour>
        <pt x="391" y="1490" on="0"/>
        <pt x="467" y="1490" on="0"/>
        <pt x="485" y="1465" on="1"/>
        <pt x="497" y="1448" on="0"/>
        <pt x="497" y="1429" on="1"/>
        <pt x="497" y="1359" on="0"/>
        <pt x="455" y="1321" on="1"/>
        <pt x="426" y="1295" on="0"/>
        <pt x="350" y="1295" on="0"/>
        <pt x="332" y="1320" on="1"/>
        <pt x="319" y="1337" on="0"/>
        <pt x="319" y="1357" on="1"/>
        <pt x="319" y="1430" on="0"/>
        <pt x="362" y="1466" on="1"/>
      </contour>
      <contour>
        <pt x="698" y="1465" on="1"/>
        <pt x="726" y="1490" on="0"/>
        <pt x="803" y="1490" on="0"/>
        <pt x="822" y="1466" on="1"/>
        <pt x="834" y="1450" on="0"/>
        <pt x="834" y="1430" on="1"/>
        <pt x="834" y="1358" on="0"/>
        <pt x="791" y="1320" on="1"/>
        <pt x="762" y="1295" on="0"/>
        <pt x="686" y="1295" on="0"/>
        <pt x="668" y="1321" on="1"/>
        <pt x="655" y="1338" on="0"/>
        <pt x="655" y="1358" on="1"/>
        <pt x="655" y="1428" on="0"/>
      </contour>
      <contour>
        <pt x="316" y="-20" on="1"/>
        <pt x="131" y="-20" on="0"/>
        <pt x="60" y="126" on="1"/>
        <pt x="21" y="208" on="0"/>
        <pt x="21" y="421" on="0"/>
        <pt x="46" y="539" on="1"/>
        <pt x="105" y="817" on="0"/>
        <pt x="351" y="1115" on="0"/>
        <pt x="520" y="1115" on="1"/>
        <pt x="670" y="1115" on="0"/>
        <pt x="729" y="984" on="1"/>
        <pt x="762" y="912" on="0"/>
        <pt x="762" y="730" on="0"/>
        <pt x="741" y="631" on="1"/>
        <pt x="718" y="525" on="1"/>
        <pt x="197" y="525" on="1"/>
        <pt x="176" y="421" on="0"/>
        <pt x="176" y="343" on="1"/>
        <pt x="176" y="111" on="0"/>
        <pt x="359" y="111" on="1"/>
        <pt x="473" y="111" on="0"/>
        <pt x="606" y="182" on="1"/>
        <pt x="578" y="48" on="1"/>
        <pt x="451" y="-20" on="0"/>
      </contour>
      <contour>
        <pt x="594" y="646" on="1"/>
        <pt x="612" y="731" on="0"/>
        <pt x="612" y="853" on="0"/>
        <pt x="600" y="896" on="1"/>
        <pt x="571" y="990" on="0"/>
        <pt x="488" y="990" on="1"/>
        <pt x="315" y="990" on="0"/>
        <pt x="226" y="646" on="1"/>
      </contour>
    </TTGlyph>
    <TTGlyph name="egrave" xMin="13" yMin="-20" xMax="753" yMax="1569">
      <contour>
        <pt x="349" y="1569" on="1"/>
        <pt x="538" y="1569" on="1"/>
        <pt x="552" y="1504" on="0"/>
        <pt x="619" y="1331" on="0"/>
        <pt x="658" y="1264" on="1"/>
        <pt x="653" y="1241" on="1"/>
        <pt x="559" y="1241" on="1"/>
        <pt x="505" y="1295" on="0"/>
        <pt x="433" y="1393" on="1"/>
        <pt x="364" y="1491" on="0"/>
        <pt x="345" y="1551" on="1"/>
      </contour>
      <contour>
        <pt x="307" y="-20" on="1"/>
        <pt x="122" y="-20" on="0"/>
        <pt x="52" y="126" on="1"/>
        <pt x="13" y="208" on="0"/>
        <pt x="13" y="421" on="0"/>
        <pt x="38" y="539" on="1"/>
        <pt x="97" y="817" on="0"/>
        <pt x="342" y="1115" on="0"/>
        <pt x="511" y="1115" on="1"/>
        <pt x="661" y="1115" on="0"/>
        <pt x="720" y="984" on="1"/>
        <pt x="753" y="912" on="0"/>
        <pt x="753" y="731" on="0"/>
        <pt x="732" y="631" on="1"/>
        <pt x="710" y="525" on="1"/>
        <pt x="189" y="525" on="1"/>
        <pt x="168" y="421" on="0"/>
        <pt x="168" y="343" on="1"/>
        <pt x="168" y="111" on="0"/>
        <pt x="351" y="111" on="1"/>
        <pt x="465" y="111" on="0"/>
        <pt x="598" y="182" on="1"/>
        <pt x="570" y="48" on="1"/>
        <pt x="443" y="-20" on="0"/>
      </contour>
      <contour>
        <pt x="586" y="646" on="1"/>
        <pt x="604" y="731" on="0"/>
        <pt x="604" y="853" on="0"/>
        <pt x="592" y="896" on="1"/>
        <pt x="563" y="990" on="0"/>
        <pt x="480" y="990" on="1"/>
        <pt x="307" y="990" on="0"/>
        <pt x="218" y="646" on="1"/>
      </contour>
    </TTGlyph>
    <TTGlyph name="eight" xMin="-19" yMin="-20" xMax="860" yMax="1482">
      <contour>
        <pt x="222" y="1290" on="0"/>
        <pt x="448" y="1482" on="0"/>
        <pt x="742" y="1482" on="0"/>
        <pt x="812" y="1389" on="1"/>
        <pt x="860" y="1326" on="0"/>
        <pt x="860" y="1233" on="1"/>
        <pt x="860" y="1189" on="0"/>
        <pt x="849" y="1138" on="1"/>
        <pt x="799" y="907" on="0"/>
        <pt x="539" y="765" on="1"/>
        <pt x="659" y="670" on="0"/>
        <pt x="700" y="580" on="1"/>
        <pt x="724" y="525" on="0"/>
        <pt x="724" y="415" on="0"/>
        <pt x="714" y="367" on="1"/>
        <pt x="678" y="197" on="0"/>
        <pt x="436" y="-20" on="0"/>
        <pt x="111" y="-20" on="0"/>
        <pt x="34" y="82" on="1"/>
        <pt x="-19" y="152" on="0"/>
        <pt x="-19" y="254" on="1"/>
        <pt x="-19" y="302" on="0"/>
        <pt x="-8" y="356" on="1"/>
        <pt x="20" y="487" on="0"/>
        <pt x="172" y="680" on="0"/>
        <pt x="315" y="762" on="1"/>
        <pt x="179" y="885" on="0"/>
        <pt x="179" y="1045" on="1"/>
        <pt x="179" y="1089" on="0"/>
        <pt x="189" y="1135" on="1"/>
      </contour>
      <contour>
        <pt x="682" y="1294" on="1"/>
        <pt x="647" y="1352" on="0"/>
        <pt x="480" y="1352" on="0"/>
        <pt x="363" y="1235" on="0"/>
        <pt x="341" y="1129" on="1"/>
        <pt x="332" y="1086" on="0"/>
        <pt x="332" y="1005" on="0"/>
        <pt x="346" y="968" on="1"/>
        <pt x="370" y="903" on="0"/>
        <pt x="453" y="834" on="1"/>
        <pt x="559" y="894" on="0"/>
        <pt x="673" y="1037" on="0"/>
        <pt x="693" y="1129" on="1"/>
        <pt x="702" y="1172" on="0"/>
        <pt x="702" y="1259" on="0"/>
      </contour>
      <contour>
        <pt x="137" y="283" on="1"/>
        <pt x="137" y="221" on="0"/>
        <pt x="164" y="178" on="1"/>
        <pt x="206" y="110" on="0"/>
        <pt x="395" y="110" on="0"/>
        <pt x="535" y="252" on="0"/>
        <pt x="561" y="372" on="1"/>
        <pt x="567" y="402" on="0"/>
        <pt x="567" y="431" on="1"/>
        <pt x="567" y="562" on="0"/>
        <pt x="439" y="669" on="1"/>
        <pt x="407" y="696" on="1"/>
        <pt x="290" y="629" on="0"/>
        <pt x="171" y="476" on="0"/>
        <pt x="146" y="360" on="1"/>
        <pt x="137" y="319" on="0"/>
      </contour>
    </TTGlyph>
    <TTGlyph name="ellipsis" xMin="21" yMin="-20" xMax="1175" yMax="231">
      <contour>
        <pt x="159" y="231" on="1"/>
        <pt x="244" y="231" on="0"/>
        <pt x="244" y="151" on="1"/>
        <pt x="244" y="131" on="0"/>
        <pt x="239" y="106" on="1"/>
        <pt x="226" y="43" on="0"/>
        <pt x="155" y="-20" on="0"/>
        <pt x="105" y="-20" on="1"/>
        <pt x="21" y="-20" on="0"/>
        <pt x="21" y="61" on="1"/>
        <pt x="21" y="81" on="0"/>
        <pt x="26" y="106" on="1"/>
        <pt x="52" y="231" on="0"/>
      </contour>
      <contour>
        <pt x="625" y="231" on="1"/>
        <pt x="675" y="231" on="0"/>
        <pt x="697" y="200" on="1"/>
        <pt x="710" y="181" on="0"/>
        <pt x="710" y="130" on="0"/>
        <pt x="705" y="106" on="1"/>
        <pt x="692" y="44" on="0"/>
        <pt x="620" y="-20" on="0"/>
        <pt x="571" y="-20" on="1"/>
        <pt x="486" y="-20" on="0"/>
        <pt x="486" y="61" on="1"/>
        <pt x="486" y="81" on="0"/>
        <pt x="491" y="106" on="1"/>
        <pt x="517" y="231" on="0"/>
      </contour>
      <contour>
        <pt x="1090" y="231" on="1"/>
        <pt x="1175" y="231" on="0"/>
        <pt x="1175" y="151" on="1"/>
        <pt x="1175" y="131" on="0"/>
        <pt x="1170" y="106" on="1"/>
        <pt x="1157" y="44" on="0"/>
        <pt x="1085" y="-20" on="0"/>
        <pt x="1036" y="-20" on="1"/>
        <pt x="951" y="-20" on="0"/>
        <pt x="951" y="61" on="1"/>
        <pt x="951" y="81" on="0"/>
        <pt x="956" y="106" on="1"/>
        <pt x="982" y="231" on="0"/>
      </contour>
    </TTGlyph>
    <TTGlyph name="emdash" xMin="65" yMin="489" xMax="1828" yMax="615">
      <contour>
        <pt x="1802" y="489" on="1"/>
        <pt x="65" y="489" on="1"/>
        <pt x="91" y="615" on="1"/>
        <pt x="1828" y="615" on="1"/>
      </contour>
    </TTGlyph>
    <TTGlyph name="endash" xMin="65" yMin="489" xMax="942" yMax="615">
      <contour>
        <pt x="916" y="489" on="1"/>
        <pt x="65" y="489" on="1"/>
        <pt x="91" y="615" on="1"/>
        <pt x="942" y="615" on="1"/>
      </contour>
    </TTGlyph>
    <TTGlyph name="equal" xMin="18" yMin="451" xMax="834" yMax="991">
      <contour>
        <pt x="808" y="869" on="1"/>
        <pt x="106" y="869" on="1"/>
        <pt x="132" y="991" on="1"/>
        <pt x="834" y="991" on="1"/>
      </contour>
      <contour>
        <pt x="720" y="451" on="1"/>
        <pt x="18" y="451" on="1"/>
        <pt x="44" y="574" on="1"/>
        <pt x="746" y="574" on="1"/>
      </contour>
    </TTGlyph>
    <TTGlyph name="eth" xMin="6" yMin="-20" xMax="864" yMax="1560">
      <contour>
        <pt x="379" y="1467" on="1"/>
        <pt x="450" y="1548" on="0"/>
        <pt x="461" y="1560" on="1"/>
        <pt x="545" y="1507" on="0"/>
        <pt x="607" y="1438" on="1"/>
        <pt x="760" y="1521" on="0"/>
        <pt x="826" y="1558" on="1"/>
        <pt x="864" y="1467" on="1"/>
        <pt x="670" y="1361" on="1"/>
        <pt x="807" y="1160" on="0"/>
        <pt x="807" y="867" on="1"/>
        <pt x="807" y="713" on="0"/>
        <pt x="769" y="532" on="1"/>
        <pt x="712" y="262" on="0"/>
        <pt x="462" y="-20" on="0"/>
        <pt x="281" y="-20" on="1"/>
        <pt x="172" y="-20" on="0"/>
        <pt x="102" y="43" on="1"/>
        <pt x="6" y="130" on="0"/>
        <pt x="6" y="308" on="1"/>
        <pt x="6" y="384" on="0"/>
        <pt x="24" y="473" on="1"/>
        <pt x="74" y="709" on="0"/>
        <pt x="304" y="966" on="0"/>
        <pt x="465" y="966" on="1"/>
        <pt x="606" y="966" on="0"/>
        <pt x="659" y="845" on="1"/>
        <pt x="665" y="845" on="0"/>
        <pt x="668" y="846" on="1"/>
        <pt x="668" y="854" on="0"/>
        <pt x="668" y="861" on="1"/>
        <pt x="668" y="1104" on="0"/>
        <pt x="544" y="1292" on="1"/>
        <pt x="329" y="1176" on="1"/>
        <pt x="292" y="1268" on="1"/>
        <pt x="484" y="1371" on="1"/>
        <pt x="439" y="1420" on="0"/>
      </contour>
      <contour>
        <pt x="471" y="836" on="1"/>
        <pt x="254" y="836" on="0"/>
        <pt x="177" y="468" on="1"/>
        <pt x="160" y="387" on="0"/>
        <pt x="160" y="256" on="0"/>
        <pt x="178" y="208" on="1"/>
        <pt x="214" y="112" on="0"/>
        <pt x="424" y="112" on="0"/>
        <pt x="566" y="302" on="0"/>
        <pt x="608" y="498" on="1"/>
        <pt x="623" y="566" on="0"/>
        <pt x="623" y="690" on="0"/>
        <pt x="602" y="742" on="1"/>
        <pt x="563" y="836" on="0"/>
      </contour>
    </TTGlyph>
    <TTGlyph name="exclam" xMin="-1" yMin="-20" xMax="495" yMax="1462">
      <contour>
        <pt x="229" y="401" on="1"/>
        <pt x="119" y="401" on="1"/>
        <pt x="306" y="1462" on="1"/>
        <pt x="495" y="1462" on="1"/>
      </contour>
      <contour>
        <pt x="138" y="231" on="1"/>
        <pt x="223" y="231" on="0"/>
        <pt x="223" y="151" on="1"/>
        <pt x="223" y="131" on="0"/>
        <pt x="218" y="106" on="1"/>
        <pt x="205" y="44" on="0"/>
        <pt x="133" y="-20" on="0"/>
        <pt x="84" y="-20" on="1"/>
        <pt x="-1" y="-20" on="0"/>
        <pt x="-1" y="61" on="1"/>
        <pt x="-1" y="81" on="0"/>
        <pt x="4" y="106" on="1"/>
        <pt x="30" y="231" on="0"/>
      </contour>
    </TTGlyph>
    <TTGlyph name="exclamdown" xMin="-12" yMin="-383" xMax="484" yMax="1097">
      <contour>
        <pt x="279" y="1033" on="0"/>
        <pt x="347" y="1097" on="0"/>
        <pt x="448" y="1097" on="0"/>
        <pt x="470" y="1066" on="1"/>
        <pt x="484" y="1046" on="0"/>
        <pt x="484" y="995" on="0"/>
        <pt x="479" y="972" on="1"/>
        <pt x="452" y="846" on="0"/>
        <pt x="345" y="846" on="1"/>
        <pt x="261" y="846" on="0"/>
        <pt x="261" y="926" on="1"/>
        <pt x="261" y="946" on="0"/>
        <pt x="266" y="972" on="1"/>
      </contour>
      <contour>
        <pt x="179" y="-383" on="1"/>
        <pt x="-12" y="-383" on="1"/>
        <pt x="254" y="677" on="1"/>
        <pt x="363" y="677" on="1"/>
      </contour>
    </TTGlyph>
    <TTGlyph name="f" xMin="-9" yMin="0" xMax="723" yMax="1567">
      <contour>
        <pt x="578" y="1567" on="1"/>
        <pt x="659" y="1567" on="0"/>
        <pt x="723" y="1535" on="1"/>
        <pt x="651" y="1409" on="1"/>
        <pt x="605" y="1434" on="0"/>
        <pt x="558" y="1434" on="1"/>
        <pt x="495" y="1432" on="0"/>
        <pt x="422" y="1322" on="0"/>
        <pt x="393" y="1182" on="1"/>
        <pt x="374" y="1094" on="1"/>
        <pt x="549" y="1094" on="1"/>
        <pt x="522" y="968" on="1"/>
        <pt x="347" y="968" on="1"/>
        <pt x="141" y="0" on="1"/>
        <pt x="-9" y="0" on="1"/>
        <pt x="197" y="968" on="1"/>
        <pt x="61" y="968" on="1"/>
        <pt x="78" y="1048" on="1"/>
        <pt x="104" y="1058" on="0"/>
        <pt x="226" y="1102" on="1"/>
        <pt x="243" y="1185" on="1"/>
        <pt x="286" y="1384" on="0"/>
        <pt x="443" y="1567" on="0"/>
      </contour>
    </TTGlyph>
    <TTGlyph name="finalkafdageshhb" xMin="153" yMin="-492" xMax="652" yMax="1310">
      <contour>
        <pt x="465" y="1310" on="0"/>
        <pt x="580" y="1249" on="0"/>
        <pt x="638" y="1146" on="0"/>
        <pt x="652" y="1029" on="0"/>
        <pt x="652" y="989" on="1"/>
        <pt x="652" y="879" on="0"/>
        <pt x="619" y="726" on="1"/>
        <pt x="360" y="-492" on="1"/>
        <pt x="207" y="-492" on="1"/>
        <pt x="466" y="726" on="1"/>
        <pt x="495" y="863" on="0"/>
        <pt x="495" y="959" on="1"/>
        <pt x="495" y="1174" on="0"/>
        <pt x="345" y="1174" on="1"/>
        <pt x="254" y="1174" on="0"/>
        <pt x="153" y="1134" on="1"/>
        <pt x="183" y="1276" on="1"/>
        <pt x="187" y="1277" on="0"/>
        <pt x="233" y="1290" on="0"/>
        <pt x="255" y="1295" on="1"/>
        <pt x="321" y="1310" on="0"/>
      </contour>
      <contour>
        <pt x="255" y="732" on="1"/>
        <pt x="314" y="732" on="0"/>
        <pt x="314" y="676" on="1"/>
        <pt x="314" y="662" on="0"/>
        <pt x="310" y="645" on="1"/>
        <pt x="292" y="559" on="0"/>
        <pt x="219" y="559" on="1"/>
        <pt x="163" y="559" on="0"/>
        <pt x="163" y="613" on="1"/>
        <pt x="163" y="627" on="0"/>
        <pt x="167" y="645" on="1"/>
        <pt x="185" y="732" on="0"/>
      </contour>
    </TTGlyph>
    <TTGlyph name="finalpedageshhb" xMin="113" yMin="-492" xMax="856" yMax="1310">
      <contour>
        <pt x="373" y="436" on="1"/>
        <pt x="220" y="436" on="0"/>
        <pt x="154" y="541" on="1"/>
        <pt x="113" y="605" on="0"/>
        <pt x="113" y="707" on="1"/>
        <pt x="113" y="774" on="0"/>
        <pt x="130" y="857" on="1"/>
        <pt x="174" y="1062" on="0"/>
        <pt x="429" y="1310" on="0"/>
        <pt x="586" y="1310" on="1"/>
        <pt x="712" y="1310" on="0"/>
        <pt x="783" y="1219" on="1"/>
        <pt x="856" y="1125" on="0"/>
        <pt x="856" y="944" on="1"/>
        <pt x="856" y="812" on="0"/>
        <pt x="820" y="645" on="1"/>
        <pt x="578" y="-492" on="1"/>
        <pt x="426" y="-492" on="1"/>
        <pt x="668" y="645" on="1"/>
        <pt x="707" y="826" on="0"/>
        <pt x="707" y="1026" on="0"/>
        <pt x="689" y="1077" on="1"/>
        <pt x="654" y="1178" on="0"/>
        <pt x="557" y="1178" on="1"/>
        <pt x="501" y="1178" on="0"/>
        <pt x="400" y="1111" on="0"/>
        <pt x="366" y="1060" on="1"/>
        <pt x="302" y="960" on="0"/>
        <pt x="265" y="788" on="0"/>
        <pt x="265" y="733" on="1"/>
        <pt x="265" y="565" on="0"/>
        <pt x="407" y="557" on="1"/>
        <pt x="413" y="557" on="0"/>
        <pt x="429" y="555" on="1"/>
        <pt x="376" y="436" on="1"/>
        <pt x="375" y="436" on="0"/>
      </contour>
      <contour>
        <pt x="543" y="960" on="1"/>
        <pt x="602" y="960" on="0"/>
        <pt x="602" y="904" on="1"/>
        <pt x="602" y="890" on="0"/>
        <pt x="598" y="873" on="1"/>
        <pt x="580" y="787" on="0"/>
        <pt x="507" y="787" on="1"/>
        <pt x="451" y="787" on="0"/>
        <pt x="451" y="841" on="1"/>
        <pt x="451" y="855" on="0"/>
        <pt x="455" y="873" on="1"/>
        <pt x="473" y="960" on="0"/>
      </contour>
    </TTGlyph>
    <TTGlyph name="five" xMin="-50" yMin="-20" xMax="850" yMax="1462">
      <contour>
        <pt x="-16" y="198" on="1"/>
        <pt x="73" y="125" on="0"/>
        <pt x="184" y="125" on="1"/>
        <pt x="318" y="125" on="0"/>
        <pt x="526" y="303" on="0"/>
        <pt x="558" y="462" on="1"/>
        <pt x="570" y="520" on="0"/>
        <pt x="570" y="639" on="0"/>
        <pt x="542" y="684" on="1"/>
        <pt x="495" y="758" on="0"/>
        <pt x="377" y="758" on="1"/>
        <pt x="286" y="758" on="0"/>
        <pt x="173" y="727" on="1"/>
        <pt x="125" y="791" on="1"/>
        <pt x="312" y="1462" on="1"/>
        <pt x="850" y="1462" on="1"/>
        <pt x="819" y="1319" on="1"/>
        <pt x="412" y="1319" on="1"/>
        <pt x="286" y="870" on="1"/>
        <pt x="368" y="888" on="0"/>
        <pt x="536" y="887" on="0"/>
        <pt x="660" y="822" on="0"/>
        <pt x="690" y="766" on="1"/>
        <pt x="732" y="690" on="0"/>
        <pt x="732" y="588" on="1"/>
        <pt x="732" y="533" on="0"/>
        <pt x="696" y="374" on="0"/>
        <pt x="612" y="204" on="0"/>
        <pt x="487" y="64" on="0"/>
        <pt x="309" y="-18" on="0"/>
        <pt x="203" y="-20" on="1"/>
        <pt x="36" y="-20" on="0"/>
        <pt x="-50" y="41" on="1"/>
      </contour>
    </TTGlyph>
    <TTGlyph name="florin" xMin="-137" yMin="-492" xMax="986" yMax="1483">
      <contour>
        <pt x="808" y="1483" on="1"/>
        <pt x="902" y="1483" on="0"/>
        <pt x="986" y="1442" on="1"/>
        <pt x="909" y="1316" on="1"/>
        <pt x="850" y="1347" on="0"/>
        <pt x="727" y="1347" on="0"/>
        <pt x="651" y="1239" on="0"/>
        <pt x="622" y="1108" on="1"/>
        <pt x="591" y="963" on="1"/>
        <pt x="790" y="963" on="1"/>
        <pt x="763" y="836" on="1"/>
        <pt x="564" y="836" on="1"/>
        <pt x="534" y="696" on="0"/>
        <pt x="398" y="57" on="0"/>
        <pt x="359" y="-124" on="1"/>
        <pt x="280" y="-492" on="0"/>
        <pt x="1" y="-492" on="1"/>
        <pt x="-72" y="-492" on="0"/>
        <pt x="-137" y="-475" on="1"/>
        <pt x="-108" y="-339" on="1"/>
        <pt x="-45" y="-357" on="0"/>
        <pt x="8" y="-357" on="1"/>
        <pt x="86" y="-357" on="0"/>
        <pt x="178" y="-245" on="0"/>
        <pt x="203" y="-126" on="1"/>
        <pt x="407" y="836" on="1"/>
        <pt x="245" y="836" on="1"/>
        <pt x="262" y="916" on="1"/>
        <pt x="435" y="968" on="1"/>
        <pt x="459" y="1080" on="1"/>
        <pt x="504" y="1289" on="0"/>
        <pt x="664" y="1483" on="0"/>
      </contour>
    </TTGlyph>
    <TTGlyph name="four" xMin="-51" yMin="0" xMax="837" yMax="1473">
      <contour>
        <pt x="621" y="458" on="1"/>
        <pt x="775" y="458" on="1"/>
        <pt x="746" y="323" on="1"/>
        <pt x="592" y="323" on="1"/>
        <pt x="523" y="0" on="1"/>
        <pt x="375" y="0" on="1"/>
        <pt x="444" y="323" on="1"/>
        <pt x="-51" y="323" on="1"/>
        <pt x="-23" y="452" on="1"/>
        <pt x="660" y="1473" on="1"/>
        <pt x="837" y="1473" on="1"/>
      </contour>
      <contour>
        <pt x="657" y="1280" on="1"/>
        <pt x="650" y="1280" on="1"/>
        <pt x="597" y="1188" on="0"/>
        <pt x="480" y="1004" on="1"/>
        <pt x="120" y="458" on="1"/>
        <pt x="473" y="458" on="1"/>
        <pt x="575" y="938" on="1"/>
        <pt x="615" y="1129" on="0"/>
      </contour>
    </TTGlyph>
    <TTGlyph name="fraction" xMin="-477" yMin="0" xMax="721" yMax="1462">
      <contour>
        <pt x="-348" y="0" on="1"/>
        <pt x="-477" y="0" on="1"/>
        <pt x="592" y="1462" on="1"/>
        <pt x="721" y="1462" on="1"/>
      </contour>
    </TTGlyph>
    <TTGlyph name="g" xMin="-88" yMin="-492" xMax="945" yMax="1115">
      <contour>
        <pt x="777" y="976" on="1"/>
        <pt x="799" y="932" on="0"/>
        <pt x="799" y="800" on="0"/>
        <pt x="787" y="743" on="1"/>
        <pt x="752" y="579" on="0"/>
        <pt x="546" y="382" on="0"/>
        <pt x="415" y="382" on="1"/>
        <pt x="407" y="382" on="1"/>
        <pt x="377" y="382" on="0"/>
        <pt x="362" y="386" on="1"/>
        <pt x="312" y="354" on="0"/>
        <pt x="284" y="324" on="1"/>
        <pt x="246" y="284" on="0"/>
        <pt x="246" y="239" on="1"/>
        <pt x="246" y="211" on="0"/>
        <pt x="297" y="170" on="0"/>
        <pt x="358" y="170" on="1"/>
        <pt x="457" y="170" on="1"/>
        <pt x="602" y="170" on="0"/>
        <pt x="663" y="93" on="1"/>
        <pt x="703" y="42" on="0"/>
        <pt x="703" y="-40" on="1"/>
        <pt x="703" y="-82" on="0"/>
        <pt x="693" y="-132" on="1"/>
        <pt x="657" y="-299" on="0"/>
        <pt x="385" y="-492" on="0"/>
        <pt x="189" y="-492" on="1"/>
        <pt x="29" y="-492" on="0"/>
        <pt x="-40" y="-416" on="1"/>
        <pt x="-88" y="-362" on="0"/>
        <pt x="-88" y="-277" on="1"/>
        <pt x="-88" y="-239" on="0"/>
        <pt x="-79" y="-196" on="1"/>
        <pt x="-36" y="7" on="0"/>
        <pt x="196" y="85" on="1"/>
        <pt x="149" y="107" on="0"/>
        <pt x="126" y="148" on="1"/>
        <pt x="112" y="174" on="0"/>
        <pt x="112" y="198" on="1"/>
        <pt x="112" y="274" on="0"/>
        <pt x="162" y="327" on="1"/>
        <pt x="198" y="365" on="0"/>
        <pt x="275" y="416" on="1"/>
        <pt x="205" y="454" on="0"/>
        <pt x="181" y="540" on="1"/>
        <pt x="169" y="583" on="0"/>
        <pt x="169" y="682" on="0"/>
        <pt x="182" y="739" on="1"/>
        <pt x="220" y="916" on="0"/>
        <pt x="423" y="1115" on="0"/>
        <pt x="567" y="1115" on="1"/>
        <pt x="627" y="1115" on="0"/>
        <pt x="683" y="1093" on="1"/>
        <pt x="696" y="1094" on="0"/>
        <pt x="827" y="1094" on="0"/>
        <pt x="945" y="1093" on="1"/>
        <pt x="925" y="997" on="1"/>
      </contour>
      <contour>
        <pt x="653" y="858" on="1"/>
        <pt x="653" y="1004" on="0"/>
        <pt x="541" y="1004" on="1"/>
        <pt x="466" y="1004" on="0"/>
        <pt x="356" y="866" on="0"/>
        <pt x="328" y="737" on="1"/>
        <pt x="316" y="680" on="0"/>
        <pt x="316" y="587" on="0"/>
        <pt x="331" y="554" on="1"/>
        <pt x="359" y="491" on="0"/>
        <pt x="433" y="491" on="1"/>
        <pt x="585" y="491" on="0"/>
        <pt x="639" y="744" on="1"/>
        <pt x="653" y="808" on="0"/>
      </contour>
      <contour>
        <pt x="393" y="31" on="1"/>
        <pt x="317" y="31" on="1"/>
        <pt x="220" y="31" on="0"/>
        <pt x="88" y="-84" on="0"/>
        <pt x="67" y="-184" on="1"/>
        <pt x="60" y="-215" on="0"/>
        <pt x="60" y="-241" on="1"/>
        <pt x="60" y="-292" on="0"/>
        <pt x="86" y="-326" on="1"/>
        <pt x="126" y="-376" on="0"/>
        <pt x="223" y="-376" on="1"/>
        <pt x="352" y="-376" on="0"/>
        <pt x="523" y="-252" on="0"/>
        <pt x="546" y="-143" on="1"/>
        <pt x="552" y="-115" on="0"/>
        <pt x="552" y="-91" on="1"/>
        <pt x="552" y="31" on="0"/>
      </contour>
    </TTGlyph>
    <TTGlyph name="gereshhb" xMin="76" yMin="810" xMax="451" yMax="1290">
      <contour>
        <pt x="442" y="1290" on="1"/>
        <pt x="451" y="1268" on="1"/>
        <pt x="348" y="1058" on="0"/>
        <pt x="185" y="810" on="1"/>
        <pt x="76" y="810" on="1"/>
        <pt x="200" y="1062" on="0"/>
        <pt x="278" y="1290" on="1"/>
      </contour>
    </TTGlyph>
    <TTGlyph name="germandbls" xMin="-30" yMin="-20" xMax="875" yMax="1567">
      <contour>
        <pt x="276" y="1386" on="0"/>
        <pt x="485" y="1567" on="0"/>
        <pt x="771" y="1567" on="0"/>
        <pt x="833" y="1490" on="1"/>
        <pt x="875" y="1437" on="0"/>
        <pt x="875" y="1356" on="1"/>
        <pt x="875" y="1319" on="0"/>
        <pt x="866" y="1275" on="1"/>
        <pt x="837" y="1144" on="0"/>
        <pt x="717" y="1028" on="1"/>
        <pt x="706" y="1019" on="1"/>
        <pt x="648" y="962" on="0"/>
        <pt x="591" y="886" on="0"/>
        <pt x="578" y="830" on="0"/>
        <pt x="578" y="788" on="0"/>
        <pt x="593" y="732" on="0"/>
        <pt x="640" y="662" on="1"/>
        <pt x="678" y="616" on="1"/>
        <pt x="766" y="505" on="0"/>
        <pt x="766" y="396" on="1"/>
        <pt x="766" y="356" on="0"/>
        <pt x="756" y="310" on="1"/>
        <pt x="723" y="155" on="0"/>
        <pt x="526" y="-20" on="0"/>
        <pt x="260" y="-20" on="0"/>
        <pt x="204" y="33" on="1"/>
        <pt x="234" y="174" on="1"/>
        <pt x="310" y="110" on="0"/>
        <pt x="475" y="110" on="0"/>
        <pt x="580" y="209" on="0"/>
        <pt x="599" y="299" on="1"/>
        <pt x="607" y="328" on="0"/>
        <pt x="607" y="383" on="0"/>
        <pt x="599" y="410" on="1"/>
        <pt x="583" y="464" on="0"/>
        <pt x="455" y="634" on="0"/>
        <pt x="436" y="700" on="1"/>
        <pt x="425" y="736" on="0"/>
        <pt x="425" y="807" on="0"/>
        <pt x="432" y="841" on="1"/>
        <pt x="456" y="954" on="0"/>
        <pt x="590" y="1065" on="1"/>
        <pt x="643" y="1121" on="0"/>
        <pt x="670" y="1166" on="1"/>
        <pt x="716" y="1240" on="0"/>
        <pt x="716" y="1323" on="1"/>
        <pt x="716" y="1433" on="0"/>
        <pt x="597" y="1433" on="1"/>
        <pt x="513" y="1433" on="0"/>
        <pt x="399" y="1309" on="0"/>
        <pt x="374" y="1190" on="1"/>
        <pt x="121" y="0" on="1"/>
        <pt x="-30" y="0" on="1"/>
        <pt x="207" y="1119" on="1"/>
        <pt x="223" y="1189" on="0"/>
        <pt x="232" y="1222" on="1"/>
      </contour>
    </TTGlyph>
    <TTGlyph name="gershayimhb" xMin="84" yMin="810" xMax="793" yMax="1290">
      <contour>
        <pt x="451" y="1290" on="1"/>
        <pt x="460" y="1268" on="1"/>
        <pt x="357" y="1059" on="0"/>
        <pt x="194" y="810" on="1"/>
        <pt x="84" y="810" on="1"/>
        <pt x="208" y="1063" on="0"/>
        <pt x="287" y="1290" on="1"/>
      </contour>
      <contour>
        <pt x="784" y="1290" on="1"/>
        <pt x="793" y="1268" on="1"/>
        <pt x="688" y="1057" on="0"/>
        <pt x="526" y="810" on="1"/>
        <pt x="418" y="810" on="1"/>
        <pt x="541" y="1059" on="0"/>
        <pt x="620" y="1290" on="1"/>
      </contour>
    </TTGlyph>
    <TTGlyph name="gimeldageshhb" xMin="-49" yMin="-9" xMax="656" yMax="1310">
      <contour>
        <pt x="500" y="1080" on="1"/>
        <pt x="500" y="1178" on="0"/>
        <pt x="391" y="1178" on="1"/>
        <pt x="354" y="1178" on="0"/>
        <pt x="278" y="1159" on="1"/>
        <pt x="306" y="1292" on="1"/>
        <pt x="378" y="1310" on="0"/>
        <pt x="496" y="1310" on="0"/>
        <pt x="581" y="1285" on="0"/>
        <pt x="605" y="1260" on="1"/>
        <pt x="656" y="1206" on="0"/>
        <pt x="656" y="1124" on="1"/>
        <pt x="656" y="1055" on="0"/>
        <pt x="635" y="958" on="1"/>
        <pt x="432" y="0" on="1"/>
        <pt x="315" y="0" on="1"/>
        <pt x="319" y="24" on="0"/>
        <pt x="333" y="181" on="0"/>
        <pt x="337" y="204" on="1"/>
        <pt x="327" y="204" on="1"/>
        <pt x="282" y="121" on="0"/>
        <pt x="241" y="80" on="1"/>
        <pt x="152" y="-9" on="0"/>
        <pt x="24" y="-9" on="1"/>
        <pt x="-13" y="-9" on="0"/>
        <pt x="-49" y="1" on="1"/>
        <pt x="1" y="146" on="1"/>
        <pt x="1" y="143" on="0"/>
        <pt x="47" y="135" on="0"/>
        <pt x="62" y="135" on="1"/>
        <pt x="194" y="135" on="0"/>
        <pt x="350" y="324" on="0"/>
        <pt x="390" y="515" on="1"/>
        <pt x="484" y="958" on="1"/>
        <pt x="500" y="1032" on="0"/>
      </contour>
      <contour>
        <pt x="264" y="732" on="1"/>
        <pt x="323" y="732" on="0"/>
        <pt x="323" y="676" on="1"/>
        <pt x="323" y="662" on="0"/>
        <pt x="319" y="645" on="1"/>
        <pt x="301" y="559" on="0"/>
        <pt x="228" y="559" on="1"/>
        <pt x="172" y="559" on="0"/>
        <pt x="172" y="613" on="1"/>
        <pt x="172" y="627" on="0"/>
        <pt x="176" y="645" on="1"/>
        <pt x="194" y="732" on="0"/>
      </contour>
    </TTGlyph>
    <TTGlyph name="grave" xMin="424" yMin="1241" xMax="737" yMax="1569">
      <contour>
        <pt x="428" y="1569" on="1"/>
        <pt x="617" y="1569" on="1"/>
        <pt x="631" y="1504" on="0"/>
        <pt x="698" y="1331" on="0"/>
        <pt x="737" y="1264" on="1"/>
        <pt x="732" y="1241" on="1"/>
        <pt x="638" y="1241" on="1"/>
        <pt x="584" y="1295" on="0"/>
        <pt x="512" y="1393" on="1"/>
        <pt x="443" y="1491" on="0"/>
        <pt x="424" y="1551" on="1"/>
      </contour>
    </TTGlyph>
    <TTGlyph name="greater" xMin="-25" yMin="261" xMax="788" yMax="1183">
      <contour>
        <pt x="788" y="772" on="1"/>
        <pt x="767" y="675" on="1"/>
        <pt x="-25" y="261" on="1"/>
        <pt x="5" y="404" on="1"/>
        <pt x="637" y="723" on="1"/>
        <pt x="141" y="1041" on="1"/>
        <pt x="171" y="1183" on="1"/>
      </contour>
    </TTGlyph>
    <TTGlyph name="guillemotleft" xMin="76" yMin="131" xMax="945" yMax="943">
      <contour>
        <pt x="553" y="883" on="1"/>
        <pt x="260" y="538" on="1"/>
        <pt x="406" y="192" on="1"/>
        <pt x="287" y="131" on="1"/>
        <pt x="76" y="524" on="1"/>
        <pt x="82" y="550" on="1"/>
        <pt x="459" y="943" on="1"/>
      </contour>
      <contour>
        <pt x="945" y="883" on="1"/>
        <pt x="653" y="538" on="1"/>
        <pt x="798" y="192" on="1"/>
        <pt x="679" y="131" on="1"/>
        <pt x="468" y="524" on="1"/>
        <pt x="474" y="550" on="1"/>
        <pt x="851" y="943" on="1"/>
      </contour>
    </TTGlyph>
    <TTGlyph name="guillemotright" xMin="6" yMin="131" xMax="874" yMax="943">
      <contour>
        <pt x="482" y="550" on="1"/>
        <pt x="476" y="524" on="1"/>
        <pt x="98" y="131" on="1"/>
        <pt x="6" y="192" on="1"/>
        <pt x="297" y="538" on="1"/>
        <pt x="153" y="883" on="1"/>
        <pt x="270" y="943" on="1"/>
      </contour>
      <contour>
        <pt x="874" y="550" on="1"/>
        <pt x="868" y="524" on="1"/>
        <pt x="491" y="131" on="1"/>
        <pt x="398" y="192" on="1"/>
        <pt x="690" y="538" on="1"/>
        <pt x="545" y="883" on="1"/>
        <pt x="663" y="943" on="1"/>
      </contour>
    </TTGlyph>
    <TTGlyph name="guilsinglleft" xMin="76" yMin="131" xMax="553" yMax="943">
      <contour>
        <pt x="553" y="883" on="1"/>
        <pt x="260" y="538" on="1"/>
        <pt x="406" y="192" on="1"/>
        <pt x="287" y="131" on="1"/>
        <pt x="76" y="524" on="1"/>
        <pt x="82" y="550" on="1"/>
        <pt x="459" y="943" on="1"/>
      </contour>
    </TTGlyph>
    <TTGlyph name="guilsinglright" xMin="6" yMin="131" xMax="482" yMax="943">
      <contour>
        <pt x="482" y="550" on="1"/>
        <pt x="476" y="524" on="1"/>
        <pt x="100" y="131" on="1"/>
        <pt x="6" y="192" on="1"/>
        <pt x="298" y="538" on="1"/>
        <pt x="153" y="883" on="1"/>
        <pt x="272" y="943" on="1"/>
      </contour>
    </TTGlyph>
    <TTGlyph name="h" xMin="-31" yMin="0" xMax="808" yMax="1556">
      <contour>
        <pt x="597" y="1115" on="1"/>
        <pt x="738" y="1115" on="0"/>
        <pt x="784" y="1022" on="1"/>
        <pt x="808" y="973" on="0"/>
        <pt x="808" y="829" on="0"/>
        <pt x="789" y="741" on="1"/>
        <pt x="632" y="0" on="1"/>
        <pt x="480" y="0" on="1"/>
        <pt x="633" y="720" on="1"/>
        <pt x="649" y="798" on="0"/>
        <pt x="649" y="894" on="0"/>
        <pt x="640" y="920" on="1"/>
        <pt x="617" y="982" on="0"/>
        <pt x="538" y="982" on="1"/>
        <pt x="431" y="982" on="0"/>
        <pt x="286" y="781" on="0"/>
        <pt x="242" y="574" on="1"/>
        <pt x="120" y="0" on="1"/>
        <pt x="-31" y="0" on="1"/>
        <pt x="299" y="1556" on="1"/>
        <pt x="450" y="1556" on="1"/>
        <pt x="354" y="1103" on="1"/>
        <pt x="341" y="1042" on="0"/>
        <pt x="315" y="947" on="1"/>
        <pt x="325" y="947" on="1"/>
        <pt x="374" y="1025" on="0"/>
        <pt x="521" y="1115" on="0"/>
      </contour>
    </TTGlyph>
    <TTGlyph name="hedageshhb" xMin="-5" yMin="0" xMax="903" yMax="1310">
      <contour>
        <pt x="582" y="1310" on="1"/>
        <pt x="795" y="1310" on="0"/>
        <pt x="863" y="1226" on="1"/>
        <pt x="903" y="1176" on="0"/>
        <pt x="903" y="1078" on="1"/>
        <pt x="903" y="1010" on="0"/>
        <pt x="884" y="920" on="1"/>
        <pt x="689" y="0" on="1"/>
        <pt x="536" y="0" on="1"/>
        <pt x="731" y="920" on="1"/>
        <pt x="746" y="991" on="0"/>
        <pt x="746" y="1079" on="0"/>
        <pt x="726" y="1136" on="0"/>
        <pt x="699" y="1152" on="1"/>
        <pt x="652" y="1180" on="0"/>
        <pt x="434" y="1180" on="0"/>
        <pt x="240" y="1153" on="1"/>
        <pt x="267" y="1282" on="1"/>
        <pt x="440" y="1310" on="0"/>
      </contour>
      <contour>
        <pt x="-5" y="0" on="1"/>
        <pt x="168" y="816" on="1"/>
        <pt x="320" y="816" on="1"/>
        <pt x="147" y="0" on="1"/>
      </contour>
      <contour>
        <pt x="494" y="732" on="1"/>
        <pt x="553" y="732" on="0"/>
        <pt x="553" y="676" on="1"/>
        <pt x="553" y="662" on="0"/>
        <pt x="549" y="645" on="1"/>
        <pt x="531" y="559" on="0"/>
        <pt x="458" y="559" on="1"/>
        <pt x="402" y="559" on="0"/>
        <pt x="402" y="613" on="1"/>
        <pt x="402" y="627" on="0"/>
        <pt x="406" y="645" on="1"/>
        <pt x="424" y="732" on="0"/>
      </contour>
    </TTGlyph>
    <TTGlyph name="hungarumlaut" xMin="209" yMin="1241" xMax="929" yMax="1569">
      <contour>
        <pt x="622" y="1569" on="1"/>
        <pt x="618" y="1551" on="1"/>
        <pt x="565" y="1483" on="0"/>
        <pt x="375" y="1303" on="0"/>
        <pt x="290" y="1241" on="1"/>
        <pt x="209" y="1241" on="1"/>
        <pt x="214" y="1264" on="1"/>
        <pt x="268" y="1319" on="0"/>
        <pt x="415" y="1514" on="0"/>
        <pt x="450" y="1569" on="1"/>
      </contour>
      <contour>
        <pt x="929" y="1569" on="1"/>
        <pt x="925" y="1551" on="1"/>
        <pt x="881" y="1490" on="0"/>
        <pt x="683" y="1305" on="0"/>
        <pt x="597" y="1241" on="1"/>
        <pt x="516" y="1241" on="1"/>
        <pt x="521" y="1264" on="1"/>
        <pt x="575" y="1319" on="0"/>
        <pt x="722" y="1514" on="0"/>
        <pt x="757" y="1569" on="1"/>
      </contour>
    </TTGlyph>
    <TTGlyph name="hyphen" xMin="44" yMin="479" xMax="515" yMax="624">
      <contour>
        <pt x="485" y="479" on="1"/>
        <pt x="44" y="479" on="1"/>
        <pt x="74" y="624" on="1"/>
        <pt x="515" y="624" on="1"/>
      </contour>
    </TTGlyph>
    <TTGlyph name="i" xMin="-25" yMin="0" xMax="441" yMax="1503">
      <contour>
        <pt x="300" y="1474" on="1"/>
        <pt x="332" y="1503" on="0"/>
        <pt x="414" y="1503" on="0"/>
        <pt x="431" y="1474" on="1"/>
        <pt x="441" y="1456" on="0"/>
        <pt x="441" y="1434" on="1"/>
        <pt x="441" y="1355" on="0"/>
        <pt x="396" y="1312" on="1"/>
        <pt x="366" y="1282" on="0"/>
        <pt x="285" y="1282" on="0"/>
        <pt x="266" y="1312" on="1"/>
        <pt x="254" y="1331" on="0"/>
        <pt x="254" y="1352" on="1"/>
        <pt x="254" y="1430" on="0"/>
      </contour>
      <contour>
        <pt x="127" y="0" on="1"/>
        <pt x="-25" y="0" on="1"/>
        <pt x="208" y="1095" on="1"/>
        <pt x="360" y="1095" on="1"/>
      </contour>
    </TTGlyph>
    <TTGlyph name="iacute" xMin="-32" yMin="0" xMax="653" yMax="1569">
      <contour>
        <pt x="653" y="1569" on="1"/>
        <pt x="649" y="1550" on="1"/>
        <pt x="608" y="1495" on="0"/>
        <pt x="390" y="1302" on="0"/>
        <pt x="303" y="1241" on="1"/>
        <pt x="210" y="1241" on="1"/>
        <pt x="215" y="1263" on="1"/>
        <pt x="359" y="1412" on="0"/>
        <pt x="465" y="1569" on="1"/>
      </contour>
      <contour>
        <pt x="120" y="0" on="1"/>
        <pt x="-32" y="0" on="1"/>
        <pt x="201" y="1095" on="1"/>
        <pt x="353" y="1095" on="1"/>
      </contour>
    </TTGlyph>
    <TTGlyph name="icircumflex" xMin="-32" yMin="0" xMax="586" yMax="1569">
      <contour>
        <pt x="299" y="1569" on="1"/>
        <pt x="454" y="1569" on="1"/>
        <pt x="464" y="1520" on="0"/>
        <pt x="539" y="1345" on="0"/>
        <pt x="586" y="1262" on="1"/>
        <pt x="582" y="1241" on="1"/>
        <pt x="496" y="1241" on="1"/>
        <pt x="462" y="1277" on="0"/>
        <pt x="418" y="1341" on="1"/>
        <pt x="350" y="1442" on="1"/>
        <pt x="176" y="1286" on="0"/>
        <pt x="117" y="1241" on="1"/>
        <pt x="32" y="1241" on="1"/>
        <pt x="36" y="1262" on="1"/>
        <pt x="219" y="1451" on="0"/>
      </contour>
      <contour>
        <pt x="120" y="0" on="1"/>
        <pt x="-32" y="0" on="1"/>
        <pt x="201" y="1095" on="1"/>
        <pt x="353" y="1095" on="1"/>
      </contour>
    </TTGlyph>
    <TTGlyph name="idieresis" xMin="-23" yMin="0" xMax="608" yMax="1490">
      <contour>
        <pt x="165" y="1490" on="0"/>
        <pt x="241" y="1490" on="0"/>
        <pt x="259" y="1465" on="1"/>
        <pt x="271" y="1448" on="0"/>
        <pt x="271" y="1429" on="1"/>
        <pt x="271" y="1359" on="0"/>
        <pt x="229" y="1321" on="1"/>
        <pt x="200" y="1295" on="0"/>
        <pt x="124" y="1295" on="0"/>
        <pt x="106" y="1320" on="1"/>
        <pt x="93" y="1337" on="0"/>
        <pt x="93" y="1357" on="1"/>
        <pt x="93" y="1430" on="0"/>
        <pt x="136" y="1466" on="1"/>
      </contour>
      <contour>
        <pt x="472" y="1465" on="1"/>
        <pt x="500" y="1490" on="0"/>
        <pt x="577" y="1490" on="0"/>
        <pt x="596" y="1466" on="1"/>
        <pt x="608" y="1450" on="0"/>
        <pt x="608" y="1430" on="1"/>
        <pt x="608" y="1358" on="0"/>
        <pt x="565" y="1320" on="1"/>
        <pt x="536" y="1295" on="0"/>
        <pt x="460" y="1295" on="0"/>
        <pt x="442" y="1321" on="1"/>
        <pt x="429" y="1338" on="0"/>
        <pt x="429" y="1358" on="1"/>
        <pt x="429" y="1428" on="0"/>
      </contour>
      <contour>
        <pt x="129" y="0" on="1"/>
        <pt x="-23" y="0" on="1"/>
        <pt x="209" y="1095" on="1"/>
        <pt x="361" y="1095" on="1"/>
      </contour>
    </TTGlyph>
    <TTGlyph name="igrave" xMin="-32" yMin="0" xMax="418" yMax="1569">
      <contour>
        <pt x="109" y="1569" on="1"/>
        <pt x="298" y="1569" on="1"/>
        <pt x="312" y="1504" on="0"/>
        <pt x="383" y="1323" on="0"/>
        <pt x="418" y="1264" on="1"/>
        <pt x="413" y="1241" on="1"/>
        <pt x="319" y="1241" on="1"/>
        <pt x="265" y="1295" on="0"/>
        <pt x="193" y="1393" on="1"/>
        <pt x="124" y="1491" on="0"/>
        <pt x="105" y="1551" on="1"/>
      </contour>
      <contour>
        <pt x="120" y="0" on="1"/>
        <pt x="-32" y="0" on="1"/>
        <pt x="201" y="1095" on="1"/>
        <pt x="353" y="1095" on="1"/>
      </contour>
    </TTGlyph>
    <TTGlyph name="j" xMin="-230" yMin="-492" xMax="495" yMax="1503">
      <contour>
        <pt x="354" y="1474" on="1"/>
        <pt x="386" y="1503" on="0"/>
        <pt x="469" y="1503" on="0"/>
        <pt x="486" y="1474" on="1"/>
        <pt x="495" y="1456" on="0"/>
        <pt x="495" y="1434" on="1"/>
        <pt x="495" y="1358" on="0"/>
        <pt x="450" y="1312" on="1"/>
        <pt x="421" y="1282" on="0"/>
        <pt x="340" y="1282" on="0"/>
        <pt x="321" y="1312" on="1"/>
        <pt x="309" y="1332" on="0"/>
        <pt x="309" y="1353" on="1"/>
        <pt x="309" y="1430" on="0"/>
      </contour>
      <contour>
        <pt x="76" y="-492" on="0"/>
        <pt x="-143" y="-492" on="1"/>
        <pt x="-199" y="-492" on="0"/>
        <pt x="-230" y="-472" on="1"/>
        <pt x="-202" y="-339" on="1"/>
        <pt x="-168" y="-356" on="0"/>
        <pt x="-135" y="-356" on="1"/>
        <pt x="-88" y="-356" on="0"/>
        <pt x="-28" y="-268" on="0"/>
        <pt x="-8" y="-175" on="1"/>
        <pt x="262" y="1095" on="1"/>
        <pt x="414" y="1095" on="1"/>
        <pt x="144" y="-177" on="1"/>
      </contour>
    </TTGlyph>
    <TTGlyph name="k" xMin="-31" yMin="0" xMax="830" yMax="1556">
      <contour>
        <pt x="281" y="753" on="1"/>
        <pt x="230" y="558" on="1"/>
        <pt x="239" y="558" on="1"/>
        <pt x="327" y="675" on="1"/>
        <pt x="668" y="1095" on="1"/>
        <pt x="830" y="1095" on="1"/>
        <pt x="481" y="676" on="1"/>
        <pt x="619" y="0" on="1"/>
        <pt x="460" y="0" on="1"/>
        <pt x="354" y="556" on="1"/>
        <pt x="210" y="419" on="1"/>
        <pt x="121" y="0" on="1"/>
        <pt x="-31" y="0" on="1"/>
        <pt x="299" y="1556" on="1"/>
        <pt x="451" y="1556" on="1"/>
      </contour>
    </TTGlyph>
    <TTGlyph name="kafdageshhb" xMin="-86" yMin="-20" xMax="648" yMax="1310">
      <contour>
        <pt x="460" y="1310" on="0"/>
        <pt x="575" y="1249" on="0"/>
        <pt x="604" y="1198" on="1"/>
        <pt x="648" y="1120" on="0"/>
        <pt x="648" y="983" on="1"/>
        <pt x="648" y="878" on="0"/>
        <pt x="615" y="726" on="1"/>
        <pt x="573" y="528" on="1"/>
        <pt x="555" y="446" on="0"/>
        <pt x="509" y="304" on="0"/>
        <pt x="429" y="153" on="0"/>
        <pt x="329" y="48" on="0"/>
        <pt x="182" y="-20" on="0"/>
        <pt x="-8" y="-20" on="0"/>
        <pt x="-86" y="8" on="1"/>
        <pt x="-57" y="145" on="1"/>
        <pt x="-55" y="145" on="0"/>
        <pt x="-28" y="134" on="0"/>
        <pt x="-2" y="127" on="0"/>
        <pt x="18" y="122" on="1"/>
        <pt x="58" y="112" on="0"/>
        <pt x="163" y="112" on="0"/>
        <pt x="248" y="156" on="0"/>
        <pt x="309" y="233" on="0"/>
        <pt x="356" y="316" on="0"/>
        <pt x="374" y="368" on="1"/>
        <pt x="403" y="457" on="0"/>
        <pt x="418" y="528" on="1"/>
        <pt x="460" y="726" on="1"/>
        <pt x="489" y="863" on="0"/>
        <pt x="489" y="959" on="1"/>
        <pt x="489" y="1174" on="0"/>
        <pt x="340" y="1174" on="1"/>
        <pt x="260" y="1174" on="0"/>
        <pt x="149" y="1135" on="1"/>
        <pt x="179" y="1276" on="1"/>
        <pt x="183" y="1277" on="0"/>
        <pt x="228" y="1290" on="0"/>
        <pt x="250" y="1295" on="1"/>
        <pt x="316" y="1310" on="0"/>
      </contour>
      <contour>
        <pt x="231" y="732" on="1"/>
        <pt x="290" y="732" on="0"/>
        <pt x="290" y="676" on="1"/>
        <pt x="290" y="662" on="0"/>
        <pt x="286" y="645" on="1"/>
        <pt x="268" y="559" on="0"/>
        <pt x="195" y="559" on="1"/>
        <pt x="139" y="559" on="0"/>
        <pt x="139" y="613" on="1"/>
        <pt x="139" y="627" on="0"/>
        <pt x="143" y="645" on="1"/>
        <pt x="161" y="732" on="0"/>
      </contour>
    </TTGlyph>
    <TTGlyph name="l" xMin="-31" yMin="0" xMax="451" yMax="1556">
      <contour>
        <pt x="121" y="0" on="1"/>
        <pt x="-31" y="0" on="1"/>
        <pt x="299" y="1556" on="1"/>
        <pt x="451" y="1556" on="1"/>
      </contour>
    </TTGlyph>
    <TTGlyph name="lameddageshhb" xMin="39" yMin="0" xMax="779" yMax="1564">
      <contour>
        <pt x="779" y="1294" on="1"/>
        <pt x="750" y="1160" on="1"/>
        <pt x="450" y="503" on="1"/>
        <pt x="397" y="369" on="0"/>
        <pt x="248" y="0" on="1"/>
        <pt x="98" y="0" on="1"/>
        <pt x="118" y="50" on="0"/>
        <pt x="273" y="437" on="0"/>
        <pt x="296" y="496" on="1"/>
        <pt x="604" y="1161" on="1"/>
        <pt x="154" y="1161" on="1"/>
        <pt x="239" y="1564" on="1"/>
        <pt x="390" y="1564" on="1"/>
        <pt x="333" y="1294" on="1"/>
      </contour>
      <contour>
        <pt x="131" y="732" on="1"/>
        <pt x="190" y="732" on="0"/>
        <pt x="190" y="676" on="1"/>
        <pt x="190" y="662" on="0"/>
        <pt x="186" y="645" on="1"/>
        <pt x="168" y="559" on="0"/>
        <pt x="95" y="559" on="1"/>
        <pt x="39" y="559" on="0"/>
        <pt x="39" y="613" on="1"/>
        <pt x="39" y="627" on="0"/>
        <pt x="43" y="645" on="1"/>
        <pt x="61" y="732" on="0"/>
      </contour>
    </TTGlyph>
    <TTGlyph name="less" xMin="65" yMin="261" xMax="876" yMax="1183">
      <contour>
        <pt x="846" y="1041" on="1"/>
        <pt x="215" y="723" on="1"/>
        <pt x="710" y="404" on="1"/>
        <pt x="680" y="261" on="1"/>
        <pt x="65" y="675" on="1"/>
        <pt x="86" y="772" on="1"/>
        <pt x="876" y="1183" on="1"/>
      </contour>
    </TTGlyph>
    <TTGlyph name="logicalnot" xMin="106" yMin="250" xMax="820" yMax="784">
      <contour>
        <pt x="706" y="250" on="1"/>
        <pt x="586" y="250" on="1"/>
        <pt x="674" y="661" on="1"/>
        <pt x="106" y="661" on="1"/>
        <pt x="132" y="784" on="1"/>
        <pt x="820" y="784" on="1"/>
      </contour>
    </TTGlyph>
    <TTGlyph name="m" xMin="15" yMin="0" xMax="1324" yMax="1115">
      <contour>
        <pt x="371" y="1094" on="1"/>
        <pt x="356" y="946" on="1"/>
        <pt x="368" y="946" on="1"/>
        <pt x="472" y="1115" on="0"/>
        <pt x="637" y="1115" on="1"/>
        <pt x="730" y="1115" on="0"/>
        <pt x="824" y="1020" on="0"/>
        <pt x="831" y="925" on="1"/>
        <pt x="859" y="959" on="0"/>
        <pt x="889" y="995" on="0"/>
        <pt x="954" y="1057" on="0"/>
        <pt x="981" y="1073" on="1"/>
        <pt x="1052" y="1115" on="0"/>
        <pt x="1129" y="1115" on="1"/>
        <pt x="1261" y="1115" on="0"/>
        <pt x="1303" y="1018" on="1"/>
        <pt x="1324" y="970" on="0"/>
        <pt x="1324" y="819" on="0"/>
        <pt x="1301" y="714" on="1"/>
        <pt x="1149" y="0" on="1"/>
        <pt x="998" y="0" on="1"/>
        <pt x="1150" y="714" on="1"/>
        <pt x="1165" y="787" on="0"/>
        <pt x="1165" y="840" on="1"/>
        <pt x="1165" y="978" on="0"/>
        <pt x="1059" y="978" on="1"/>
        <pt x="957" y="978" on="0"/>
        <pt x="827" y="795" on="0"/>
        <pt x="787" y="603" on="1"/>
        <pt x="658" y="0" on="1"/>
        <pt x="506" y="0" on="1"/>
        <pt x="658" y="714" on="1"/>
        <pt x="674" y="787" on="0"/>
        <pt x="674" y="840" on="1"/>
        <pt x="674" y="978" on="0"/>
        <pt x="567" y="978" on="1"/>
        <pt x="466" y="978" on="0"/>
        <pt x="334" y="789" on="0"/>
        <pt x="289" y="575" on="1"/>
        <pt x="166" y="0" on="1"/>
        <pt x="15" y="0" on="1"/>
        <pt x="248" y="1094" on="1"/>
      </contour>
    </TTGlyph>
    <TTGlyph name="memdageshhb" xMin="-86" yMin="0" xMax="877" yMax="1310">
      <contour>
        <pt x="633" y="1310" on="0"/>
        <pt x="735" y="1310" on="0"/>
        <pt x="810" y="1277" on="0"/>
        <pt x="832" y="1252" on="1"/>
        <pt x="877" y="1200" on="0"/>
        <pt x="877" y="1087" on="1"/>
        <pt x="877" y="1017" on="0"/>
        <pt x="853" y="888" on="0"/>
        <pt x="842" y="835" on="1"/>
        <pt x="665" y="0" on="1"/>
        <pt x="286" y="0" on="1"/>
        <pt x="313" y="127" on="1"/>
        <pt x="541" y="127" on="1"/>
        <pt x="691" y="835" on="1"/>
        <pt x="719" y="968" on="0"/>
        <pt x="722" y="1040" on="0"/>
        <pt x="721" y="1096" on="0"/>
        <pt x="708" y="1131" on="0"/>
        <pt x="697" y="1147" on="1"/>
        <pt x="676" y="1178" on="0"/>
        <pt x="579" y="1178" on="0"/>
        <pt x="490" y="1134" on="0"/>
        <pt x="459" y="1102" on="1"/>
        <pt x="395" y="1036" on="0"/>
        <pt x="368" y="985" on="1"/>
        <pt x="357" y="963" on="1"/>
        <pt x="66" y="0" on="1"/>
        <pt x="-86" y="0" on="1"/>
        <pt x="172" y="853" on="1"/>
        <pt x="208" y="975" on="0"/>
        <pt x="224" y="1045" on="0"/>
        <pt x="228" y="1104" on="0"/>
        <pt x="228" y="1152" on="0"/>
        <pt x="222" y="1210" on="0"/>
        <pt x="218" y="1243" on="0"/>
        <pt x="211" y="1287" on="0"/>
        <pt x="211" y="1290" on="1"/>
        <pt x="362" y="1290" on="1"/>
        <pt x="374" y="1223" on="0"/>
        <pt x="376" y="1140" on="1"/>
        <pt x="385" y="1140" on="1"/>
        <pt x="403" y="1165" on="0"/>
        <pt x="467" y="1228" on="0"/>
        <pt x="532" y="1273" on="0"/>
      </contour>
      <contour>
        <pt x="483" y="732" on="1"/>
        <pt x="542" y="732" on="0"/>
        <pt x="542" y="676" on="1"/>
        <pt x="542" y="662" on="0"/>
        <pt x="538" y="645" on="1"/>
        <pt x="520" y="559" on="0"/>
        <pt x="447" y="559" on="1"/>
        <pt x="391" y="559" on="0"/>
        <pt x="391" y="613" on="1"/>
        <pt x="391" y="627" on="0"/>
        <pt x="395" y="645" on="1"/>
        <pt x="413" y="732" on="0"/>
      </contour>
    </TTGlyph>
    <TTGlyph name="multiply" xMin="4" yMin="340" xMax="845" yMax="1103">
      <contour>
        <pt x="443" y="813" on="1"/>
        <pt x="771" y="1103" on="1"/>
        <pt x="845" y="1028" on="1"/>
        <pt x="564" y="776" on="0"/>
        <pt x="503" y="723" on="1"/>
        <pt x="712" y="419" on="1"/>
        <pt x="608" y="343" on="1"/>
        <pt x="405" y="632" on="1"/>
        <pt x="77" y="340" on="1"/>
        <pt x="52" y="367" on="0"/>
        <pt x="4" y="417" on="1"/>
        <pt x="346" y="723" on="1"/>
        <pt x="193" y="942" on="0"/>
        <pt x="136" y="1025" on="1"/>
        <pt x="240" y="1100" on="1"/>
      </contour>
    </TTGlyph>
    <TTGlyph name="n" xMin="15" yMin="0" xMax="854" yMax="1115">
      <contour>
        <pt x="371" y="1094" on="1"/>
        <pt x="356" y="946" on="1"/>
        <pt x="368" y="946" on="1"/>
        <pt x="419" y="1026" on="0"/>
        <pt x="568" y="1115" on="0"/>
        <pt x="647" y="1115" on="1"/>
        <pt x="783" y="1115" on="0"/>
        <pt x="830" y="1024" on="1"/>
        <pt x="854" y="974" on="0"/>
        <pt x="854" y="830" on="0"/>
        <pt x="836" y="742" on="1"/>
        <pt x="678" y="0" on="1"/>
        <pt x="526" y="0" on="1"/>
        <pt x="680" y="720" on="1"/>
        <pt x="695" y="792" on="0"/>
        <pt x="695" y="844" on="1"/>
        <pt x="695" y="982" on="0"/>
        <pt x="588" y="982" on="1"/>
        <pt x="466" y="982" on="0"/>
        <pt x="329" y="763" on="0"/>
        <pt x="272" y="496" on="1"/>
        <pt x="166" y="0" on="1"/>
        <pt x="15" y="0" on="1"/>
        <pt x="248" y="1094" on="1"/>
      </contour>
    </TTGlyph>
    <TTGlyph name="nine" xMin="-10" yMin="-20" xMax="824" yMax="1482">
      <contour>
        <pt x="336" y="544" on="1"/>
        <pt x="196" y="544" on="0"/>
        <pt x="142" y="667" on="1"/>
        <pt x="113" y="734" on="0"/>
        <pt x="113" y="904" on="0"/>
        <pt x="134" y="1000" on="1"/>
        <pt x="182" y="1225" on="0"/>
        <pt x="422" y="1482" on="0"/>
        <pt x="748" y="1482" on="0"/>
        <pt x="800" y="1318" on="1"/>
        <pt x="824" y="1245" on="0"/>
        <pt x="824" y="1018" on="0"/>
        <pt x="787" y="847" on="1"/>
        <pt x="695" y="415" on="0"/>
        <pt x="363" y="-20" on="0"/>
        <pt x="128" y="-20" on="1"/>
        <pt x="43" y="-20" on="0"/>
        <pt x="-10" y="0" on="1"/>
        <pt x="19" y="139" on="1"/>
        <pt x="76" y="116" on="0"/>
        <pt x="153" y="116" on="1"/>
        <pt x="306" y="116" on="0"/>
        <pt x="538" y="416" on="0"/>
        <pt x="610" y="708" on="1"/>
        <pt x="602" y="708" on="1"/>
        <pt x="551" y="630" on="0"/>
        <pt x="414" y="544" on="0"/>
      </contour>
      <contour>
        <pt x="271" y="854" on="1"/>
        <pt x="271" y="678" on="0"/>
        <pt x="401" y="678" on="1"/>
        <pt x="486" y="678" on="0"/>
        <pt x="628" y="837" on="0"/>
        <pt x="674" y="1057" on="0"/>
        <pt x="674" y="1194" on="0"/>
        <pt x="661" y="1240" on="1"/>
        <pt x="631" y="1342" on="0"/>
        <pt x="460" y="1342" on="0"/>
        <pt x="326" y="1173" on="0"/>
        <pt x="290" y="1005" on="1"/>
        <pt x="271" y="919" on="0"/>
      </contour>
    </TTGlyph>
</ttFont>
